<?xml version="1.0" encoding="UTF-8" standalone="no"?>
<!DOCTYPE svg  PUBLIC '-//W3C//DTD SVG 1.1//EN'  'http://www.w3.org/Graphics/SVG/1.1/DTD/svg11.dtd'>
<svg xmlns="http://www.w3.org/2000/svg">
<defs>
<font id="UnitOT-Light" horiz-adv-x="498">
<font-face underline-position="-50" font-weight="350" descent="-200" panose-1="2 11 5 4 3 1 1 2 1 2" units-per-em="1000" unicode-range="U+0020-25CA" bbox="-78 -212 1113 918" x-height="478" underline-thickness="50" font-family="UnitOT" ascent="800" cap-height="687"/>
<missing-glyph horiz-adv-x="1000"/>
<glyph glyph-name=".notdef" horiz-adv-x="1000"/>
<glyph glyph-name=".null" horiz-adv-x="0"/>
<glyph glyph-name=".null" horiz-adv-x="0"/>
<glyph glyph-name="nonmarkingreturn" horiz-adv-x="333"/>
<glyph glyph-name="space" horiz-adv-x="230" unicode=" "/>
<glyph glyph-name="exclam" horiz-adv-x="252" unicode="!" d="M126 -7q-22 0 -36.5 14.5t-14.5 36.5t14.5 37t36.5 15q21 0 36 -15t15 -37t-15 -36.5t-36 -14.5zM101 186l-12 501h72l-13 -501h-47z"/>
<glyph glyph-name="quotedbl" horiz-adv-x="370" unicode='&quot;' d="M84 468v242h56v-242h-56zM229 468v242h57v-242h-57z"/>
<glyph glyph-name="numbersign" horiz-adv-x="544" unicode="#" d="M353 408h-136l-26 -171h136zM166 408h-97v52h105l26 175h51l-26 -175h136l26 175h51l-26 -175h91v-52h-99l-26 -171h96v-52h-104l-27 -185h-51l28 185h-137l-27 -185h-51l28 185h-93v52h100z"/>
<glyph glyph-name="dollar" horiz-adv-x="496" unicode="$" d="M232 593q-95 -8 -95 -102q0 -47 22 -71.5t73 -45.5v219zM276 43q103 13 103 119q0 52 -24 80t-79 51v-250zM231 645v116h46v-117q74 -7 134 -48l-27 -45q-50 36 -108 41v-236q81 -32 122.5 -73.5t41.5 -117.5q0 -72 -39 -119t-124 -55v-106h-46v105q-114 6 -188 78l33 41 q69 -64 156 -68v270q-75 30 -115 69t-40 108q0 70 41.5 111t112.5 46z"/>
<glyph glyph-name="percent" horiz-adv-x="809" unicode="%" d="M185 0l381 635h57l-380 -635h-58zM607 37q89 0 89 121q0 131 -90 131q-89 0 -89 -122q0 -130 90 -130zM202 346q90 0 90 121q0 131 -91 131q-89 0 -89 -122q0 -130 90 -130zM203 300q-68 0 -108.5 47t-40.5 126q0 78 40 124.5t107 46.5t108 -46.5t41 -127.5 q0 -78 -39.5 -124t-107.5 -46zM608 -9q-68 0 -109 47t-41 126q0 78 40 124.5t107 46.5t108.5 -47t41.5 -127q0 -77 -40 -123.5t-107 -46.5z"/>
<glyph glyph-name="ampersand" horiz-adv-x="639" unicode="&amp;" d="M264 418q55 32 78 61.5t23 71.5q0 96 -85 96q-43 0 -67.5 -23.5t-24.5 -63.5q0 -54 57 -119zM430 129l-191 227q-114 -60 -114 -174q0 -145 146 -145q101 0 159 92zM294 383l165 -196q29 73 42 174l57 -5q-17 -134 -58 -216l118 -140h-78l-73 86q-73 -99 -198 -99 q-109 0 -160 55.5t-51 139.5q0 74 37.5 123.5t113.5 87.5l-8 9q-39 47 -57.5 82t-18.5 75q0 61 41.5 99t112.5 38q67 0 108.5 -37.5t41.5 -106.5q0 -99 -135 -169z"/>
<glyph glyph-name="quotesingle" horiz-adv-x="224" unicode="&apos;" d="M84 468v242h56v-242h-56z"/>
<glyph glyph-name="parenleft" horiz-adv-x="327" unicode="(" d="M267 -153q-203 109 -203 461q0 187 50.5 298t151.5 165l22 -38q-83 -54 -120 -151.5t-37 -273.5t37.5 -273t119.5 -150z"/>
<glyph glyph-name="parenright" horiz-adv-x="327" unicode=")" d="M60 -153l-22 38q83 53 120.5 149.5t37.5 272.5q0 175 -37.5 274t-120.5 152l22 38q100 -54 151.5 -166t51.5 -300q0 -349 -203 -458z"/>
<glyph glyph-name="asterisk" horiz-adv-x="445" unicode="*" d="M140 352l-38 26l83 120l-131 47l16 44l128 -49v147h49v-146l128 47l16 -44l-131 -47l84 -119l-38 -26l-83 119z"/>
<glyph glyph-name="plus" horiz-adv-x="524" unicode="+" d="M233 85v177h-160v52h160v177h57v-177h160v-52h-160v-177h-57z"/>
<glyph glyph-name="comma" horiz-adv-x="241" unicode="," d="M79 -109l-12 34q22 9 37 27t15 41q-20 1 -35.5 15t-15.5 38q0 22 15 37t36 15q23 0 39 -19.5t16 -52.5q0 -109 -95 -135z"/>
<glyph glyph-name="hyphen" horiz-adv-x="292" unicode="-" d="M56 238v60h179v-60h-179z"/>
<glyph glyph-name="period" horiz-adv-x="241" unicode="." d="M120 -7q-21 0 -36.5 15t-15.5 37t15.5 37.5t36.5 15.5q22 0 37 -15.5t15 -37.5t-15 -37t-37 -15z"/>
<glyph glyph-name="slash" horiz-adv-x="354" unicode="/" d="M26 -146l246 905h56l-246 -905h-56z"/>
<glyph glyph-name="zero" horiz-adv-x="598" unicode="0" d="M300 41q89 0 128.5 67.5t39.5 204.5q0 140 -40.5 210.5t-128.5 70.5q-169 0 -169 -276q0 -140 40 -208.5t130 -68.5zM301 -9q-237 0 -237 324q0 158 61 244t174 86q114 0 174 -84t60 -242q0 -328 -232 -328z"/>
<glyph glyph-name="one" horiz-adv-x="435" unicode="1" d="M71 0v51h132v508l-127 -66l-19 33l160 115h48v-590h121v-51h-315z"/>
<glyph glyph-name="two" horiz-adv-x="476" unicode="2" d="M46 0v56q125 109 191 183t85.5 120.5t19.5 101.5q0 132 -122 132q-71 0 -147 -45l-24 43q84 54 174 54q82 0 133 -46t51 -137q0 -90 -61 -178.5t-230 -230.5h303v-53h-373z"/>
<glyph glyph-name="three" horiz-adv-x="497" unicode="3" d="M208 -65q-98 0 -175 36l15 47q81 -30 158 -30q82 0 121 37t39 116q0 83 -40.5 116t-119.5 33h-48v50h48q137 0 137 132q0 120 -122 120q-74 0 -152 -43l-22 44q88 52 180 52q84 0 132 -47.5t48 -119.5q0 -121 -103 -159q129 -34 129 -179q0 -97 -58 -151t-167 -54z"/>
<glyph glyph-name="four" horiz-adv-x="545" unicode="4" d="M360 104h-313v59l213 472h64l-217 -478h253v285l63 13v-298h78v-53h-78v-160h-63v160z"/>
<glyph glyph-name="five" d="M201 -65q-83 0 -161 34l16 48q74 -30 146 -30q87 0 129 46.5t42 131.5q0 165 -168 165q-64 0 -123 -19l30 324h310v-53h-259l-20 -209q29 8 70 8q103 0 164 -56t61 -156q0 -108 -62 -171t-175 -63z" unicode="5"/>
<glyph glyph-name="six" horiz-adv-x="557" unicode="6" d="M132 313q-1 -14 -1 -43q0 -230 157 -230q68 0 104.5 44.5t36.5 126.5q0 80 -38.5 123t-104.5 43q-83 0 -154 -64zM136 363q74 64 160 64q84 0 141 -57.5t57 -156.5q0 -107 -56.5 -165t-149.5 -58q-99 0 -160.5 74.5t-61.5 209.5q0 194 85.5 291.5t255.5 129.5l12 -48 q-132 -29 -199.5 -91.5t-83.5 -192.5z"/>
<glyph glyph-name="seven" horiz-adv-x="485" unicode="7" d="M193 -62l-65 7q36 392 245 637h-329v53h389v-57q-213 -249 -240 -640z"/>
<glyph glyph-name="eight" horiz-adv-x="547" unicode="8" d="M284 386q65 32 89 66.5t24 81.5q0 54 -33 84t-92 30q-57 0 -89.5 -30t-32.5 -83q0 -49 23 -79.5t84 -57.5zM252 338q-66 -29 -97.5 -66t-31.5 -96q0 -69 40.5 -103t113.5 -34q68 0 107 34t39 92q0 53 -24.5 86.5t-87.5 61.5zM208 362q-121 57 -121 170q0 74 49.5 119 t136.5 45q85 0 135.5 -45t50.5 -116q0 -111 -129 -172q86 -36 121.5 -80.5t35.5 -110.5q0 -85 -57.5 -133.5t-153.5 -48.5q-99 0 -157.5 49.5t-58.5 135.5q0 70 38 113t110 74z"/>
<glyph glyph-name="nine" horiz-adv-x="557" unicode="9" d="M425 319q1 15 1 48q0 230 -156 230q-68 0 -105 -45t-37 -127q0 -83 39 -125.5t107 -42.5q80 0 151 62zM420 270q-67 -63 -154 -63q-86 0 -144.5 58.5t-58.5 157.5q0 105 58.5 164.5t149.5 59.5q100 0 160 -72.5t60 -211.5q0 -191 -89.5 -289.5t-263.5 -131.5l-13 48 q136 32 206.5 93.5t88.5 186.5z"/>
<glyph glyph-name="colon" horiz-adv-x="258" unicode=":" d="M129 279q-22 0 -37 15.5t-15 37.5t15 37t37 15t37 -15t15 -37t-15 -37.5t-37 -15.5zM129 -7q-22 0 -37 15t-15 37t15 37.5t37 15.5t37 -15.5t15 -37.5t-15 -37t-37 -15z"/>
<glyph glyph-name="semicolon" horiz-adv-x="258" unicode=";" d="M129 279q-22 0 -37 15.5t-15 37.5t15 37t37 15t37 -15t15 -37t-15 -37.5t-37 -15.5zM88 -109l-13 34q22 9 37 27t15 41q-20 1 -35 15t-15 38q0 22 14.5 37t35.5 15q24 0 40 -19.5t16 -52.5q0 -109 -95 -135z"/>
<glyph glyph-name="less" horiz-adv-x="342" unicode="&lt;" d="M259 80l-205 196v25l205 196l36 -37l-179 -171l179 -172z"/>
<glyph glyph-name="equal" horiz-adv-x="533" unicode="=" d="M74 177v52h384v-52h-384zM74 349v52h384v-52h-384z"/>
<glyph glyph-name="greater" horiz-adv-x="342" unicode="&gt;" d="M82 80l-35 36l178 172l-178 172l35 37l206 -196v-25z"/>
<glyph glyph-name="question" horiz-adv-x="424" unicode="?" d="M184 -7q-21 0 -36 14.5t-15 36.5t15 37t36 15q22 0 36.5 -15t14.5 -37t-14.5 -36.5t-36.5 -14.5zM156 186v91q0 56 17.5 85t55.5 58q24 18 35 29.5t22 36.5t11 59q0 53 -22.5 75.5t-74.5 22.5q-62 0 -128 -43l-24 45q72 51 155 51q73 0 114.5 -36.5t41.5 -112.5 q0 -35 -6.5 -60t-25 -47t-27 -29.5t-36.5 -29.5q-32 -25 -43 -46.5t-11 -61.5v-87h-54z"/>
<glyph glyph-name="at" horiz-adv-x="801" unicode="@" d="M328 54q55 0 131 78l51 237q-46 44 -92 44q-47 0 -75 -37.5t-49 -132.5q-16 -73 -16 -115q0 -74 50 -74zM366 -152q-306 0 -306 358q0 177 94.5 294.5t267.5 117.5q163 0 241 -96.5t78 -253.5q0 -276 -165 -276q-53 0 -81.5 26t-32.5 72q-73 -85 -147 -85 q-43 0 -69.5 32.5t-26.5 102.5q0 43 14 110q25 110 68 159.5t112 49.5q56 0 106 -50l8 38h58l-62 -293q-6 -27 -6 -48q0 -67 58 -67q57 0 82.5 56t25.5 173q0 145 -59 223.5t-202 78.5q-102 0 -172 -51t-101 -131t-31 -182q0 -158 55 -234t192 -76q72 0 139 21l13 -43 q-76 -26 -151 -26z"/>
<glyph glyph-name="A" horiz-adv-x="555" unicode="A" d="M375 275l-58 195q-27 91 -37 156h-2q-12 -66 -39 -156l-60 -195h196zM162 221l-68 -221h-64l215 687h69l210 -687h-68l-65 221h-229z"/>
<glyph glyph-name="B" horiz-adv-x="551" unicode="B" d="M155 385h125q66 0 92.5 29t26.5 92t-28 95.5t-94 32.5h-122v-249zM156 53h124q80 0 114.5 34t34.5 105q0 73 -34 106.5t-113 33.5h-126v-279zM93 0v687h183q99 0 143.5 -49.5t44.5 -131.5q0 -56 -19 -90.5t-67 -51.5q118 -31 118 -175q0 -97 -56.5 -143t-155.5 -46h-191z "/>
<glyph glyph-name="C" horiz-adv-x="540" unicode="C" d="M324 -10q-134 0 -195 87.5t-61 262.5q0 356 252 356q96 0 162 -53l-31 -45q-58 45 -131 45q-102 0 -143 -72t-41 -228q0 -158 41 -228.5t148 -70.5q71 0 138 52l31 -46q-74 -60 -170 -60z"/>
<glyph glyph-name="D" horiz-adv-x="587" unicode="D" d="M156 54h99q114 0 155.5 63t41.5 220q0 166 -41 231.5t-156 65.5h-99v-580zM93 0v687h155q147 0 209 -80.5t62 -272.5q0 -184 -62 -259t-206 -75h-158z"/>
<glyph glyph-name="E" horiz-adv-x="504" unicode="E" d="M98 0v687h340v-54h-277v-245h225v-54h-225v-280h289v-54h-352z"/>
<glyph glyph-name="F" horiz-adv-x="486" unicode="F" d="M98 0v687h334v-54h-271v-245h224v-53h-224v-335h-63z"/>
<glyph glyph-name="G" horiz-adv-x="597" unicode="G" d="M458 51q-66 -61 -149 -61q-241 0 -241 350q0 168 60.5 262t188.5 94q105 0 172 -60l-32 -46q-65 52 -140 52q-100 0 -140.5 -74.5t-40.5 -225.5q0 -154 40.5 -227t134.5 -73q80 0 140 55v206h-147v54h209v-357h-43z"/>
<glyph glyph-name="H" horiz-adv-x="609" unicode="H" d="M98 0v687h63v-293h286v293h64v-687h-64v339h-286v-339h-63z"/>
<glyph glyph-name="I" horiz-adv-x="329" unicode="I" d="M133 645l-71 6v36h205v-36l-71 -6v-603l71 -6v-36h-205v36l71 6v603z"/>
<glyph glyph-name="J" horiz-adv-x="262" unicode="J" d="M25 -135l-21 43q57 31 76.5 60.5t19.5 103.5v615h64v-601q0 -100 -28 -142.5t-111 -78.5z"/>
<glyph glyph-name="K" horiz-adv-x="530" unicode="K" d="M98 0v687h63v-687h-63zM422 0l-242 370l237 317h70l-236 -314l243 -373h-72z"/>
<glyph glyph-name="L" horiz-adv-x="466" unicode="L" d="M98 0v687h63v-633h255v-54h-318z"/>
<glyph glyph-name="M" horiz-adv-x="717" unicode="M" d="M98 0v687h95l133 -384q27 -80 32 -126h2q9 69 30 126l135 384h94v-687h-63v464q0 48 4 176h-1q-19 -82 -49 -164l-123 -343h-61l-122 337q-13 37 -21.5 66t-16 59.5t-11.5 44.5h-1q0 -5 2 -69t2 -107v-464h-60z"/>
<glyph glyph-name="N" horiz-adv-x="607" unicode="N" d="M98 0v687h71l226 -463q39 -80 61 -148h2q-8 74 -8 167v444h59v-687h-70l-218 443q-40 80 -69 167h-2q7 -64 7 -186v-424h-59z"/>
<glyph glyph-name="O" horiz-adv-x="623" unicode="O" d="M312 41q94 0 135 72.5t41 225.5q0 155 -42 230.5t-134 75.5t-134.5 -74.5t-42.5 -227.5q0 -155 41.5 -228.5t135.5 -73.5zM313 -10q-245 0 -245 350q0 172 62 264t181 92q120 0 182 -90.5t62 -261.5q0 -177 -59 -265.5t-183 -88.5z"/>
<glyph glyph-name="P" horiz-adv-x="530" unicode="P" d="M161 336h113q69 0 101.5 35.5t32.5 114.5t-33 113t-109 34h-105v-297zM98 0v687h172q102 0 153.5 -51t51.5 -147q0 -101 -49.5 -153.5t-144.5 -52.5h-120v-283h-63z"/>
<glyph glyph-name="Q" horiz-adv-x="625" unicode="Q" d="M312 41q94 0 135 72.5t41 225.5q0 155 -42 230.5t-134 75.5t-134.5 -74.5t-42.5 -227.5q0 -155 41.5 -228.5t135.5 -73.5zM365 2l203 -59l-20 -58l-310 112q-83 30 -126.5 109.5t-43.5 233.5q0 172 62 264t181 92q120 0 182 -90.5t62 -261.5q0 -159 -45.5 -242.5 t-144.5 -99.5z"/>
<glyph glyph-name="R" horiz-adv-x="560" unicode="R" d="M161 356h111q75 0 106 35t31 109q0 68 -33 100.5t-108 32.5h-107v-277zM98 0v687h175q92 0 146.5 -46t54.5 -140q0 -152 -128 -183q53 -21 85 -106l79 -212h-68l-76 203q-23 60 -49.5 80.5t-75.5 20.5h-80v-304h-63z"/>
<glyph glyph-name="S" horiz-adv-x="513" unicode="S" d="M242 -10q-123 0 -205 80l32 45q76 -71 169 -71q142 0 142 131q0 65 -31.5 95.5t-109.5 62.5q-43 18 -69.5 33t-50 37.5t-34 53t-10.5 71.5q0 80 49 124t132 44q95 0 160 -46l-27 -49q-59 42 -130 42q-55 0 -88.5 -28.5t-33.5 -84.5q0 -57 26.5 -83t98.5 -56 q48 -20 76.5 -35.5t55.5 -40t39 -58.5t12 -80q0 -83 -49.5 -135t-153.5 -52z"/>
<glyph glyph-name="T" horiz-adv-x="496" unicode="T" d="M216 0v633h-169v54h401v-54h-169v-633h-63z"/>
<glyph glyph-name="U" horiz-adv-x="608" unicode="U" d="M446 116v571h64v-687h-45l-15 67q-79 -77 -176 -77q-82 0 -131 49t-49 155v493h63v-482q0 -86 28 -123t93 -37q92 0 168 71z"/>
<glyph glyph-name="V" horiz-adv-x="544" unicode="V" d="M238 0l-206 687h68l138 -470q22 -76 33 -140h2q14 69 35 140l140 470h64l-209 -687h-65z"/>
<glyph glyph-name="W" horiz-adv-x="795" unicode="W" d="M186 0l-150 687h67l94 -450q21 -104 31 -178h1q25 150 31 174l106 454h73l102 -455q18 -84 29 -173h1q13 88 32 181l93 447h63l-149 -687h-81l-100 445q-20 92 -28 165h-2q-10 -81 -28 -163l-104 -447h-81z"/>
<glyph glyph-name="X" horiz-adv-x="533" unicode="X" d="M230 374l-168 313h70l135 -261l138 261h67l-168 -307l203 -380h-70l-170 327l-173 -327h-68z"/>
<glyph glyph-name="Y" horiz-adv-x="530" unicode="Y" d="M234 0v271l-198 416h72l123 -268q24 -54 37 -95q23 68 36 95l123 268h67l-196 -418v-269h-64z"/>
<glyph glyph-name="Z" horiz-adv-x="478" unicode="Z" d="M45 0v49l313 584h-296v54h367v-52l-312 -581h311v-54h-383z"/>
<glyph glyph-name="bracketleft" horiz-adv-x="306" unicode="[" d="M92 -154v888h166v-49h-105v-791h105v-48h-166z"/>
<glyph glyph-name="backslash" horiz-adv-x="356" unicode="\" d="M273 -146l-247 905h57l246 -905h-56z"/>
<glyph glyph-name="bracketright" horiz-adv-x="305" unicode="]" d="M47 -154v48h106v791h-106v49h166v-888h-166z"/>
<glyph glyph-name="asciicircum" horiz-adv-x="465" unicode="^" d="M63 450l143 258h54l143 -258h-60l-110 199l-109 -199h-61z"/>
<glyph glyph-name="underscore" horiz-adv-x="302" unicode="_" d="M3 -127v52h296v-52h-296z"/>
<glyph glyph-name="grave" horiz-adv-x="492" unicode="`" d="M307 541l-177 98l33 55l166 -118z"/>
<glyph glyph-name="a" horiz-adv-x="473" unicode="a" d="M327 106v136h-55q-88 0 -120 -24.5t-32 -84.5q0 -49 20.5 -71t63.5 -22q70 0 123 66zM327 288v54q0 48 -16.5 71t-62.5 23q-68 0 -143 -48l-24 44q85 56 172 56q134 0 134 -138v-350h-42l-15 58q-57 -68 -133 -68q-66 0 -103 37.5t-37 106.5q0 79 50 116.5t159 37.5h61z "/>
<glyph glyph-name="b" horiz-adv-x="512" unicode="b" d="M273 42q59 0 86.5 42.5t27.5 149.5q0 115 -25.5 158.5t-82.5 43.5q-37 0 -66.5 -17.5t-63.5 -48.5v-269q59 -59 124 -59zM284 -10q-80 0 -139 67l-14 -57h-42v715h60v-297q66 70 139 70q162 0 162 -249t-166 -249z"/>
<glyph glyph-name="c" horiz-adv-x="429" unicode="c" d="M245 -10q-87 0 -137 60t-50 188q0 130 50 190t137 60q78 0 134 -56l-36 -41q-43 46 -100 46q-62 0 -92 -43.5t-30 -153.5q0 -111 30.5 -155t96.5 -44q55 0 101 48l39 -37q-55 -62 -143 -62z"/>
<glyph glyph-name="d" horiz-adv-x="512" unicode="d" d="M233 42q60 0 130 64v268q-60 62 -125 62q-59 0 -86.5 -42.5t-27.5 -149.5q0 -115 26 -158.5t83 -43.5zM224 -10q-162 0 -162 249t165 249q72 0 136 -66v293h59v-715h-42l-14 61q-66 -71 -142 -71z"/>
<glyph glyph-name="e" horiz-adv-x="470" unicode="e" d="M122 277h228q0 89 -26.5 125.5t-83.5 36.5q-54 0 -83.5 -36.5t-34.5 -125.5zM121 230q1 -106 31.5 -147.5t99.5 -41.5q63 0 119 43l33 -42q-65 -52 -152 -52q-194 0 -194 248q0 130 49 190t134 60q171 0 171 -233v-25h-291z"/>
<glyph glyph-name="f" horiz-adv-x="293" unicode="f" d="M96 429h-57v49h57v118q0 64 31.5 95t81.5 31q55 0 94 -25l-23 -44q-34 18 -65 18q-59 0 -59 -76v-117h97v-49h-97v-429h-60v429z"/>
<glyph glyph-name="g" horiz-adv-x="465" unicode="g" d="M228 227q103 0 103 109q0 57 -25.5 80.5t-76.5 23.5q-103 0 -103 -108q0 -105 102 -105zM155 31q-52 -40 -52 -99q0 -44 28 -67t97 -23q137 0 137 108q0 81 -93 81h-117zM295 478h139v-37l-71 -12q29 -40 29 -95q0 -73 -44 -112.5t-118 -39.5q-37 0 -66 10 q-36 -36 -36 -73q0 -32 41 -32h96q77 0 119 -34.5t42 -101.5q0 -74 -51 -115.5t-146 -41.5q-93 0 -139.5 36.5t-46.5 97.5q0 66 69 114q-40 19 -40 65q0 53 56 101q-63 40 -63 126q0 73 45 113.5t120 40.5q33 0 65 -10z"/>
<glyph glyph-name="h" horiz-adv-x="504" unicode="h" d="M89 0v715h60v-302q80 75 152 75q53 0 85.5 -31.5t32.5 -91.5v-365h-60v349q0 47 -17 66.5t-55 19.5q-60 0 -138 -69v-366h-60z"/>
<glyph glyph-name="i" horiz-adv-x="271" unicode="i" d="M142 588q-19 0 -32 13t-13 33t13 33.5t32 13.5q20 0 33 -13.5t13 -33.5t-13 -33t-33 -13zM118 0v431l-68 9v38h128v-478h-60z"/>
<glyph glyph-name="j" horiz-adv-x="271" unicode="j" d="M142 588q-19 0 -32 13t-13 33t13 33.5t32 13.5q20 0 33 -13.5t13 -33.5t-13 -33t-33 -13zM68 -208l-24 41q44 26 59 53t15 87v458l-68 9v38h128v-506q0 -82 -24 -116.5t-86 -63.5z"/>
<glyph glyph-name="k" horiz-adv-x="453" unicode="k" d="M362 0l-194 270l171 208h69l-172 -207l197 -271h-71zM89 0v715h60v-715h-60z"/>
<glyph glyph-name="l" horiz-adv-x="253" unicode="l" d="M168 -8q-78 0 -78 94v629h60v-635q0 -39 34 -39q12 0 21 3l10 -43q-23 -9 -47 -9z"/>
<glyph glyph-name="m" horiz-adv-x="745" unicode="m" d="M89 0v478h42l14 -66q80 76 147 76q79 0 106 -74q82 74 149 74q51 0 81.5 -31t30.5 -91v-366h-60v350q0 46 -15.5 65.5t-49.5 19.5q-58 0 -130 -63v-372h-60v350q0 46 -15.5 65.5t-49.5 19.5q-53 0 -130 -66v-369h-60z"/>
<glyph glyph-name="n" horiz-adv-x="504" unicode="n" d="M89 0v478h42l14 -69q81 79 156 79q53 0 85.5 -31.5t32.5 -91.5v-365h-60v349q0 47 -17 66.5t-55 19.5q-60 0 -138 -69v-366h-60z"/>
<glyph glyph-name="o" d="M249 38q65 0 96 45t31 154q0 110 -31.5 156.5t-96.5 46.5t-96 -45.5t-31 -154.5q0 -110 31.5 -156t96.5 -46zM249 -10q-88 0 -139.5 60.5t-51.5 187.5q0 128 50.5 189t138.5 61t140 -61t52 -188t-51 -188t-139 -61z" unicode="o"/>
<glyph glyph-name="p" horiz-adv-x="512" unicode="p" d="M273 42q59 0 86.5 42.5t27.5 149.5q0 115 -25.5 158.5t-82.5 43.5q-37 0 -66.5 -17.5t-63.5 -48.5v-269q59 -59 124 -59zM89 -204v682h42l14 -64q67 74 143 74q162 0 162 -249t-166 -249q-74 0 -135 63v-257h-60z"/>
<glyph glyph-name="q" horiz-adv-x="512" unicode="q" d="M233 42q60 0 130 64v268q-60 62 -125 62q-59 0 -86.5 -42.5t-27.5 -149.5q0 -115 26 -158.5t83 -43.5zM363 -204v262q-64 -68 -139 -68q-162 0 -162 249t165 249q76 0 139 -69l14 59h42v-682h-59z"/>
<glyph glyph-name="r" horiz-adv-x="336" unicode="r" d="M89 0v478h42l14 -81q72 88 145 88q13 0 15 -2l-6 -64q-6 3 -21 3q-63 0 -129 -71v-351h-60z"/>
<glyph glyph-name="s" horiz-adv-x="409" unicode="s" d="M193 -10q-89 0 -154 52l26 43q62 -45 129 -45q100 0 100 84q0 42 -22 61.5t-86 39.5q-60 19 -92 50t-32 91q0 53 36.5 87.5t104.5 34.5q73 0 130 -33l-22 -47q-53 29 -107 29q-85 0 -85 -70q0 -37 18.5 -53.5t72.5 -34.5q36 -12 57 -21.5t43 -26.5t32 -42.5t10 -61.5 q0 -137 -159 -137z"/>
<glyph glyph-name="t" horiz-adv-x="311" unicode="t" d="M99 429h-58v49h58v126l59 14v-140h100v-49h-100v-346q0 -44 40 -44q26 0 56 14l15 -44q-38 -19 -74 -19q-43 0 -69.5 22t-26.5 68v349z"/>
<glyph glyph-name="u" horiz-adv-x="506" unicode="u" d="M206 -10q-54 0 -87.5 32.5t-33.5 93.5v362h59v-346q0 -47 18.5 -68t55.5 -21q60 0 138 64v371h60v-478h-43l-14 64q-77 -74 -153 -74z"/>
<glyph glyph-name="v" horiz-adv-x="452" unicode="v" d="M194 0l-157 478h64l95 -302q18 -57 31 -124h1q8 50 31 125l94 301h62l-160 -478h-61z"/>
<glyph glyph-name="w" horiz-adv-x="675" unicode="w" d="M166 0l-125 478h63l74 -299q11 -46 22 -114h1l8 43q8 43 15 67l83 303h66l80 -299q7 -26 15.5 -69t8.5 -45h1q11 64 23 112l74 301h60l-126 -478h-64l-85 315q-7 27 -21 106h-1q-11 -66 -22 -106l-87 -315h-63z"/>
<glyph glyph-name="x" horiz-adv-x="441" unicode="x" d="M34 0l154 260l-132 218h68l56 -96q25 -43 42 -80h2q26 57 39 80l55 96h66l-132 -217l155 -261h-68l-72 127q-34 59 -47 89h-2q-17 -39 -46 -88l-73 -128h-65z"/>
<glyph glyph-name="y" horiz-adv-x="453" unicode="y" d="M78 -208l-15 47q64 20 94 52.5t52 108.5h-21l-151 478h64l93 -306q17 -59 32 -130h1q9 44 35 130l92 306h62l-158 -499q-30 -95 -66.5 -130.5t-113.5 -56.5z"/>
<glyph glyph-name="z" horiz-adv-x="421" unicode="z" d="M53 0v55l249 374h-228v49h290v-55l-248 -374h256v-49h-319z"/>
<glyph glyph-name="braceleft" horiz-adv-x="369" unicode="{" d="M250 -154q-52 0 -82 27t-30 83v225q0 47 -21 65.5t-72 18.5v53q50 0 71.5 18.5t21.5 65.5v221q0 56 30.5 83.5t81.5 27.5h71v-49h-66q-31 0 -43.5 -16t-12.5 -52v-218q0 -54 -18 -76t-52 -30v-2q34 -8 52 -31t18 -76v-222q0 -36 12.5 -52t43.5 -16h66v-48h-71z"/>
<glyph glyph-name="bar" horiz-adv-x="237" unicode="|" d="M94 -146v905h49v-905h-49z"/>
<glyph glyph-name="braceright" horiz-adv-x="369" unicode="}" d="M47 -154v48h67q31 0 43.5 16.5t12.5 51.5v222q0 53 18 76t52 31v2q-34 8 -52 30t-18 76v218q0 35 -12.5 51.5t-43.5 16.5h-67v49h71q52 0 82.5 -27.5t30.5 -83.5v-221q0 -47 21 -65.5t72 -18.5v-53q-51 0 -72 -18.5t-21 -65.5v-225q0 -56 -30.5 -83t-82.5 -27h-71z"/>
<glyph glyph-name="asciitilde" horiz-adv-x="486" unicode="~" d="M108 270l-39 22q44 90 106 90q31 0 75 -26t64 -26q14 0 26.5 9t18.5 18t19 30l39 -22q-22 -47 -47 -68.5t-59 -21.5q-31 0 -75 25.5t-64 25.5q-11 0 -19.5 -3.5t-17.5 -14t-12.5 -16t-14.5 -22.5z"/>
<glyph glyph-name="uni00A0" horiz-adv-x="230" unicode=" "/>
<glyph glyph-name="exclamdown" horiz-adv-x="252" unicode="¡" d="M126 381q-22 0 -37 15t-15 38q0 22 15 37t37 15q21 0 36 -15t15 -37t-15 -37.5t-36 -15.5zM91 -198l12 491h47l12 -491h-71z"/>
<glyph glyph-name="cent" horiz-adv-x="435" unicode="¢" d="M121 240q0 -99 24 -145t76 -54v395q-51 -7 -75.5 -52t-24.5 -144zM220 -115v107q-162 19 -162 246q0 229 162 248v114h47v-113q66 -4 119 -55l-34 -39q-39 40 -86 44v-398q51 5 92 50l38 -36q-50 -57 -129 -62v-106h-47z"/>
<glyph glyph-name="sterling" horiz-adv-x="507" unicode="£" d="M209 292q16 -53 16 -97q0 -94 -74 -142h304v-53h-380v56q48 25 70 57.5t22 80.5q0 42 -20 98h-89v53h70q-24 68 -24 123q0 86 51 131.5t130 45.5q90 0 173 -59l-25 -43q-39 26 -70 38t-75 12q-58 0 -89 -31t-31 -92q0 -48 25 -125h191v-53h-175z"/>
<glyph glyph-name="currency" horiz-adv-x="515" unicode="¤" d="M258 148q58 0 86.5 37.5t28.5 121.5q0 163 -116 163q-58 0 -86.5 -38t-28.5 -122q0 -85 29 -123.5t87 -38.5zM73 60l-39 37l75 85q-29 50 -29 126t28 126l-75 86l39 36l69 -79q46 43 115 43q68 0 116 -43l69 79l39 -37l-74 -85q29 -49 29 -125q0 -77 -29 -127l76 -86 l-39 -35l-71 79q-47 -42 -114 -42q-68 0 -115 42z"/>
<glyph glyph-name="yen" horiz-adv-x="568" unicode="¥" d="M221 313h-155v48h131l-136 274h71l115 -243q21 -45 39 -98q16 54 36 97l117 244h68l-136 -274h132v-48h-156l-31 -62v-38h187v-47h-187v-166h-64v166h-186v47h186v38z"/>
<glyph glyph-name="brokenbar" horiz-adv-x="237" unicode="¦" d="M94 -146v396h49v-396h-49zM94 361v398h49v-398h-49z"/>
<glyph glyph-name="section" horiz-adv-x="546" unicode="§" d="M315 128q104 19 104 109q0 50 -28.5 71t-107.5 45q-43 14 -56 20q-104 -16 -104 -108q0 -45 28.5 -68.5t100.5 -46.5q39 -12 63 -22zM174 401q-51 36 -51 112q0 58 40.5 95t117.5 37q78 0 145 -43l-24 -45q-60 38 -120 38q-100 0 -100 -80q0 -44 24 -64t100 -43 q90 -28 131.5 -62.5t41.5 -107.5q0 -106 -111 -138q60 -42 60 -116q0 -68 -42.5 -104.5t-120.5 -36.5q-104 0 -167 59l28 42q61 -52 140 -52q52 0 76.5 22t24.5 68q0 43 -30 66t-107 48q-85 27 -125 64t-40 106q0 104 109 135z"/>
<glyph glyph-name="dieresis" horiz-adv-x="543" unicode="¨" d="M186 552q-19 0 -32 13t-13 32t12.5 32t31.5 13t32 -13t13 -32t-12.5 -32t-31.5 -13zM357 552q-19 0 -32 13t-13 32t12.5 32t31.5 13t32 -13t13 -32t-12.5 -32t-31.5 -13z"/>
<glyph glyph-name="copyright" horiz-adv-x="723" unicode="©" d="M367 124q-165 0 -165 221q0 224 164 224q70 0 115 -49l-33 -35q-37 37 -84 37q-56 0 -78.5 -39t-22.5 -137q0 -97 23.5 -136.5t82.5 -39.5q43 0 83 40l34 -34q-47 -52 -119 -52zM362 27q119 0 185.5 86t66.5 235t-66.5 235t-185.5 86t-186 -86t-67 -235t67 -235t186 -86z M362 -11q-136 0 -217.5 97t-81.5 262q0 164 81.5 262t217.5 98q135 0 216.5 -98t81.5 -262t-81.5 -261.5t-216.5 -97.5z"/>
<glyph glyph-name="ordfeminine" horiz-adv-x="436" unicode="ª" d="M303 295v124h-48q-79 0 -108.5 -22.5t-29.5 -76.5q0 -84 76 -84q62 0 110 59zM303 462v48q0 42 -15.5 63t-56.5 21q-60 0 -130 -44l-22 43q76 51 157 51q124 0 124 -126v-320h-41l-13 53q-49 -62 -120 -62q-62 0 -96 34.5t-34 97.5q0 73 46 107t147 34h54z"/>
<glyph glyph-name="guillemotleft" horiz-adv-x="465" unicode="«" d="M189 41l-132 205l132 206l45 -30l-112 -176l112 -175zM359 41l-133 205l133 206l45 -30l-112 -176l111 -175z"/>
<glyph glyph-name="logicalnot" horiz-adv-x="461" unicode="¬" d="M322 157v140h-248v52h306v-192h-58z"/>
<glyph glyph-name="uni00AD" horiz-adv-x="292" unicode="­" d="M56 238v60h179v-60h-179z"/>
<glyph glyph-name="registered" horiz-adv-x="541" unicode="®" d="M234 475h36q24 0 34 11t10 36q0 43 -44 43h-36v-90zM189 321v282h81q91 0 91 -79q0 -60 -52 -75q23 -7 36 -47l27 -81h-49l-26 81q-12 38 -39 38h-24v-119h-45zM270 249q80 0 124 54.5t44 155.5q0 102 -44 156t-124 54q-81 0 -124.5 -54t-43.5 -156t43.5 -156t124.5 -54z M270 211q-95 0 -153 66t-58 182q0 115 58 181.5t153 66.5t153 -66.5t58 -181.5q0 -117 -58 -182.5t-153 -65.5z"/>
<glyph glyph-name="macron" horiz-adv-x="543" unicode="¯" d="M156 591v50h230v-50h-230z"/>
<glyph glyph-name="degree" horiz-adv-x="377" unicode="°" d="M189 413q88 0 88 117q0 121 -89 121q-90 0 -90 -117q0 -121 91 -121zM188 371q-64 0 -104 43t-40 117q0 75 40.5 119t102.5 44q64 0 104.5 -44t40.5 -118q0 -73 -41 -117t-103 -44z"/>
<glyph glyph-name="plusminus" horiz-adv-x="525" unicode="±" d="M73 30v52h377v-52h-377zM233 138v143h-160v51h160v159h57v-159h160v-51h-160v-143h-57z"/>
<glyph glyph-name="twosuperior" horiz-adv-x="354" unicode="²" d="M55 220v46q116 97 154 149.5t38 102.5q0 82 -78 82q-45 0 -95 -29l-19 39q58 35 118 35q58 0 93.5 -32.5t35.5 -92.5q0 -58 -39.5 -115t-145.5 -142h193v-43h-255z"/>
<glyph glyph-name="threesuperior" horiz-adv-x="362" unicode="³" d="M152 177q-67 0 -123 27l13 39q53 -22 105 -22q103 0 103 93q0 91 -100 91h-37v42h34q88 0 88 78q0 76 -81 76q-45 0 -95 -27l-17 38q58 33 120 33q59 0 93 -31.5t34 -81.5q0 -78 -71 -103q88 -22 88 -118q0 -62 -40 -98t-114 -36z"/>
<glyph glyph-name="acute" horiz-adv-x="493" unicode="´" d="M186 541l-23 35l166 118l33 -55z"/>
<glyph glyph-name="mu" horiz-adv-x="502" unicode="µ" d="M361 81h-2q-43 -91 -122 -91q-57 0 -88 31v-225h-60v682h60v-388q31 -51 96 -51q47 0 78.5 46t31.5 102v291h60v-397q0 -41 32 -41q9 0 23 3l10 -43q-26 -9 -53 -9q-66 0 -66 90z"/>
<glyph glyph-name="paragraph" horiz-adv-x="522" unicode="¶" d="M233 -87v454h-12q-75 0 -119 43t-44 117q0 76 41 118t118 42h212v-774h-57v723h-82v-723h-57z"/>
<glyph glyph-name="periodcentered" horiz-adv-x="242" unicode="·" d="M121 286q-22 0 -37 15t-15 37t15 37.5t37 15.5t37 -15.5t15 -37.5t-15 -37t-37 -15z"/>
<glyph glyph-name="cedilla" horiz-adv-x="543" unicode="¸" d="M274 -205q-41 0 -74 26l20 33q31 -17 54 -17q40 0 40 37q0 39 -40 39q-19 0 -39 -5l39 102h44l-27 -63q34 -1 52 -21t18 -54q0 -35 -22 -56t-65 -21z"/>
<glyph glyph-name="onesuperior" horiz-adv-x="317" unicode="¹" d="M58 220v41h85v316l-79 -43l-17 29l110 81h41v-383h80v-41h-220z"/>
<glyph glyph-name="ordmasculine" horiz-adv-x="452" unicode="º" d="M233 235q58 0 85.5 41t27.5 139q0 99 -28 140.5t-86 41.5q-59 0 -86 -40t-27 -140t28 -141t86 -41zM233 189q-81 0 -128 55t-47 172t46 172.5t127 55.5t128.5 -55t47.5 -172t-46.5 -172.5t-127.5 -55.5z"/>
<glyph glyph-name="guillemotright" horiz-adv-x="465" unicode="»" d="M105 41l-45 31l112 175l-111 175l44 30l133 -205zM275 41l-45 31l112 175l-112 175l45 30l133 -205z"/>
<glyph glyph-name="onequarter" horiz-adv-x="899" unicode="¼" d="M777 65h-221v48l136 305h56l-139 -309h168v182l55 10v-192h50v-44h-50v-102h-55v102zM239 0l381 635h57l-380 -635h-58zM58 220v41h85v316l-79 -43l-17 29l110 81h41v-383h80v-41h-220z"/>
<glyph glyph-name="onehalf" horiz-adv-x="954" unicode="½" d="M655 0v46q116 97 154 149.5t38 102.5q0 82 -78 82q-45 0 -95 -29l-19 39q58 35 118 35q58 0 93.5 -32.5t35.5 -92.5q0 -58 -39.5 -115t-145.5 -142h193v-43h-255zM239 0l381 635h57l-380 -635h-58zM58 220v41h85v316l-79 -43l-17 29l110 81h41v-383h80v-41h-220z"/>
<glyph glyph-name="threequarters" horiz-adv-x="944" unicode="¾" d="M822 65h-221v48l136 305h56l-139 -309h168v182l55 10v-192h50v-44h-50v-102h-55v102zM284 0l381 635h57l-380 -635h-58zM152 177q-67 0 -123 27l13 39q53 -22 105 -22q103 0 103 93q0 91 -100 91h-37v42h34q88 0 88 78q0 76 -81 76q-45 0 -95 -27l-17 38q58 33 120 33 q59 0 93 -31.5t34 -81.5q0 -78 -71 -103q88 -22 88 -118q0 -62 -40 -98t-114 -36z"/>
<glyph glyph-name="questiondown" horiz-adv-x="424" unicode="¿" d="M239 383q-21 0 -36 15t-15 37t15 36.5t36 14.5t36 -14.5t15 -36.5t-15 -37t-36 -15zM220 -206q-72 0 -113.5 36t-41.5 113q0 43 15 76t27.5 45.5t43.5 37.5q5 5 8 7q33 25 43.5 46t10.5 62v76h55v-81q0 -55 -17.5 -84t-55.5 -58q-24 -18 -35.5 -29.5t-22.5 -36.5t-11 -59 q0 -53 22 -75.5t75 -22.5q66 0 128 42l25 -44q-71 -51 -156 -51z"/>
<glyph glyph-name="Agrave" horiz-adv-x="555" unicode="À" d="M338 735l-177 98l33 55l166 -118zM375 275l-58 195q-27 91 -37 156h-2q-12 -66 -39 -156l-60 -195h196zM162 221l-68 -221h-64l215 687h69l210 -687h-68l-65 221h-229z"/>
<glyph glyph-name="Aacute" horiz-adv-x="555" unicode="Á" d="M217 735l-23 35l166 118l33 -55zM375 275l-58 195q-27 91 -37 156h-2q-12 -66 -39 -156l-60 -195h196zM162 221l-68 -221h-64l215 687h69l210 -687h-68l-65 221h-229z"/>
<glyph glyph-name="Acircumflex" horiz-adv-x="555" unicode="Â" d="M172 739l-25 30l112 117h39l113 -117l-25 -30l-108 87zM375 275l-58 195q-27 91 -37 156h-2q-12 -66 -39 -156l-60 -195h196zM162 221l-68 -221h-64l215 687h69l210 -687h-68l-65 221h-229z"/>
<glyph glyph-name="Atilde" horiz-adv-x="555" unicode="Ã" d="M174 750l-35 22q32 73 87 73q23 0 58 -18.5t52 -18.5q16 0 25.5 9t22.5 31l35 -22q-31 -72 -86 -72q-24 0 -59 18t-52 18q-16 0 -25.5 -9t-22.5 -31zM375 275l-58 195q-27 91 -37 156h-2q-12 -66 -39 -156l-60 -195h196zM162 221l-68 -221h-64l215 687h69l210 -687h-68 l-65 221h-229z"/>
<glyph glyph-name="Adieresis" horiz-adv-x="555" unicode="Ä" d="M364 746q-19 0 -32 13t-13 32t12.5 32t31.5 13t32 -13t13 -32t-12.5 -32t-31.5 -13zM193 746q-19 0 -32 13t-13 32t12.5 32t31.5 13t32 -13t13 -32t-12.5 -32t-31.5 -13zM375 275l-58 195q-27 91 -37 156h-2q-12 -66 -39 -156l-60 -195h196zM162 221l-68 -221h-64 l215 687h69l210 -687h-68l-65 221h-229z"/>
<glyph glyph-name="Aring" horiz-adv-x="555" unicode="Å" d="M278 769q45 0 45 56t-45 56q-44 0 -44 -56t44 -56zM278 732q-39 0 -63 27.5t-24 65.5t24 65.5t63 27.5q40 0 64 -27.5t24 -65.5t-24 -65.5t-64 -27.5zM375 275l-58 195q-27 91 -37 156h-2q-12 -66 -39 -156l-60 -195h196zM162 221l-68 -221h-64l215 687h69l210 -687h-68 l-65 221h-229z"/>
<glyph glyph-name="AE" horiz-adv-x="843" unicode="Æ" d="M436 267v213q0 50 3 161h-2q-17 -44 -74 -149l-122 -225h195zM212 213l-116 -213h-67l378 687h369v-54h-276v-245h224v-54h-224v-280h288v-54h-352v213h-224z"/>
<glyph glyph-name="Ccedilla" horiz-adv-x="540" unicode="Ç" d="M266 -5q-103 18 -150.5 104.5t-47.5 240.5q0 356 252 356q96 0 162 -53l-31 -45q-58 45 -131 45q-102 0 -143 -72t-41 -228q0 -158 41 -228.5t148 -70.5q71 0 138 52l31 -46q-74 -60 -170 -60h-16l-19 -43q34 -1 52 -21t18 -54q0 -35 -22 -56t-65 -21q-41 0 -74 26l20 33 q31 -17 54 -17q40 0 40 37q0 39 -40 39q-19 0 -39 -5z"/>
<glyph glyph-name="Egrave" horiz-adv-x="504" unicode="È" d="M331 735l-177 98l33 55l166 -118zM98 0v687h340v-54h-277v-245h225v-54h-225v-280h289v-54h-352z"/>
<glyph glyph-name="Eacute" horiz-adv-x="504" unicode="É" d="M206 735l-23 35l166 118l33 -55zM98 0v687h340v-54h-277v-245h225v-54h-225v-280h289v-54h-352z"/>
<glyph glyph-name="Ecircumflex" horiz-adv-x="504" unicode="Ê" d="M160 739l-25 30l112 117h39l113 -117l-25 -30l-108 87zM98 0v687h340v-54h-277v-245h225v-54h-225v-280h289v-54h-352z"/>
<glyph glyph-name="Edieresis" horiz-adv-x="504" unicode="Ë" d="M350 746q-19 0 -32 13t-13 32t12.5 32t31.5 13t32 -13t13 -32t-12.5 -32t-31.5 -13zM179 746q-19 0 -32 13t-13 32t12.5 32t31.5 13t32 -13t13 -32t-12.5 -32t-31.5 -13zM98 0v687h340v-54h-277v-245h225v-54h-225v-280h289v-54h-352z"/>
<glyph glyph-name="Igrave" horiz-adv-x="329" unicode="Ì" d="M227 735l-177 98l33 55l166 -118zM133 645l-71 6v36h205v-36l-71 -6v-603l71 -6v-36h-205v36l71 6v603z"/>
<glyph glyph-name="Iacute" horiz-adv-x="329" unicode="Í" d="M107 735l-23 35l166 118l33 -55zM133 645l-71 6v36h205v-36l-71 -6v-603l71 -6v-36h-205v36l71 6v603z"/>
<glyph glyph-name="Icircumflex" horiz-adv-x="329" unicode="Î" d="M57 740l-25 30l112 117h39l113 -117l-25 -30l-108 87zM133 645l-71 6v36h205v-36l-71 -6v-603l71 -6v-36h-205v36l71 6v603z"/>
<glyph glyph-name="Idieresis" horiz-adv-x="329" unicode="Ï" d="M251 746q-19 0 -32 13t-13 32t12.5 32t31.5 13t32 -13t13 -32t-12.5 -32t-31.5 -13zM80 746q-19 0 -32 13t-13 32t12.5 32t31.5 13t32 -13t13 -32t-12.5 -32t-31.5 -13zM133 645l-71 6v36h205v-36l-71 -6v-603l71 -6v-36h-205v36l71 6v603z"/>
<glyph glyph-name="Eth" horiz-adv-x="588" unicode="Ð" d="M156 368h150v-54h-150v-260h99q114 0 156 63t42 220q0 165 -41 231t-157 66h-99v-266zM93 314h-72v54h72v319h156q147 0 209 -80.5t62 -272.5q0 -184 -62 -259t-206 -75h-159v314z"/>
<glyph glyph-name="Ntilde" horiz-adv-x="607" unicode="Ñ" d="M204 750l-35 22q32 73 87 73q23 0 58 -18.5t52 -18.5q16 0 25.5 9t22.5 31l35 -22q-31 -72 -86 -72q-24 0 -59 18t-52 18q-16 0 -25.5 -9t-22.5 -31zM98 0v687h71l226 -463q39 -80 61 -148h2q-8 74 -8 167v444h59v-687h-70l-218 443q-40 80 -69 167h-2q7 -64 7 -186v-424 h-59z"/>
<glyph glyph-name="Ograve" horiz-adv-x="623" unicode="Ò" d="M372 735l-177 98l33 55l166 -118zM312 41q94 0 135 72.5t41 225.5q0 155 -42 230.5t-134 75.5t-134.5 -74.5t-42.5 -227.5q0 -155 41.5 -228.5t135.5 -73.5zM313 -10q-245 0 -245 350q0 172 62 264t181 92q120 0 182 -90.5t62 -261.5q0 -177 -59 -265.5t-183 -88.5z"/>
<glyph glyph-name="Oacute" horiz-adv-x="623" unicode="Ó" d="M251 735l-23 35l166 118l33 -55zM312 41q94 0 135 72.5t41 225.5q0 155 -42 230.5t-134 75.5t-134.5 -74.5t-42.5 -227.5q0 -155 41.5 -228.5t135.5 -73.5zM313 -10q-245 0 -245 350q0 172 62 264t181 92q120 0 182 -90.5t62 -261.5q0 -177 -59 -265.5t-183 -88.5z"/>
<glyph glyph-name="Ocircumflex" horiz-adv-x="623" unicode="Ô" d="M205 739l-25 30l112 117h39l113 -117l-25 -30l-108 87zM312 41q94 0 135 72.5t41 225.5q0 155 -42 230.5t-134 75.5t-134.5 -74.5t-42.5 -227.5q0 -155 41.5 -228.5t135.5 -73.5zM313 -10q-245 0 -245 350q0 172 62 264t181 92q120 0 182 -90.5t62 -261.5 q0 -177 -59 -265.5t-183 -88.5z"/>
<glyph glyph-name="Otilde" horiz-adv-x="623" unicode="Õ" d="M207 750l-35 22q32 73 87 73q23 0 58 -18.5t52 -18.5q16 0 25.5 9t22.5 31l35 -22q-31 -72 -86 -72q-24 0 -59 18t-52 18q-16 0 -25.5 -9t-22.5 -31zM312 41q94 0 135 72.5t41 225.5q0 155 -42 230.5t-134 75.5t-134.5 -74.5t-42.5 -227.5q0 -155 41.5 -228.5 t135.5 -73.5zM313 -10q-245 0 -245 350q0 172 62 264t181 92q120 0 182 -90.5t62 -261.5q0 -177 -59 -265.5t-183 -88.5z"/>
<glyph glyph-name="Odieresis" horiz-adv-x="623" unicode="Ö" d="M397 746q-19 0 -32 13t-13 32t12.5 32t31.5 13t32 -13t13 -32t-12.5 -32t-31.5 -13zM226 746q-19 0 -32 13t-13 32t12.5 32t31.5 13t32 -13t13 -32t-12.5 -32t-31.5 -13zM312 41q94 0 135 72.5t41 225.5q0 155 -42 230.5t-134 75.5t-134.5 -74.5t-42.5 -227.5 q0 -155 41.5 -228.5t135.5 -73.5zM313 -10q-245 0 -245 350q0 172 62 264t181 92q120 0 182 -90.5t62 -261.5q0 -177 -59 -265.5t-183 -88.5z"/>
<glyph glyph-name="multiply" horiz-adv-x="485" unicode="×" d="M119 109l-37 37l125 138l-126 139l37 35l124 -135l123 135l38 -36l-126 -138l127 -139l-37 -35l-125 136z"/>
<glyph glyph-name="Oslash" horiz-adv-x="623" unicode="Ø" d="M460 539l-265 -453q41 -45 116 -45q94 0 135 72.5t41 225.5q0 127 -27 200zM164 135l267 457q-42 53 -120 53q-92 0 -134.5 -74.5t-42.5 -227.5q0 -138 30 -208zM560 711l-65 -111q59 -91 59 -256q0 -177 -59 -265.5t-183 -88.5q-91 0 -146 46l-59 -101l-44 26l66 114 q-62 87 -62 265q0 172 62 264t181 92q92 0 150 -54l56 96z"/>
<glyph glyph-name="Ugrave" horiz-adv-x="608" unicode="Ù" d="M355 735l-177 98l33 55l166 -118zM446 116v571h64v-687h-45l-15 67q-79 -77 -176 -77q-82 0 -131 49t-49 155v493h63v-482q0 -86 28 -123t93 -37q92 0 168 71z"/>
<glyph glyph-name="Uacute" horiz-adv-x="608" unicode="Ú" d="M254 735l-23 35l166 118l33 -55zM446 116v571h64v-687h-45l-15 67q-79 -77 -176 -77q-82 0 -131 49t-49 155v493h63v-482q0 -86 28 -123t93 -37q92 0 168 71z"/>
<glyph glyph-name="Ucircumflex" horiz-adv-x="608" unicode="Û" d="M197 739l-25 30l112 117h39l113 -117l-25 -30l-108 87zM446 116v571h64v-687h-45l-15 67q-79 -77 -176 -77q-82 0 -131 49t-49 155v493h63v-482q0 -86 28 -123t93 -37q92 0 168 71z"/>
<glyph glyph-name="Udieresis" horiz-adv-x="608" unicode="Ü" d="M389 746q-19 0 -32 13t-13 32t12.5 32t31.5 13t32 -13t13 -32t-12.5 -32t-31.5 -13zM218 746q-19 0 -32 13t-13 32t12.5 32t31.5 13t32 -13t13 -32t-12.5 -32t-31.5 -13zM446 116v571h64v-687h-45l-15 67q-79 -77 -176 -77q-82 0 -131 49t-49 155v493h63v-482 q0 -86 28 -123t93 -37q92 0 168 71z"/>
<glyph glyph-name="Yacute" horiz-adv-x="530" unicode="Ý" d="M238 735l-23 35l166 118l33 -55zM234 0v271l-198 416h72l123 -268q24 -54 37 -95q23 68 36 95l123 268h67l-196 -418v-269h-64z"/>
<glyph glyph-name="Thorn" horiz-adv-x="532" unicode="Þ" d="M161 223h112q69 0 102 35.5t33 114.5t-33 113t-110 34h-104v-297zM98 0v687h63v-114h109q205 0 205 -197q0 -100 -49.5 -153t-144.5 -53h-120v-170h-63z"/>
<glyph glyph-name="germandbls" horiz-adv-x="528" unicode="ß" d="M310 -7q-47 0 -95 17l12 45q36 -14 80 -14q51 0 79.5 29t28.5 86q0 34 -14.5 61.5t-30 40.5t-43.5 33q-30 21 -42.5 31t-26 30.5t-13.5 43.5q0 24 16.5 46.5t35.5 38.5t35.5 42t16.5 57q0 86 -91 86q-109 0 -109 -157v-509h-59v515q0 95 45 146.5t123 51.5 q72 0 111.5 -36.5t39.5 -97.5q0 -36 -16.5 -66.5t-37 -47.5t-37 -35t-16.5 -31q0 -15 12 -27t56 -44q34 -25 52.5 -41t37.5 -52t19 -79q0 -79 -47 -121t-122 -42z"/>
<glyph glyph-name="agrave" horiz-adv-x="473" unicode="à" d="M304 541l-177 98l33 55l166 -118zM327 106v136h-55q-88 0 -120 -24.5t-32 -84.5q0 -49 20.5 -71t63.5 -22q70 0 123 66zM327 288v54q0 48 -16.5 71t-62.5 23q-68 0 -143 -48l-24 44q85 56 172 56q134 0 134 -138v-350h-42l-15 58q-57 -68 -133 -68q-66 0 -103 37.5 t-37 106.5q0 79 50 116.5t159 37.5h61z"/>
<glyph glyph-name="aacute" horiz-adv-x="473" unicode="á" d="M172 541l-23 35l166 118l33 -55zM327 106v136h-55q-88 0 -120 -24.5t-32 -84.5q0 -49 20.5 -71t63.5 -22q70 0 123 66zM327 288v54q0 48 -16.5 71t-62.5 23q-68 0 -143 -48l-24 44q85 56 172 56q134 0 134 -138v-350h-42l-15 58q-57 -68 -133 -68q-66 0 -103 37.5 t-37 106.5q0 79 50 116.5t159 37.5h61z"/>
<glyph glyph-name="acircumflex" horiz-adv-x="473" unicode="â" d="M136 545l-25 30l112 117h39l113 -117l-25 -30l-108 87zM327 106v136h-55q-88 0 -120 -24.5t-32 -84.5q0 -49 20.5 -71t63.5 -22q70 0 123 66zM327 288v54q0 48 -16.5 71t-62.5 23q-68 0 -143 -48l-24 44q85 56 172 56q134 0 134 -138v-350h-42l-15 58q-57 -68 -133 -68 q-66 0 -103 37.5t-37 106.5q0 79 50 116.5t159 37.5h61z"/>
<glyph glyph-name="atilde" horiz-adv-x="473" unicode="ã" d="M129 556l-35 22q32 73 87 73q23 0 58 -18.5t52 -18.5q16 0 25.5 9t22.5 31l35 -22q-32 -72 -86 -72q-24 0 -59 18t-52 18q-16 0 -25.5 -9t-22.5 -31zM327 106v136h-55q-88 0 -120 -24.5t-32 -84.5q0 -49 20.5 -71t63.5 -22q70 0 123 66zM327 288v54q0 48 -16.5 71 t-62.5 23q-68 0 -143 -48l-24 44q85 56 172 56q134 0 134 -138v-350h-42l-15 58q-57 -68 -133 -68q-66 0 -103 37.5t-37 106.5q0 79 50 116.5t159 37.5h61z"/>
<glyph glyph-name="adieresis" horiz-adv-x="473" unicode="ä" d="M326 552q-19 0 -32 13t-13 32t12.5 32t31.5 13t32 -13t13 -32t-12.5 -32t-31.5 -13zM155 552q-19 0 -32 13t-13 32t12.5 32t31.5 13t32 -13t13 -32t-12.5 -32t-31.5 -13zM327 106v136h-55q-88 0 -120 -24.5t-32 -84.5q0 -49 20.5 -71t63.5 -22q70 0 123 66zM327 288v54 q0 48 -16.5 71t-62.5 23q-68 0 -143 -48l-24 44q85 56 172 56q134 0 134 -138v-350h-42l-15 58q-57 -68 -133 -68q-66 0 -103 37.5t-37 106.5q0 79 50 116.5t159 37.5h61z"/>
<glyph glyph-name="aring" horiz-adv-x="473" unicode="å" d="M243 580q45 0 45 56t-45 56q-44 0 -44 -56t44 -56zM243 543q-39 0 -63 27.5t-24 65.5t24 65.5t63 27.5q40 0 64 -27.5t24 -65.5t-24 -65.5t-64 -27.5zM327 106v136h-55q-88 0 -120 -24.5t-32 -84.5q0 -49 20.5 -71t63.5 -22q70 0 123 66zM327 288v54q0 48 -16.5 71 t-62.5 23q-68 0 -143 -48l-24 44q85 56 172 56q134 0 134 -138v-350h-42l-15 58q-57 -68 -133 -68q-66 0 -103 37.5t-37 106.5q0 79 50 116.5t159 37.5h61z"/>
<glyph glyph-name="ae" horiz-adv-x="735" unicode="æ" d="M387 283h228q0 87 -26 121.5t-84 34.5q-53 0 -82.5 -35t-35.5 -121zM337 119q-9 50 -10 117h-55q-88 0 -120 -23.5t-32 -81.5q0 -48 20.5 -69.5t63.5 -21.5q76 0 133 79zM327 283v59q0 48 -17 71t-62 23q-68 0 -143 -48l-24 44q85 56 172 56q94 0 117 -77q44 77 136 77 q171 0 171 -233v-19h-291q1 -110 31 -153.5t100 -43.5q67 0 120 43l32 -40q-65 -52 -152 -52q-115 0 -159 93q-66 -93 -161 -93q-66 0 -103 37t-37 104q0 77 50 114.5t159 37.5h61z"/>
<glyph glyph-name="ccedilla" horiz-adv-x="429" unicode="ç" d="M205 -7q-147 27 -147 245q0 130 50 190t137 60q78 0 134 -56l-36 -41q-43 46 -100 46q-62 0 -92 -43.5t-30 -153.5q0 -111 30.5 -155t96.5 -44q55 0 101 48l39 -37q-54 -61 -140 -62l-19 -43q34 -1 52 -21t18 -54q0 -35 -22 -56t-65 -21q-41 0 -74 26l20 33 q31 -17 54 -17q40 0 40 37q0 39 -40 39q-19 0 -39 -5z"/>
<glyph glyph-name="egrave" horiz-adv-x="470" unicode="è" d="M309 541l-177 98l33 55l166 -118zM122 277h228q0 89 -26.5 125.5t-83.5 36.5q-54 0 -83.5 -36.5t-34.5 -125.5zM121 230q1 -106 31.5 -147.5t99.5 -41.5q63 0 119 43l33 -42q-65 -52 -152 -52q-194 0 -194 248q0 130 49 190t134 60q171 0 171 -233v-25h-291z"/>
<glyph glyph-name="eacute" horiz-adv-x="470" unicode="é" d="M175 541l-23 35l166 118l33 -55zM122 277h228q0 89 -26.5 125.5t-83.5 36.5q-54 0 -83.5 -36.5t-34.5 -125.5zM121 230q1 -106 31.5 -147.5t99.5 -41.5q63 0 119 43l33 -42q-65 -52 -152 -52q-194 0 -194 248q0 130 49 190t134 60q171 0 171 -233v-25h-291z"/>
<glyph glyph-name="ecircumflex" horiz-adv-x="470" unicode="ê" d="M134 545l-25 30l112 117h39l113 -117l-25 -30l-108 87zM122 277h228q0 89 -26.5 125.5t-83.5 36.5q-54 0 -83.5 -36.5t-34.5 -125.5zM121 230q1 -106 31.5 -147.5t99.5 -41.5q63 0 119 43l33 -42q-65 -52 -152 -52q-194 0 -194 248q0 130 49 190t134 60q171 0 171 -233 v-25h-291z"/>
<glyph glyph-name="edieresis" horiz-adv-x="470" unicode="ë" d="M327 552q-19 0 -32 13t-13 32t12.5 32t31.5 13t32 -13t13 -32t-12.5 -32t-31.5 -13zM156 552q-19 0 -32 13t-13 32t12.5 32t31.5 13t32 -13t13 -32t-12.5 -32t-31.5 -13zM122 277h228q0 89 -26.5 125.5t-83.5 36.5q-54 0 -83.5 -36.5t-34.5 -125.5zM121 230 q1 -106 31.5 -147.5t99.5 -41.5q63 0 119 43l33 -42q-65 -52 -152 -52q-194 0 -194 248q0 130 49 190t134 60q171 0 171 -233v-25h-291z"/>
<glyph glyph-name="igrave" horiz-adv-x="271" unicode="ì" d="M180 541l-177 98l33 55l166 -118zM118 0v431l-68 9v38h128v-478h-60z"/>
<glyph glyph-name="iacute" horiz-adv-x="271" unicode="í" d="M98 541l-23 35l166 118l33 -55zM118 0v431l-68 9v38h128v-478h-60z"/>
<glyph glyph-name="icircumflex" horiz-adv-x="271" unicode="î" d="M26 545l-25 30l112 117h39l113 -117l-25 -30l-108 87zM118 0v431l-68 9v38h128v-478h-60z"/>
<glyph glyph-name="idieresis" horiz-adv-x="271" unicode="ï" d="M220 552q-19 0 -32 13t-13 32t12.5 32t31.5 13t32 -13t13 -32t-12.5 -32t-31.5 -13zM49 552q-19 0 -32 13t-13 32t12.5 32t31.5 13t32 -13t13 -32t-12.5 -32t-31.5 -13zM118 0v431l-68 9v38h128v-478h-60z"/>
<glyph glyph-name="eth" horiz-adv-x="496" unicode="ð" d="M249 38q65 0 96 45.5t31 153.5q0 106 -32 152t-96 46q-67 0 -97 -43t-30 -152q0 -110 31.5 -156t96.5 -46zM266 594l-112 -61l-22 39l98 53q-35 28 -97 64l21 38q73 -37 123 -77l99 54l22 -39l-85 -46q125 -123 125 -356q0 -273 -189 -273q-88 0 -139.5 60.5t-51.5 188.5 q0 126 49 185t132 59q80 0 123 -61q-28 104 -96 172z"/>
<glyph glyph-name="ntilde" horiz-adv-x="504" unicode="ñ" d="M146 556l-35 22q32 73 87 73q23 0 58 -18.5t52 -18.5q16 0 25.5 9t22.5 31l35 -22q-31 -72 -86 -72q-24 0 -59 18t-52 18q-16 0 -25.5 -9t-22.5 -31zM89 0v478h42l14 -69q81 79 156 79q53 0 85.5 -31.5t32.5 -91.5v-365h-60v349q0 47 -17 66.5t-55 19.5q-60 0 -138 -69 v-366h-60z"/>
<glyph glyph-name="ograve" d="M303 541l-177 98l33 55l166 -118zM249 38q65 0 96 45t31 154q0 110 -31.5 156.5t-96.5 46.5t-96 -45.5t-31 -154.5q0 -110 31.5 -156t96.5 -46zM249 -10q-88 0 -139.5 60.5t-51.5 187.5q0 128 50.5 189t138.5 61t140 -61t52 -188t-51 -188t-139 -61z" unicode="ò"/>
<glyph glyph-name="oacute" d="M193 541l-23 35l166 118l33 -55zM249 38q65 0 96 45t31 154q0 110 -31.5 156.5t-96.5 46.5t-96 -45.5t-31 -154.5q0 -110 31.5 -156t96.5 -46zM249 -10q-88 0 -139.5 60.5t-51.5 187.5q0 128 50.5 189t138.5 61t140 -61t52 -188t-51 -188t-139 -61z" unicode="ó"/>
<glyph glyph-name="ocircumflex" d="M142 545l-25 30l112 117h39l113 -117l-25 -30l-108 87zM249 38q65 0 96 45t31 154q0 110 -31.5 156.5t-96.5 46.5t-96 -45.5t-31 -154.5q0 -110 31.5 -156t96.5 -46zM249 -10q-88 0 -139.5 60.5t-51.5 187.5q0 128 50.5 189t138.5 61t140 -61t52 -188t-51 -188t-139 -61z " unicode="ô"/>
<glyph glyph-name="otilde" d="M144 556l-35 22q32 73 87 73q23 0 58 -18.5t52 -18.5q16 0 25.5 9t22.5 31l35 -22q-31 -72 -86 -72q-24 0 -59 18t-52 18q-16 0 -25.5 -9t-22.5 -31zM249 38q65 0 96 45t31 154q0 110 -31.5 156.5t-96.5 46.5t-96 -45.5t-31 -154.5q0 -110 31.5 -156t96.5 -46zM249 -10 q-88 0 -139.5 60.5t-51.5 187.5q0 128 50.5 189t138.5 61t140 -61t52 -188t-51 -188t-139 -61z" unicode="õ"/>
<glyph glyph-name="odieresis" d="M334 552q-19 0 -32 13t-13 32t12.5 32t31.5 13t32 -13t13 -32t-12.5 -32t-31.5 -13zM163 552q-19 0 -32 13t-13 32t12.5 32t31.5 13t32 -13t13 -32t-12.5 -32t-31.5 -13zM249 38q65 0 96 45t31 154q0 110 -31.5 156.5t-96.5 46.5t-96 -45.5t-31 -154.5q0 -110 31.5 -156 t96.5 -46zM249 -10q-88 0 -139.5 60.5t-51.5 187.5q0 128 50.5 189t138.5 61t140 -61t52 -188t-51 -188t-139 -61z" unicode="ö"/>
<glyph glyph-name="divide" horiz-adv-x="525" unicode="÷" d="M262 74q-21 0 -36 14.5t-15 36.5t15 36.5t36 14.5t35.5 -14.5t14.5 -36.5t-14.5 -36.5t-35.5 -14.5zM73 262v52h377v-52h-377zM262 400q-21 0 -36 14.5t-15 36.5t15 36.5t36 14.5t35.5 -14.5t14.5 -36.5t-14.5 -36.5t-35.5 -14.5z"/>
<glyph glyph-name="oslash" d="M354 373l-187 -309q27 -26 80 -26q65 0 96 45t31 154q0 87 -20 136zM140 102l187 310q-28 28 -81 28q-65 0 -96 -45.5t-31 -154.5q0 -90 21 -138zM386 426q51 -65 51 -187q0 -127 -51 -188t-139 -61q-64 0 -107 30l-47 -79l-36 23l51 85q-52 63 -52 189q0 128 50.5 189 t138.5 61q64 0 109 -32l46 76l36 -23z" unicode="ø"/>
<glyph glyph-name="ugrave" horiz-adv-x="506" unicode="ù" d="M306 541l-177 98l33 55l166 -118zM206 -10q-54 0 -87.5 32.5t-33.5 93.5v362h59v-346q0 -47 18.5 -68t55.5 -21q60 0 138 64v371h60v-478h-43l-14 64q-77 -74 -153 -74z"/>
<glyph glyph-name="uacute" horiz-adv-x="506" unicode="ú" d="M199 541l-23 35l166 118l33 -55zM206 -10q-54 0 -87.5 32.5t-33.5 93.5v362h59v-346q0 -47 18.5 -68t55.5 -21q60 0 138 64v371h60v-478h-43l-14 64q-77 -74 -153 -74z"/>
<glyph glyph-name="ucircumflex" horiz-adv-x="506" unicode="û" d="M146 545l-25 30l112 117h39l113 -117l-25 -30l-108 87zM206 -10q-54 0 -87.5 32.5t-33.5 93.5v362h59v-346q0 -47 18.5 -68t55.5 -21q60 0 138 64v371h60v-478h-43l-14 64q-77 -74 -153 -74z"/>
<glyph glyph-name="udieresis" horiz-adv-x="506" unicode="ü" d="M338 552q-19 0 -32 13t-13 32t12.5 32t31.5 13t32 -13t13 -32t-12.5 -32t-31.5 -13zM167 552q-19 0 -32 13t-13 32t12.5 32t31.5 13t32 -13t13 -32t-12.5 -32t-31.5 -13zM206 -10q-54 0 -87.5 32.5t-33.5 93.5v362h59v-346q0 -47 18.5 -68t55.5 -21q60 0 138 64v371h60 v-478h-43l-14 64q-77 -74 -153 -74z"/>
<glyph glyph-name="yacute" horiz-adv-x="453" unicode="ý" d="M183 541l-23 35l166 118l33 -55zM78 -208l-15 47q64 20 94 52.5t52 108.5h-21l-151 478h64l93 -306q17 -59 32 -130h1q9 44 35 130l92 306h62l-158 -499q-30 -95 -66.5 -130.5t-113.5 -56.5z"/>
<glyph glyph-name="thorn" horiz-adv-x="512" unicode="þ" d="M273 42q59 0 86.5 42.5t27.5 149.5q0 115 -25.5 158.5t-82.5 43.5q-37 0 -66.5 -17.5t-63.5 -48.5v-269q59 -59 124 -59zM89 -204v919h60v-297q66 70 139 70q162 0 162 -249t-166 -249q-74 0 -135 63v-257h-60z"/>
<glyph glyph-name="OE" horiz-adv-x="837" unicode="Œ" d="M332 54h99v579h-98q-111 0 -154.5 -64t-43.5 -219q0 -163 43 -229.5t154 -66.5zM339 0q-138 0 -204.5 82t-66.5 271q0 181 66 257.5t202 76.5h435v-54h-276v-245h224v-54h-224v-280h288v-54h-444z"/>
<glyph glyph-name="oe" horiz-adv-x="786" unicode="œ" d="M439 277h228q0 89 -26.5 125.5t-83.5 36.5q-54 0 -83.5 -36.5t-34.5 -125.5zM249 38q65 0 96 45t31 154q0 110 -31.5 156.5t-96.5 46.5t-96 -45.5t-31 -154.5q0 -110 31.5 -156t96.5 -46zM406 97q-40 -107 -157 -107q-88 0 -139.5 60.5t-51.5 187.5q0 128 50.5 189 t138.5 61q118 0 159 -109q39 109 152 109q171 0 171 -233v-25h-291q1 -107 31.5 -149t99.5 -42q67 0 120 43l32 -40q-65 -52 -152 -52q-123 0 -163 107z"/>
<glyph glyph-name="Scaron" horiz-adv-x="513" unicode="Š" d="M230 742l-113 118l25 30l107 -88l107 88l25 -30l-113 -118h-38zM242 -10q-123 0 -205 80l32 45q76 -71 169 -71q142 0 142 131q0 65 -31.5 95.5t-109.5 62.5q-43 18 -69.5 33t-50 37.5t-34 53t-10.5 71.5q0 80 49 124t132 44q95 0 160 -46l-27 -49q-59 42 -130 42 q-55 0 -88.5 -28.5t-33.5 -84.5q0 -57 26.5 -83t98.5 -56q48 -20 76.5 -35.5t55.5 -40t39 -58.5t12 -80q0 -83 -49.5 -135t-153.5 -52z"/>
<glyph glyph-name="scaron" horiz-adv-x="409" unicode="š" d="M184 548l-113 118l25 30l107 -88l107 88l25 -30l-113 -118h-38zM193 -10q-89 0 -154 52l26 43q62 -45 129 -45q100 0 100 84q0 42 -22 61.5t-86 39.5q-60 19 -92 50t-32 91q0 53 36.5 87.5t104.5 34.5q73 0 130 -33l-22 -47q-53 29 -107 29q-85 0 -85 -70 q0 -37 18.5 -53.5t72.5 -34.5q36 -12 57 -21.5t43 -26.5t32 -42.5t10 -61.5q0 -137 -159 -137z"/>
<glyph glyph-name="Ydieresis" horiz-adv-x="530" unicode="Ÿ" d="M353 746q-19 0 -32 13t-13 32t12.5 32t31.5 13t32 -13t13 -32t-12.5 -32t-31.5 -13zM182 746q-19 0 -32 13t-13 32t12.5 32t31.5 13t32 -13t13 -32t-12.5 -32t-31.5 -13zM234 0v271l-198 416h72l123 -268q24 -54 37 -95q23 68 36 95l123 268h67l-196 -418v-269h-64z"/>
<glyph glyph-name="circumflex" horiz-adv-x="543" unicode="ˆ" d="M165 545l-25 30l112 117h39l113 -117l-25 -30l-108 87z"/>
<glyph glyph-name="tilde" horiz-adv-x="543" unicode="˜" d="M167 556l-35 22q32 73 87 73q23 0 58 -18.5t52 -18.5q16 0 25.5 9t22.5 31l35 -22q-32 -72 -86 -72q-24 0 -59 18t-52 18q-16 0 -25.5 -9t-22.5 -31z"/>
<glyph glyph-name="uni0394" horiz-adv-x="555" unicode="Δ" d="M239 470l-129 -416h330l-123 416q-27 91 -37 156h-2q-13 -75 -39 -156zM524 0h-494l215 687h69z"/>
<glyph glyph-name="uni03BC" horiz-adv-x="502" unicode="μ" d="M361 81h-2q-43 -91 -122 -91q-57 0 -88 31v-225h-60v682h60v-388q31 -51 96 -51q47 0 78.5 46t31.5 102v291h60v-397q0 -41 32 -41q9 0 23 3l10 -43q-26 -9 -53 -9q-66 0 -66 90z"/>
<glyph glyph-name="pi" horiz-adv-x="534" unicode="π" d="M440 0h-63q-28 183 -28 429h-168q-2 -47 -6.5 -199.5t-7.5 -229.5h-62q9 99 22 429q-55 0 -106 -8v45q70 12 98 12h388v-49h-103q6 -291 36 -429z"/>
<glyph glyph-name="endash" horiz-adv-x="505" unicode="–" d="M56 253v52h392v-52h-392z"/>
<glyph glyph-name="emdash" horiz-adv-x="706" unicode="—" d="M56 253v52h593v-52h-593z"/>
<glyph glyph-name="quoteleft" horiz-adv-x="224" unicode="‘" d="M115 490q-25 0 -40.5 18.5t-15.5 50.5q0 106 94 135l13 -33q-52 -22 -52 -70q19 -1 34 -14.5t15 -36.5q0 -21 -14.5 -35.5t-33.5 -14.5z"/>
<glyph glyph-name="quotesinglbase" horiz-adv-x="224" unicode="‚" d="M71 -105l-13 33q52 22 52 70q-19 1 -34 14.5t-15 36.5q0 21 14 35.5t34 14.5q24 0 40 -19t16 -50q0 -107 -94 -135z"/>
<glyph glyph-name="quotedblleft" horiz-adv-x="390" unicode="“" d="M280 490q-24 0 -39.5 18.5t-15.5 50.5q0 106 94 135l12 -33q-52 -22 -52 -70q20 -1 35 -14.5t15 -36.5q0 -21 -14.5 -35.5t-34.5 -14.5zM115 490q-25 0 -40.5 18.5t-15.5 50.5q0 106 94 135l13 -33q-52 -22 -52 -70q19 -1 34 -14.5t15 -36.5q0 -21 -14.5 -35.5 t-33.5 -14.5z"/>
<glyph glyph-name="quotedblright" horiz-adv-x="390" unicode="”" d="M236 489l-12 32q52 25 52 70q-20 2 -34.5 15.5t-14.5 35.5t13.5 36t34.5 14q24 0 39.5 -18.5t15.5 -49.5q0 -107 -94 -135zM71 489l-13 32q52 24 52 70q-19 2 -34 15.5t-15 35.5t14 36t34 14q24 0 40 -18.5t16 -49.5q0 -107 -94 -135z"/>
<glyph glyph-name="dagger" horiz-adv-x="358" unicode="†" d="M150 231v276h-99v51h99v129h57v-129h100v-51h-100v-276h-57z"/>
<glyph glyph-name="daggerdbl" horiz-adv-x="358" unicode="‡" d="M150 231v129h-99v51h99v96h-99v51h99v129h57v-129h100v-51h-100v-96h100v-51h-100v-129h-57z"/>
<glyph glyph-name="ellipsis" horiz-adv-x="643" unicode="…" d="M321 -7q-21 0 -36.5 15t-15.5 37t15.5 37.5t36.5 15.5q22 0 37 -15.5t15 -37.5t-15 -37t-37 -15zM121 -7q-22 0 -37 15t-15 37t15 37.5t37 15.5t37 -15.5t15 -37.5t-15 -37t-37 -15zM522 -7q-22 0 -37 15t-15 37t15 37.5t37 15.5t37 -15.5t15 -37.5t-15 -37t-37 -15z"/>
<glyph glyph-name="perthousand" horiz-adv-x="1168" unicode="‰" d="M185 0l381 635h57l-380 -635h-58zM607 37q89 0 89 121q0 131 -90 131q-89 0 -89 -122q0 -130 90 -130zM202 346q90 0 90 121q0 131 -91 131q-89 0 -89 -122q0 -130 90 -130zM965 37q89 0 89 121q0 131 -90 131t-90 -122q0 -130 91 -130zM203 300q-68 0 -108.5 47 t-40.5 126q0 78 40 124.5t107 46.5t108 -46.5t41 -127.5q0 -78 -39.5 -124t-107.5 -46zM608 -9q-68 0 -109 47t-41 126q0 78 40 124.5t107 46.5t108.5 -47t41.5 -127q0 -77 -40 -123.5t-107 -46.5zM966 -9q-68 0 -109 47t-41 126q0 78 40 124.5t107 46.5t108.5 -47 t41.5 -127q0 -77 -40 -123.5t-107 -46.5z"/>
<glyph glyph-name="guilsinglleft" horiz-adv-x="295" unicode="‹" d="M189 41l-132 205l132 206l45 -30l-112 -176l112 -175z"/>
<glyph glyph-name="guilsinglright" horiz-adv-x="295" unicode="›" d="M105 41l-45 31l112 175l-111 175l44 30l133 -205z"/>
<glyph glyph-name="fraction" horiz-adv-x="283" unicode="⁄" d="M-78 0l381 635h57l-380 -635h-58z"/>
<glyph glyph-name="Euro" horiz-adv-x="578" unicode="€" d="M127 367h-90v48h95q33 230 232 230q95 0 160 -50l-30 -43q-53 42 -130 42t-117 -44t-52 -135h222v-48h-226q-1 -15 -1 -49q0 -30 1 -44h226v-48h-223q11 -94 52 -139t125 -45q77 0 134 46l30 -42q-70 -56 -165 -56q-209 0 -240 236h-93v48h89q-1 13 -1 41q0 18 2 52z"/>
<glyph glyph-name="trademark" horiz-adv-x="735" unicode="™" d="M147 319v323h-93v45h238v-45h-93v-323h-52zM359 319v368h76l58 -179q13 -40 17 -77h2q5 41 16 77l57 179h76v-368h-51v209q0 26 1 52.5t2 43.5t1 19h-1q-22 -87 -29 -108l-51 -151h-48l-51 149q-8 23 -14 46.5t-10 43t-4 20.5h-1q0 -1 2 -42t2 -73v-209h-50z"/>
<glyph glyph-name="arrowleft" horiz-adv-x="730" unicode="←" d="M158 366h517v-52h-518l275 -297l-34 -37l-347 359l347 359l34 -37z"/>
<glyph glyph-name="arrowup" horiz-adv-x="768" unicode="↑" d="M356 576l-295 -272l-36 36l359 346l359 -346l-38 -38l-291 273v-575h-58v576z"/>
<glyph glyph-name="arrowright" horiz-adv-x="730" unicode="→" d="M51 366h517l-274 295l34 37l347 -359l-347 -359l-34 37l275 297h-518v52z"/>
<glyph glyph-name="arrowdown" horiz-adv-x="768" unicode="↓" d="M412 110l295 272l36 -36l-359 -346l-359 346l38 38l291 -273v575h58v-576z"/>
<glyph glyph-name="carriagereturn" horiz-adv-x="768" unicode="↵" d="M373 628l-232 -260h497v300h53v-352h-551l235 -255l-34 -37l-306 319l306 319z"/>
<glyph glyph-name="partialdiff" d="M249 38q65 0 96 45t31 154q0 110 -31.5 156.5t-96.5 46.5q-66 0 -96.5 -45t-30.5 -155t31.5 -156t96.5 -46zM361 428q-22 104 -78 172.5t-150 123.5l22 38q64 -32 112 -71.5t89 -99t62 -145.5t21 -196q0 -135 -50.5 -197.5t-139.5 -62.5q-88 0 -139.5 60.5t-51.5 187.5 t49 188.5t131 61.5q81 0 123 -60z" unicode="∂"/>
<glyph glyph-name="product" horiz-adv-x="614" unicode="∏" d="M131 -212v845h-94v54h539v-54h-94v-845h-63v845h-224v-845h-64z"/>
<glyph glyph-name="summation" horiz-adv-x="499" unicode="∑" d="M66 -212v58l202 396l-202 396v49h370v-54h-294l197 -390l-208 -401h314v-54h-379z"/>
<glyph glyph-name="minus" horiz-adv-x="524" unicode="−" d="M73 262v51h378v-51h-378z"/>
<glyph glyph-name="radical" horiz-adv-x="529" unicode="√" d="M221 0l-119 299h-60v54h105l49 -126q36 -90 54 -154h1q16 70 42 156l138 458h64l-209 -687h-65z"/>
<glyph glyph-name="infinity" horiz-adv-x="594" unicode="∞" d="M425 151q27 0 42 25.5t15 74.5q0 97 -59 97q-17 0 -35 -15.5t-30.5 -33t-32.5 -50.5q20 -32 33 -50t31.5 -33t35.5 -15zM171 151q25 0 47 25t51 73q-30 48 -53 73.5t-47 25.5q-27 0 -42 -26t-15 -75q0 -96 59 -96zM165 99q-44 0 -77 38t-33 110q0 81 32.5 117t80.5 36 q60 0 129 -105q31 49 62 77t70 28q45 0 77.5 -37.5t32.5 -111.5q0 -81 -32.5 -116.5t-80.5 -35.5q-35 0 -65 27.5t-64 77.5q-31 -49 -62 -77t-70 -28z"/>
<glyph glyph-name="approxequal" horiz-adv-x="517" unicode="≈" d="M108 159l-39 22q41 90 111 90q32 0 85 -25t75 -25q36 0 68 56l39 -22q-39 -89 -110 -89q-32 0 -85 24.5t-76 24.5q-35 0 -68 -56zM108 313l-39 23q42 89 111 89q32 0 84.5 -24.5t75.5 -24.5q36 0 68 56l39 -23q-40 -89 -110 -89q-32 0 -85 25t-76 25q-35 0 -68 -57z"/>
<glyph glyph-name="notequal" horiz-adv-x="533" unicode="≠" d="M264 349h-190v52h212l58 134l47 -19l-50 -115h117v-52h-139l-53 -121h192v-52h-214l-57 -133l-46 19l49 114h-116v52h138z"/>
<glyph glyph-name="lessequal" horiz-adv-x="384" unicode="≤" d="M57 30v52h275v-52h-275zM296 134l-242 157v31l242 156l26 -43l-200 -129l200 -128z"/>
<glyph glyph-name="greaterequal" horiz-adv-x="385" unicode="≥" d="M52 30v52h275v-52h-275zM89 134l-27 44l201 129l-201 128l27 43l242 -156v-31z"/>
<glyph glyph-name="dotmath" horiz-adv-x="550" unicode="⋅" d="M275 286q-22 0 -37 15t-15 37t15 37.5t37 15.5t37 -15.5t15 -37.5t-15 -37t-37 -15z"/>
<glyph glyph-name="lozenge" horiz-adv-x="573" unicode="◊" d="M288 53h1q11 32 38 81l118 213l-124 212q-21 36 -38 81h-1q-19 -48 -37 -81l-118 -213l121 -212q28 -49 40 -81zM262 0l-203 344l198 343h52l203 -344l-198 -343h-52z"/>
</font>
</defs>
</svg>
