<?xml version="1.0" encoding="UTF-8" standalone="no"?>
<!DOCTYPE svg  PUBLIC '-//W3C//DTD SVG 1.1//EN'  'http://www.w3.org/Graphics/SVG/1.1/DTD/svg11.dtd'>
<svg xmlns="http://www.w3.org/2000/svg">
<defs>
<font id="UnitOT-LightIta" horiz-adv-x="486">
<font-face slope="-12" underline-position="-50" font-weight="350" descent="-200" panose-1="2 11 5 4 3 1 1 2 1 2" units-per-em="1000" unicode-range="U+0020-25CA" bbox="-120 -217 1062 918" x-height="478" underline-thickness="50" font-family="UnitOT" ascent="800" font-style="italic" cap-height="687"/>
<missing-glyph horiz-adv-x="1000"/>
<glyph glyph-name=".notdef" horiz-adv-x="1000"/>
<glyph glyph-name=".null" horiz-adv-x="0"/>
<glyph glyph-name=".null" horiz-adv-x="0"/>
<glyph glyph-name="nonmarkingreturn" horiz-adv-x="333"/>
<glyph glyph-name="space" horiz-adv-x="196" unicode=" "/>
<glyph glyph-name="exclam" horiz-adv-x="244" unicode="!" d="M76 -6q-20 0 -34.5 14t-14.5 36t14.5 36t34.5 14q22 0 36 -14t14 -36t-14 -36t-36 -14zM79 186l99 501h69l-122 -501h-46z"/>
<glyph glyph-name="quotedbl" horiz-adv-x="361" unicode='&quot;' d="M126 468l52 240h54l-51 -240h-55zM268 468l52 240h54l-51 -240h-55z"/>
<glyph glyph-name="numbersign" horiz-adv-x="530" unicode="#" d="M235 409l-46 -173h132l46 173h-132zM92 409l11 51h96l47 175h49l-47 -175h133l47 175h49l-47 -175h95l-11 -51h-97l-46 -173h95l-10 -51h-98l-49 -185h-50l49 185h-132l-49 -185h-49l49 185h-95l11 51h97l46 173h-94z"/>
<glyph glyph-name="dollar" horiz-adv-x="464" unicode="$" d="M164 482q0 -61 70 -107l47 221q-55 0 -86 -29.5t-31 -84.5zM333 179q0 37 -17.5 61.5t-55.5 49.5l-53 -249q126 7 126 138zM129 -115l23 109q-85 12 -149 76l27 46q65 -63 134 -73l57 271q-57 34 -86.5 71.5t-29.5 90.5q0 80 48 124.5t127 44.5h10h1l24 116h46l-27 -122 q60 -13 109 -56l-25 -45q-46 40 -94 52l-51 -239q61 -37 91 -75t30 -97q0 -82 -50.5 -135t-147.5 -53l-22 -106h-45z"/>
<glyph glyph-name="percent" horiz-adv-x="787" unicode="%" d="M134 0l488 635h57l-488 -635h-57zM222 345q41 0 65 29q19 22 30.5 62.5t11.5 78.5q0 85 -73 85q-34 0 -56 -19q-23 -20 -37.5 -64t-14.5 -86q0 -86 74 -86zM559 36q41 0 64 29q20 21 31.5 62t11.5 79q0 85 -74 85q-33 0 -55 -19q-24 -20 -38.5 -64.5t-14.5 -85.5 q0 -86 75 -86zM557 -9q-61 0 -94.5 38t-33.5 101q0 55 22.5 105t59.5 75q35 25 85 25q57 0 91 -36.5t34 -98.5q0 -51 -19 -99.5t-51 -75.5q-39 -34 -94 -34zM220 300q-61 0 -94.5 38t-33.5 102q0 54 22.5 104t59.5 75q35 25 85 25q58 0 91.5 -36.5t33.5 -98.5 q0 -51 -18.5 -99.5t-50.5 -75.5q-40 -34 -95 -34z"/>
<glyph glyph-name="ampersand" horiz-adv-x="606" unicode="&amp;" d="M284 418q74 33 103.5 65t29.5 84q0 38 -20 59t-56 21q-46 0 -72.5 -30.5t-26.5 -78.5q0 -51 32 -104zM232 39q35 0 97 25t62 61q0 2 -140 233q-74 -32 -111.5 -78t-37.5 -117q0 -55 31.5 -89.5t98.5 -34.5zM226 -11q-92 0 -140.5 50t-48.5 124q0 89 49.5 143t143.5 91 q-48 71 -48 143q0 67 44.5 111.5t114.5 44.5q60 0 99 -35.5t39 -93.5q0 -67 -42 -109.5t-130 -76.5l121 -204q40 69 74 179l55 -7q-42 -137 -100 -222l77 -127h-67l-48 80q-83 -91 -193 -91z"/>
<glyph glyph-name="quotesingle" horiz-adv-x="219" unicode="&apos;" d="M126 468l51 240h55l-51 -240h-55z"/>
<glyph glyph-name="parenleft" horiz-adv-x="319" unicode="(" d="M173 -154q-119 97 -119 291q0 91 27 211q43 189 110 284.5t179 137.5l14 -39q-94 -46 -147 -130.5t-94 -264.5q-27 -123 -27 -207q0 -163 87 -248z"/>
<glyph glyph-name="parenright" horiz-adv-x="319" unicode=")" d="M-30 -154l-15 39q94 47 147 131.5t94 263.5q28 122 28 207q0 161 -87 248l29 35q119 -97 119 -291q0 -95 -26 -211q-43 -189 -110 -284.5t-179 -137.5z"/>
<glyph glyph-name="asterisk" horiz-adv-x="434" unicode="*" d="M159 352l-35 28l106 119l-116 47l21 42l117 -47l31 146h48l-32 -147l133 48l12 -44l-142 -48l62 -120l-39 -25l-61 120z"/>
<glyph glyph-name="plus" horiz-adv-x="511" unicode="+" d="M191 85l37 178h-156l11 50h156l38 178h57l-38 -178h155l-11 -50h-155l-38 -178h-56z"/>
<glyph glyph-name="comma" horiz-adv-x="236" unicode="," d="M-8 -110v32q60 25 70 73q-15 3 -27.5 17t-12.5 33q0 22 14.5 36.5t35.5 14.5q22 0 36.5 -16t14.5 -44q0 -48 -33 -90.5t-98 -55.5z"/>
<glyph glyph-name="hyphen" horiz-adv-x="284" unicode="-" d="M50 239l12 59h175l-12 -59h-175z"/>
<glyph glyph-name="period" horiz-adv-x="235" unicode="." d="M72 -5q-21 0 -35.5 14t-14.5 36t14.5 36.5t35.5 14.5t35.5 -14.5t14.5 -36.5t-14.5 -36t-35.5 -14z"/>
<glyph glyph-name="slash" horiz-adv-x="330" unicode="/" d="M-61 -146l413 905h59l-413 -905h-59z"/>
<glyph glyph-name="zero" horiz-adv-x="583" unicode="0" d="M262 40q104 0 158 113q28 56 45 134t17 139q0 169 -134 169q-55 0 -94 -28.5t-68 -90.5q-27 -56 -45 -132.5t-18 -137.5q2 -166 139 -166zM261 -9q-98 0 -149 58t-51 167q0 67 19 143t49 135q75 151 221 151q93 0 144 -60t51 -168q0 -74 -20 -155t-53 -140 q-72 -131 -211 -131z"/>
<glyph glyph-name="one" horiz-adv-x="425" unicode="1" d="M15 0l10 50h128l108 509l-140 -63l-16 33l186 112h48l-126 -591h120l-11 -50h-307z"/>
<glyph glyph-name="two" horiz-adv-x="466" unicode="2" d="M-8 0l11 56q121 87 197.5 153t114 116t50 85.5t12.5 77.5q0 51 -28 78.5t-79 27.5q-62 0 -141 -42l-22 41q80 52 169 52q71 0 117 -41.5t46 -113.5q0 -66 -28.5 -123t-110 -135t-229.5 -180h296l-11 -52h-364z"/>
<glyph glyph-name="three" horiz-adv-x="485" unicode="3" d="M167 -66q-101 0 -185 51l14 47q80 -46 169 -46q85 0 130 50q43 50 43 139q0 56 -33.5 85.5t-92.5 29.5h-52l10 50h49q87 0 123 43q35 41 35 109q0 48 -29 75t-83 27q-63 0 -139 -38l-20 43q85 46 168 46q76 0 120 -42t44 -110q0 -71 -33.5 -118.5t-95.5 -62.5 q44 -16 69 -54t25 -91q0 -104 -62 -168q-62 -65 -174 -65z"/>
<glyph glyph-name="four" horiz-adv-x="532" unicode="4" d="M13 105l12 57l308 473h65l-314 -479h246l61 286l63 13l-63 -299h76l-12 -51h-75l-34 -161h-61l34 161h-306z"/>
<glyph glyph-name="five" horiz-adv-x="482" unicode="5" d="M161 -65q-93 0 -170 46l13 48q77 -43 155 -43q83 0 132 55q25 28 39.5 73t14.5 87q0 131 -136 131q-58 0 -118 -19l93 322h301l-11 -52h-252l-61 -211q29 9 65 9q89 0 136 -50t47 -132q0 -57 -21 -112t-59 -90q-65 -62 -168 -62z"/>
<glyph glyph-name="six" horiz-adv-x="543" unicode="6" d="M289 378q-71 0 -151 -59q-14 -52 -14 -105q0 -174 133 -174q73 0 115.5 57t42.5 143q0 66 -33 102t-93 36zM255 -9q-86 0 -139.5 60.5t-53.5 164.5q0 113 54 223.5t135 167.5q100 71 254 88v-49q-142 -20 -224 -82q-82 -63 -128 -195q76 58 152 58t125 -50.5t49 -137.5 q0 -111 -63 -179.5t-161 -68.5z"/>
<glyph glyph-name="seven" horiz-adv-x="473" unicode="7" d="M140 -62l-62 7q120 412 355 638h-322l11 52h380l-12 -56q-240 -230 -350 -641z"/>
<glyph glyph-name="eight" horiz-adv-x="534" unicode="8" d="M199 516q0 -74 80 -119l26 -15q140 51 140 161q0 46 -30 75.5t-83 29.5q-61 0 -97 -36.5t-36 -95.5zM317 312l-57 31q-79 -28 -119 -69t-40 -109q0 -59 39.5 -92.5t107.5 -33.5q71 0 111.5 41.5t40.5 106.5q0 79 -83 125zM244 -9q-93 0 -148.5 48t-55.5 124q0 84 48 131 t134 74q-84 58 -84 148q0 79 55.5 129.5t141.5 50.5q79 0 125.5 -45.5t46.5 -110.5q0 -124 -161 -183q117 -62 117 -168q0 -87 -60 -142.5t-159 -55.5z"/>
<glyph glyph-name="nine" horiz-adv-x="543" unicode="9" d="M279 256q74 0 152 56q17 62 17 121q0 164 -133 164q-75 0 -118 -60.5t-43 -142.5q0 -68 33 -103t92 -35zM59 -58v48q130 21 210.5 72t127.5 154q9 17 19 45q-72 -53 -151 -53q-77 0 -125.5 51.5t-48.5 139.5q0 105 65 176.5t162 71.5q86 0 138.5 -56.5t53.5 -159.5 q0 -120 -55 -235q-57 -119 -152.5 -177.5t-243.5 -76.5z"/>
<glyph glyph-name="colon" horiz-adv-x="249" unicode=":" d="M140 281q-21 0 -35.5 14.5t-14.5 36.5t14.5 36t35.5 14t35.5 -14t14.5 -36t-14.5 -36.5t-35.5 -14.5zM79 -5q-21 0 -35.5 14.5t-14.5 35.5t14.5 36t35.5 15q22 0 36.5 -14.5t14.5 -36.5t-14.5 -36t-36.5 -14z"/>
<glyph glyph-name="semicolon" horiz-adv-x="250" unicode=";" d="M140 281q-21 0 -35.5 14.5t-14.5 36.5t14.5 36t35.5 14t35.5 -14t14.5 -36t-14.5 -36.5t-35.5 -14.5zM4 -109l-7 30q64 28 72 74q-15 3 -27.5 17t-12.5 33q0 21 14.5 36t35.5 15q23 0 37 -16t14 -44q0 -48 -31.5 -89t-94.5 -56z"/>
<glyph glyph-name="less" horiz-adv-x="334" unicode="&lt;" d="M218 80l-161 208l6 24l241 185l27 -41l-212 -165l139 -180z"/>
<glyph glyph-name="equal" horiz-adv-x="520" unicode="=" d="M55 177l12 50h374l-11 -50h-375zM92 350l11 50h375l-11 -50h-375z"/>
<glyph glyph-name="greater" horiz-adv-x="334" unicode="&gt;" d="M46 80l-27 41l211 165l-138 179l40 32l161 -208l-6 -25z"/>
<glyph glyph-name="question" horiz-adv-x="414" unicode="?" d="M135 -6q-21 0 -35.5 14t-14.5 36t14.5 36t35.5 14t35 -14t14 -36t-14 -36t-35 -14zM134 186l20 97q12 56 36 83.5t67 53.5q56 34 72 53q28 33 28 89q0 83 -92 83q-59 0 -123 -31l-12 45q63 37 139 37q68 0 108 -35t40 -99q0 -17 -2.5 -32t-5 -27t-9.5 -24t-10.5 -19.5 t-15 -18t-15.5 -14.5t-18 -13.5t-18 -12t-20 -12t-19 -11.5q-38 -23 -54 -44t-25 -62l-18 -86h-53z"/>
<glyph glyph-name="at" horiz-adv-x="791" unicode="@" d="M320 54q56 0 130 78l51 237q-48 44 -91 44q-48 0 -76 -37.5t-48 -132.5q-15 -73 -15 -114q0 -75 49 -75zM340 -151q-146 0 -218 82t-72 232q0 124 41.5 225t130 165.5t209.5 64.5q153 0 226.5 -84t73.5 -220q0 -322 -174 -322q-102 0 -104 98q-71 -85 -145 -85 q-42 0 -68.5 32.5t-26.5 102.5q0 48 13 110q24 110 67.5 159.5t111.5 49.5q56 0 104 -50l8 38h58l-62 -293q-7 -32 -7 -58q0 -58 50 -58q119 0 119 280q0 253 -248 253q-82 0 -145.5 -35t-100.5 -94.5t-55.5 -131t-18.5 -151.5q0 -131 55 -197t181 -66q77 0 145 21l5 -45 q-69 -23 -153 -23z"/>
<glyph glyph-name="A" horiz-adv-x="540" unicode="A" d="M282 477l-104 -204h193l-15 195q-5 83 -5 126q0 8 0.5 21t0.5 19h-1q-20 -61 -69 -157zM-26 0l356 687h67l59 -687h-63l-18 222h-223l-113 -222h-65z"/>
<glyph glyph-name="B" horiz-adv-x="538" unicode="B" d="M178 384h118q74 0 108 37q37 40 37 115q0 46 -28.5 72.5t-85.5 26.5h-96zM109 51h126q97 0 139 51q39 46 39 125q0 106 -123 106h-122zM36 0l146 687h150q85 0 129 -42t44 -108t-28.5 -114t-88.5 -66q88 -31 88 -136q0 -110 -62 -167q-59 -54 -179 -54h-199z"/>
<glyph glyph-name="C" horiz-adv-x="523" unicode="C" d="M273 -10q-104 0 -156 59t-52 167q0 79 23 172t59 160q80 148 228 148q99 0 166 -64l-35 -42q-61 55 -133 55q-112 0 -170 -120q-31 -61 -52.5 -151.5t-21.5 -161.5q0 -86 35.5 -128t112.5 -42q72 0 151 51l17 -50q-81 -53 -172 -53z"/>
<glyph glyph-name="D" horiz-adv-x="576" unicode="D" d="M113 52h101q67 0 108 20t70 67q38 51 64 151t26 181q0 84 -38 124.5t-123 40.5h-84zM40 0l146 687h136q224 0 224 -218q0 -93 -29 -199t-75 -161q-40 -60 -95.5 -84.5t-138.5 -24.5h-168z"/>
<glyph glyph-name="E" d="M40 0l146 687h327l-11 -52h-265l-53 -248h217l-11 -51h-216l-61 -284h281l-11 -52h-343z" unicode="E"/>
<glyph glyph-name="F" horiz-adv-x="469" unicode="F" d="M41 0l146 687h320l-11 -52h-259l-53 -247h219l-11 -52h-218l-72 -336h-61z"/>
<glyph glyph-name="G" horiz-adv-x="574" unicode="G" d="M442 0h-41v48q-66 -57 -145 -57q-94 0 -142 58.5t-49 164.5q0 77 21 165.5t56 156.5q81 160 234 160q96 0 164 -63l-33 -45q-61 57 -135 57q-60 0 -101.5 -32t-71.5 -98q-30 -62 -49.5 -150t-19.5 -158q0 -165 134 -165q75 0 138 55l44 207h-145l12 53h205z"/>
<glyph glyph-name="H" horiz-adv-x="593" unicode="H" d="M40 0l146 687h62l-63 -294h279l63 294h62l-146 -687h-62l73 341h-280l-72 -341h-62z"/>
<glyph glyph-name="I" horiz-adv-x="310" unicode="I" d="M-1 0l8 33l69 7l129 606l-66 8l6 33h201l-7 -33l-72 -8l-129 -607l69 -6l-7 -33h-201z"/>
<glyph glyph-name="J" horiz-adv-x="256" unicode="J" d="M-59 -134l-11 42q59 26 84.5 53.5t39.5 94.5l135 631h62l-136 -637q-18 -85 -53 -120.5t-121 -63.5z"/>
<glyph glyph-name="K" horiz-adv-x="517" unicode="K" d="M41 0l146 687h61l-146 -687h-61zM361 0l-161 367l294 320h72l-301 -327l160 -360h-64z"/>
<glyph glyph-name="L" horiz-adv-x="448" unicode="L" d="M41 0l146 687h61l-134 -634h248l-11 -53h-310z"/>
<glyph glyph-name="M" horiz-adv-x="693" unicode="M" d="M41 0l146 687h89l46 -377q6 -54 6 -99q0 -23 -1 -32h1q23 64 56 126l208 382h96l-146 -687h-61l98 461q21 101 41 179h-1q-51 -110 -82 -165l-190 -342h-59l-44 340q-8 56 -12 167h-2q-26 -142 -33 -176l-98 -464h-58z"/>
<glyph glyph-name="N" horiz-adv-x="591" unicode="N" d="M41 0l146 687h68l121 -469q20 -80 28 -148h1q11 86 29 169l95 448h57l-146 -687h-67l-117 450q-24 95 -33 167h-1q-7 -67 -33 -188l-91 -429h-57z"/>
<glyph glyph-name="O" horiz-adv-x="603" unicode="O" d="M270 40q106 0 164 115q32 62 53.5 153t22.5 164q-2 175 -139 175q-55 0 -94.5 -29t-71.5 -90q-33 -64 -55 -155.5t-22 -161.5q0 -171 142 -171zM270 -10q-99 0 -152 60t-53 171q0 84 27 183t68 165q78 127 212 127q99 0 150 -61.5t51 -173.5q0 -88 -27 -187t-68 -165 q-76 -119 -208 -119z"/>
<glyph glyph-name="P" horiz-adv-x="515" unicode="P" d="M174 336h112q81 0 118 44q21 22 33.5 64.5t12.5 84.5q0 53 -28.5 79t-90.5 26h-94zM41 0l146 687h151q88 0 133 -42t45 -116q0 -55 -18.5 -106.5t-48.5 -81.5q-56 -57 -166 -57h-121l-60 -284h-61z"/>
<glyph glyph-name="Q" horiz-adv-x="603" unicode="Q" d="M270 40q106 0 164 115q32 62 53.5 153t22.5 164q-2 175 -139 175q-55 0 -94.5 -29t-71.5 -90q-33 -64 -55 -155.5t-22 -161.5q0 -171 142 -171zM478 108q-58 -90 -155 -107l181 -56l-24 -59l-284 113q-131 51 -131 222q0 84 27 183t68 165q78 127 212 127q99 0 150 -61.5 t51 -173.5q0 -87 -27 -186.5t-68 -166.5z"/>
<glyph glyph-name="R" horiz-adv-x="539" unicode="R" d="M178 356h107q80 0 116 37q21 21 33.5 59.5t12.5 76.5q0 104 -120 104h-90zM41 0l146 687h146q85 0 131.5 -42t46.5 -115q0 -90 -43.5 -146t-121.5 -67q48 -21 64 -105l41 -212h-62l-39 203q-12 59 -35.5 80t-68.5 21h-79l-65 -304h-61z"/>
<glyph glyph-name="S" horiz-adv-x="479" unicode="S" d="M204 -10q-62 0 -117 24.5t-90 61.5l28 47q83 -80 177 -80q72 0 108.5 40t36.5 105q0 49 -25 81.5t-85 70.5q-62 39 -90.5 79t-28.5 99q0 84 51 131t136 47q102 0 171 -59l-25 -47q-64 55 -148 55q-58 0 -91.5 -32t-33.5 -92q0 -42 21 -70.5t74 -61.5q70 -44 103.5 -88.5 t33.5 -110.5q0 -85 -50 -142.5t-156 -57.5z"/>
<glyph glyph-name="T" horiz-adv-x="483" unicode="T" d="M156 0l135 634h-165l11 53h390l-11 -53h-163l-135 -634h-62z"/>
<glyph glyph-name="U" horiz-adv-x="593" unicode="U" d="M220 -10q-65 0 -106 36t-41 111q0 33 7 68l103 482h61l-103 -482q-8 -42 -8 -67q0 -50 23.5 -72t72.5 -22q90 0 177 77l121 566h61l-146 -687h-41v71q-89 -81 -181 -81z"/>
<glyph glyph-name="V" horiz-adv-x="530" unicode="V" d="M177 0l-55 687h63l35 -467q4 -57 4 -117v-29h1q30 75 63 141l237 472h65l-350 -687h-63z"/>
<glyph glyph-name="W" horiz-adv-x="774" unicode="W" d="M125 0l1 687h62l-3 -447q-1 -106 -8 -181h2q29 84 67 174l199 454h71l3 -455v-16q0 -69 -8 -157h1q19 57 69 182l186 446h63l-291 -687h-79l-2 445q0 102 7 165h-2q-30 -89 -61 -163l-198 -447h-79z"/>
<glyph glyph-name="X" horiz-adv-x="520" unicode="X" d="M-30 0l279 377l-98 310h65l77 -262l189 262h69l-230 -315l118 -372h-64l-97 326l-238 -326h-70z"/>
<glyph glyph-name="Y" horiz-adv-x="523" unicode="Y" d="M174 0l58 271l-106 416h66l63 -268q13 -59 17 -95q26 51 55 95l177 268h69l-280 -419l-57 -268h-62z"/>
<glyph glyph-name="Z" horiz-adv-x="467" unicode="Z" d="M-12 0l11 48l429 586h-289l11 53h362l-11 -50l-428 -584h303l-12 -53h-376z"/>
<glyph glyph-name="bracketleft" horiz-adv-x="297" unicode="[" d="M1 -154l189 888h162l-10 -48h-103l-168 -793h103l-11 -47h-162z"/>
<glyph glyph-name="backslash" horiz-adv-x="347" unicode="\" d="M238 -146l-146 905h55l146 -905h-55z"/>
<glyph glyph-name="bracketright" horiz-adv-x="298" unicode="]" d="M-42 -154l11 47h102l169 793h-103l10 48h162l-189 -888h-162z"/>
<glyph glyph-name="asciicircum" horiz-adv-x="454" unicode="^" d="M103 450l193 258h52l86 -258h-56l-65 199l-149 -199h-61z"/>
<glyph glyph-name="underscore" horiz-adv-x="295" unicode="_" d="M-79 -127l11 52h289l-11 -52h-289z"/>
<glyph glyph-name="grave" horiz-adv-x="482" unicode="`" d="M360 541l-160 99l39 50l146 -115z"/>
<glyph glyph-name="a" d="M165 39q61 0 143 71l58 273q-47 55 -108 55q-67 0 -107 -68q-24 -42 -40 -110t-16 -119q0 -102 70 -102zM156 -10q-54 0 -86.5 38t-32.5 116q0 60 17 129t46 118q57 97 154 97q72 0 125 -63l27 53h39l-78 -366q-12 -53 -13 -112h-49v67q-81 -77 -149 -77z" unicode="a"/>
<glyph glyph-name="b" horiz-adv-x="489" unicode="b" d="M220 38q71 0 110 65q24 43 40.5 113.5t16.5 121.5q0 99 -71 99q-68 0 -149 -70l-59 -274q47 -55 112 -55zM228 -10q-79 0 -131 66l-27 -56h-39l152 715h58l-64 -298q77 71 152 71q54 0 85 -37t31 -114q0 -63 -17.5 -134t-47.5 -122q-55 -91 -152 -91z"/>
<glyph glyph-name="c" horiz-adv-x="416" unicode="c" d="M194 -9q-71 0 -114 43.5t-43 129.5q0 54 15.5 112.5t40.5 100.5q62 111 178 111q74 0 126 -50l-29 -42q-51 44 -102 44q-83 0 -127 -95q-42 -93 -42 -187q0 -65 25.5 -92.5t77.5 -27.5q54 0 121 52l22 -40q-66 -59 -149 -59z"/>
<glyph glyph-name="d" horiz-adv-x="489" unicode="d" d="M165 39q67 0 149 71l58 273q-47 55 -114 55t-106 -68q-25 -43 -41.5 -111t-16.5 -119q0 -101 71 -101zM156 -10q-120 0 -120 152q0 60 17.5 129.5t46.5 119.5q58 97 155 97q75 0 126 -59l61 286h58l-128 -603q-12 -53 -13 -112h-48v67q-81 -77 -155 -77z"/>
<glyph glyph-name="e" horiz-adv-x="429" unicode="e" d="M143 351q-20 -38 -33 -96q233 2 233 114q0 73 -74 73q-78 0 -126 -91zM187 -10q-70 0 -109.5 43.5t-39.5 126.5q0 55 16.5 115.5t42.5 104.5q30 51 75.5 79.5t99.5 28.5q64 0 97 -33t33 -82q0 -162 -300 -164q-4 -27 -4 -57q0 -60 23 -87.5t73 -27.5q64 0 133 52l15 -43 q-69 -56 -155 -56z"/>
<glyph glyph-name="f" horiz-adv-x="284" unicode="f" d="M71 432l11 46h58l23 122q24 122 131 122q48 0 78 -22l-16 -43q-29 18 -63 18q-58 0 -73 -80l-23 -117h93l-10 -46h-92l-70 -364q-15 -79 -40 -122.5t-81 -76.5l-28 40q36 24 58 60.5t37 113.5l67 349h-60z"/>
<glyph glyph-name="g" horiz-adv-x="489" unicode="g" d="M165 39q67 0 149 71l58 273q-47 55 -114 55t-106 -68q-25 -43 -41.5 -111t-16.5 -119q0 -101 71 -101zM168 -211q-86 0 -172 52l16 43q84 -48 156 -48q87 0 108 94l28 130q-78 -70 -148 -70q-120 0 -120 152q0 60 17.5 129.5t46.5 119.5q58 97 155 97q77 0 130 -63l27 53 h38l-117 -552q-16 -75 -57 -106t-108 -31z"/>
<glyph glyph-name="h" horiz-adv-x="489" unicode="h" d="M31 0l152 715h58l-65 -305q91 78 161 78q44 0 69 -26t25 -72q0 -16 -5 -43l-73 -347h-58l73 343q4 19 4 38q0 55 -52 55q-58 0 -153 -70l-78 -366h-58z"/>
<glyph glyph-name="i" horiz-adv-x="259" unicode="i" d="M213 590q-19 0 -31 12.5t-12 31.5t12 31.5t31 12.5t31.5 -12.5t12.5 -31.5q0 -20 -12.5 -32t-31.5 -12zM56 0l91 431l-62 9l7 38h123l-102 -478h-57z"/>
<glyph glyph-name="j" horiz-adv-x="259" unicode="j" d="M213 590q-19 0 -31 12.5t-12 31.5t12 31.5t31 12.5t31.5 -12.5t12.5 -31.5q0 -20 -12.5 -32t-31.5 -12zM-36 -208l-17 40q46 26 68 53.5t34 84.5l98 461l-62 9l7 38h123l-109 -511q-17 -79 -47.5 -112.5t-94.5 -62.5z"/>
<glyph glyph-name="k" horiz-adv-x="440" unicode="k" d="M305 0l-138 271l209 207h68l-214 -213l135 -265h-60zM31 0l152 715h58l-152 -715h-58z"/>
<glyph glyph-name="l" horiz-adv-x="250" unicode="l" d="M52 90l133 625h58l-136 -639q-2 -12 -2 -16q0 -23 26 -23q11 0 27 4v-41q-20 -8 -43 -8q-67 0 -67 65q0 14 4 33z"/>
<glyph glyph-name="m" horiz-adv-x="724" unicode="m" d="M31 0l81 379q8 38 10 99h47v-68q91 78 161 78q75 0 85 -78q94 78 164 78q42 0 64.5 -24.5t22.5 -68.5q0 -24 -5 -48l-74 -347h-57l72 343q6 25 6 44q0 49 -46 49q-56 0 -145 -65l-79 -371h-58l73 343q6 27 6 45q0 48 -46 48q-34 0 -66 -15.5t-79 -49.5l-79 -371h-58z"/>
<glyph glyph-name="n" horiz-adv-x="489" unicode="n" d="M426 347l-73 -347h-58l73 343q5 23 5 38q0 55 -53 55q-58 0 -153 -70l-78 -366h-58l81 379q8 38 10 99h47v-72q96 82 168 82q44 0 69 -26t25 -72q0 -16 -5 -43z"/>
<glyph glyph-name="o" horiz-adv-x="473" unicode="o" d="M203 37q82 0 124 92q40 83 40 189q0 123 -105 123q-41 0 -70.5 -20t-53.5 -69q-18 -37 -29.5 -90.5t-11.5 -98.5q0 -126 106 -126zM201 -9q-75 0 -119 45.5t-44 131.5q0 55 15 114t40 101q60 104 173 104q74 0 117 -44.5t43 -129.5q0 -121 -53 -215q-58 -107 -172 -107z "/>
<glyph glyph-name="p" horiz-adv-x="489" unicode="p" d="M220 38q71 0 110 65q24 43 40.5 113.5t16.5 121.5q0 99 -71 99q-68 0 -149 -70l-59 -274q47 -55 112 -55zM-12 -203l124 584q8 38 10 99h48v-68q84 76 159 76q54 0 85 -37t31 -114q0 -63 -17.5 -134t-47.5 -122q-55 -91 -152 -91q-77 0 -128 62l-55 -255h-57z"/>
<glyph glyph-name="q" horiz-adv-x="489" unicode="q" d="M165 39q67 0 149 71l58 273q-47 55 -114 55t-106 -68q-25 -43 -41.5 -111t-16.5 -119q0 -101 71 -101zM247 -204l57 264q-78 -70 -148 -70q-120 0 -120 152q0 60 17.5 129.5t46.5 119.5q58 97 155 97q77 0 130 -63l27 53h38l-145 -682h-58z"/>
<glyph glyph-name="r" horiz-adv-x="330" unicode="r" d="M31 0l81 379q8 38 10 99h48v-80q80 87 157 87h2v-63h-5q-81 0 -160 -70l-75 -352h-58z"/>
<glyph glyph-name="s" horiz-adv-x="391" unicode="s" d="M157 -10q-90 0 -151 53l21 42q63 -48 131 -48q46 0 73 23t27 65q0 36 -17.5 55.5t-66.5 48.5q-24 15 -35.5 23.5t-27.5 24.5t-23 36t-7 46q0 61 41 95t100 34q70 0 124 -41l-19 -43q-54 37 -105 37q-86 0 -86 -80q0 -30 15 -46.5t59 -43.5q29 -18 44 -28.5t31.5 -27.5 t23 -38t6.5 -49q0 -66 -44 -102t-114 -36z"/>
<glyph glyph-name="t" horiz-adv-x="293" unicode="t" d="M74 432l10 46h57l27 128l60 12l-30 -140h97l-10 -46h-97l-73 -344q-2 -9 -2 -21q0 -30 31 -30q20 0 60 16v-44q-38 -19 -68 -19q-38 0 -59 19.5t-21 54.5q0 13 3 28l72 340h-57z"/>
<glyph glyph-name="u" horiz-adv-x="490" unicode="u" d="M143 -10q-44 0 -69.5 26t-25.5 73q0 17 5 42l74 347h58l-74 -343q-4 -19 -4 -37q0 -56 53 -56q59 0 153 69l78 367h58l-78 -366q-12 -53 -13 -112h-49v71q-94 -81 -166 -81z"/>
<glyph glyph-name="v" horiz-adv-x="436" unicode="v" d="M134 0l-52 478h58l27 -291q7 -77 7 -140h1q31 82 57 132l154 299h61l-254 -478h-59z"/>
<glyph glyph-name="w" horiz-adv-x="653" unicode="w" d="M105 0l-21 478h58l9 -294v-42q0 -68 -1 -76h2q1 2 9 22.5t17.5 44.5t18.5 42l145 303h63l14 -295q1 -19 1 -61q0 -50 -1 -56h2q1 1 17.5 44.5t27.5 66.5l137 301h61l-226 -478h-61l-15 311q-2 46 -2 69q0 8 0.5 21t0.5 17h-1q-15 -43 -41 -100l-154 -318h-60z"/>
<glyph glyph-name="x" horiz-adv-x="428" unicode="x" d="M-23 0l206 260l-82 218h62l34 -99q14 -41 24 -82h2q21 34 55 81l74 100h68l-175 -224l95 -254h-61l-44 123q-22 60 -28 87h-1q-21 -33 -63 -86l-98 -124h-68z"/>
<glyph glyph-name="y" horiz-adv-x="443" unicode="y" d="M-18 -208l-11 45q69 21 106.5 55.5t71.5 107.5h-18l-47 478h58l27 -306q7 -80 7 -115v-14h1q13 34 62 132l152 303h62l-263 -510q-45 -87 -87.5 -122.5t-120.5 -53.5z"/>
<glyph glyph-name="z" horiz-adv-x="411" unicode="z" d="M-3 0l12 54l321 376h-226l10 48h290l-11 -54l-321 -376h249l-10 -48h-314z"/>
<glyph glyph-name="braceleft" horiz-adv-x="360" unicode="{" d="M168 -154q-45 0 -72 22.5t-27 66.5q0 15 4 34l45 207q4 17 4 33q0 56 -77 56l11 53q50 0 74 17t34 62l48 226q23 111 125 111h77l-10 -48h-67q-31 0 -45.5 -16t-22.5 -56l-49 -226q-10 -50 -30.5 -70t-56.5 -29v-2q47 -19 47 -73q0 -14 -5 -41l-43 -206q-4 -16 -4 -30 q0 -44 49 -44h58l-10 -47h-57z"/>
<glyph glyph-name="bar" horiz-adv-x="237" unicode="|" d="M104 -146v905h49v-905h-49z"/>
<glyph glyph-name="braceright" horiz-adv-x="360" unicode="}" d="M-42 -154l11 47h66q31 0 46 16t23 56l49 229q10 50 31 69.5t57 29.5v2q-48 17 -48 72q0 14 5 41l43 204q4 16 4 31q0 43 -49 43h-59l10 48h57q45 0 72 -22.5t27 -66.5q0 -16 -4 -35l-43 -204q-4 -17 -4 -34q0 -30 18 -43t58 -13l-11 -53q-50 0 -74 -16.5t-34 -61.5 l-48 -229q-23 -110 -126 -110h-77z"/>
<glyph glyph-name="asciitilde" horiz-adv-x="475" unicode="~" d="M113 270l-35 23q49 88 112 88q30 0 71 -25.5t60 -25.5t35 14t35 42l35 -22q-51 -88 -113 -88q-30 0 -71 25t-60 25q-20 0 -35 -13.5t-34 -42.5z"/>
<glyph glyph-name="uni00A0" horiz-adv-x="196" unicode=" "/>
<glyph glyph-name="exclamdown" horiz-adv-x="244" unicode="¡" d="M160 385q-22 0 -36 14t-14 36q0 21 14 35.5t36 14.5q20 0 34.5 -14.5t14.5 -35.5t-14.5 -35.5t-34.5 -14.5zM-11 -208l122 501h46l-98 -501h-70z"/>
<glyph glyph-name="cent" horiz-adv-x="424" unicode="¢" d="M102 158q0 -100 67 -116l85 397q-49 -4 -83 -55q-28 -36 -48.5 -102.5t-20.5 -123.5zM136 -115l23 110q-116 24 -116 169q0 72 26.5 145.5t63.5 114.5q52 59 131 64l24 112h44l-24 -115q52 -8 95 -51l-25 -42q-38 38 -81 46l-85 -400q51 2 115 53l18 -43 q-64 -56 -143 -57l-22 -106h-44z"/>
<glyph glyph-name="sterling" horiz-adv-x="495" unicode="£" d="M62 293l11 51h71q-8 58 -8 93q0 105 58.5 156.5t142.5 51.5q87 0 160 -62l-25 -45q-69 56 -138 56q-61 0 -99 -39t-38 -116q0 -33 8 -95h186l-11 -51h-169q4 -36 4 -53q0 -127 -108 -189h293l-11 -51h-371l11 55q68 31 98 74t30 108q0 24 -5 56h-90z"/>
<glyph glyph-name="currency" horiz-adv-x="505" unicode="¤" d="M242 147q106 0 133 155q6 34 6 61q0 108 -98 108q-104 0 -132 -156q-6 -35 -6 -61q0 -107 97 -107zM41 60l-34 37l92 88q-14 34 -14 79q0 97 53 175l-59 84l42 33l53 -77q50 39 110 39q75 0 116 -44l85 82l33 -37l-91 -88q15 -31 15 -78q0 -96 -54 -176l59 -84l-43 -32 l-53 76q-51 -37 -115 -37q-68 0 -109 43z"/>
<glyph glyph-name="yen" horiz-adv-x="558" unicode="¥" d="M46 167l11 46h182l8 38l-18 63h-151l10 47h129l-75 274h65l62 -244q10 -39 16 -97q40 72 57 97l166 244h68l-191 -274h129l-10 -47h-151l-44 -63l-8 -38h181l-10 -46h-181l-36 -167h-62l36 167h-183z"/>
<glyph glyph-name="brokenbar" horiz-adv-x="232" unicode="¦" d="M5 -146l85 396h48l-85 -396h-48zM113 361l85 398h48l-85 -398h-48z"/>
<glyph glyph-name="section" horiz-adv-x="531" unicode="§" d="M273 127q134 9 134 116q0 36 -23.5 58.5t-74.5 47.5q-45 22 -56 29q-66 -4 -100 -33t-34 -76q0 -38 23.5 -63t79.5 -52q36 -18 51 -27zM206 411q-39 36 -39 91q0 64 41.5 103.5t118.5 39.5q88 0 151 -54l-28 -44q-59 49 -124 49q-52 0 -76.5 -24.5t-24.5 -65.5 q0 -34 23.5 -56t79.5 -48q67 -30 103 -65t36 -91q0 -132 -149 -151q48 -42 48 -101q0 -69 -45 -110.5t-120 -41.5q-55 0 -100.5 19.5t-71.5 44.5l25 45q70 -60 148 -60q50 0 76.5 27t26.5 73q0 35 -28 61.5t-86 54.5q-64 31 -97.5 66t-33.5 91q0 58 36.5 96.5t109.5 50.5z "/>
<glyph glyph-name="dieresis" horiz-adv-x="529" unicode="¨" d="M419 554q-18 0 -31 12.5t-13 30.5q0 19 12.5 31.5t30.5 12.5t30.5 -12.5t12.5 -31.5t-12.5 -31t-29.5 -12zM255 554q-18 0 -30.5 12.5t-12.5 30.5q0 19 12.5 31.5t30.5 12.5t30.5 -12.5t12.5 -31.5t-12.5 -31t-30.5 -12z"/>
<glyph glyph-name="copyright" horiz-adv-x="705" unicode="©" d="M342 124q-63 0 -97 39.5t-34 114.5q0 56 19 121t48 104q48 66 127 66q68 0 110 -44l-30 -37q-35 35 -81 35q-54 0 -85 -51q-20 -35 -35.5 -94.5t-15.5 -104.5q0 -54 18.5 -78.5t59.5 -24.5q49 0 94 35l21 -39q-52 -42 -119 -42zM333 25q121 0 201 103q42 53 68 138 t26 161q0 114 -56 179t-158 65q-128 0 -209 -109q-40 -55 -65.5 -136.5t-25.5 -155.5q0 -113 57 -179t162 -66zM330 -12q-122 0 -191.5 76t-69.5 206q0 82 29 170t77 147q96 121 242 121q118 0 187 -76.5t69 -204.5q0 -88 -29.5 -176.5t-79.5 -148.5q-91 -114 -234 -114z "/>
<glyph glyph-name="ordfeminine" horiz-adv-x="444" unicode="ª" d="M190 235q53 0 128 64l53 250q-43 49 -97 49q-63 0 -96 -61q-22 -39 -36.5 -100.5t-14.5 -108.5q0 -93 63 -93zM180 190q-49 0 -79 34.5t-30 105.5q0 55 16 118t42 108q52 88 141 88q64 0 113 -57l24 48h38l-71 -334q-11 -52 -12 -103h-46v63q-73 -71 -136 -71z"/>
<glyph glyph-name="guillemotleft" horiz-adv-x="457" unicode="«" d="M143 41l-89 212l172 199l39 -30l-149 -178l75 -182zM309 41l-90 212l173 199l38 -30l-148 -178l75 -182z"/>
<glyph glyph-name="logicalnot" horiz-adv-x="449" unicode="¬" d="M293 157l30 141h-242l11 51h298l-41 -192h-56z"/>
<glyph glyph-name="uni00AD" horiz-adv-x="284" unicode="­" d="M50 239l12 59h175l-12 -59h-175z"/>
<glyph glyph-name="registered" horiz-adv-x="528" unicode="®" d="M274 475h36q52 0 52 54q0 36 -37 36h-32zM198 321l59 282h73q36 0 56 -20t20 -52q0 -69 -66 -82q18 -7 24 -49l12 -79h-43l-11 81q-3 23 -10 30.5t-22 7.5h-24l-25 -119h-43zM280 248q86 0 137 68q27 36 43 91t16 106q0 74 -37 115t-103 41q-71 0 -116 -41 q-38 -34 -61 -96.5t-23 -128.5q0 -75 37.5 -115t106.5 -40zM280 211q-85 0 -135 51.5t-50 144.5q0 76 29 144.5t78 107.5q57 48 134 48q83 0 132.5 -52.5t49.5 -143.5q0 -61 -20 -120.5t-54 -100.5q-65 -79 -164 -79z"/>
<glyph glyph-name="macron" horiz-adv-x="530" unicode="¯" d="M223 591l11 50h224l-11 -50h-224z"/>
<glyph glyph-name="degree" horiz-adv-x="365" unicode="°" d="M224 413q56 0 83 51q25 42 25 106q0 41 -20.5 61t-54.5 20q-51 0 -78 -41q-31 -42 -31 -113q0 -42 21 -63t55 -21zM222 373q-57 0 -91.5 35t-34.5 96q0 72 41 127q45 61 122 61q58 0 92 -35.5t34 -95.5q0 -68 -35 -120q-45 -68 -128 -68z"/>
<glyph glyph-name="plusminus" horiz-adv-x="511" unicode="±" d="M23 30l11 51h368l-11 -51h-368zM202 138l31 144h-156l11 50h156l34 159h56l-34 -159h155l-10 -50h-156l-30 -144h-57z"/>
<glyph glyph-name="twosuperior" horiz-adv-x="315" unicode="²" d="M19 217l10 45q142 87 193 150t51 119q0 30 -17.5 49t-50.5 19q-43 0 -90 -21l-15 35q53 29 113 29q52 0 83 -30t31 -77q0 -66 -54.5 -132t-184.5 -144h189l-9 -42h-249z"/>
<glyph glyph-name="threesuperior" horiz-adv-x="302" unicode="³" d="M137 174q-72 0 -133 36l15 37q56 -31 114 -31q52 0 79.5 30.5t27.5 80.5q0 76 -81 76h-37l9 41h34q101 0 101 90q0 30 -19.5 48t-55.5 18q-41 0 -90 -22l-13 36q54 28 110 28t88.5 -28t32.5 -76t-25.5 -77.5t-67.5 -38.5q31 -10 50 -35t19 -62q0 -67 -42 -109t-116 -42z "/>
<glyph glyph-name="acute" horiz-adv-x="480" unicode="´" d="M241 541l-18 35l172 116l29 -56z"/>
<glyph glyph-name="mu" horiz-adv-x="485" unicode="µ" d="M366 79q-2 -14 -2 -18q0 -24 19 -24q8 0 24 4v-41q-20 -8 -49 -8q-49 0 -49 52q0 14 5 37q-60 -91 -140 -91q-55 0 -79 31l-48 -225h-59l145 682h59l-83 -389q20 -51 84 -51q48 0 88.5 51.5t54.5 116.5l58 272h57l-76 -353q-6 -26 -9 -46z"/>
<glyph glyph-name="paragraph" horiz-adv-x="508" unicode="¶" d="M153 -87l97 454h-6q-61 0 -96.5 37.5t-35.5 98.5q0 85 53 134.5t141 49.5h202l-164 -774h-56l154 724h-80l-153 -724h-56z"/>
<glyph glyph-name="periodcentered" horiz-adv-x="235" unicode="·" d="M135 288q-21 0 -36 14.5t-15 35.5q0 22 15 36.5t36 14.5t35.5 -14.5t14.5 -36.5q0 -21 -14.5 -35.5t-35.5 -14.5z"/>
<glyph glyph-name="cedilla" horiz-adv-x="529" unicode="¸" d="M186 -204q-41 0 -71 25l19 33q26 -18 53 -18q42 0 42 42q0 35 -38 35q-20 0 -35 -4l57 101h44l-39 -63q57 -9 57 -70q0 -37 -22 -59t-67 -22z"/>
<glyph glyph-name="onesuperior" horiz-adv-x="277" unicode="¹" d="M37 220l9 40h83l67 319l-88 -39l-12 26l127 78h41l-81 -384h78l-9 -40h-215z"/>
<glyph glyph-name="ordmasculine" horiz-adv-x="438" unicode="º" d="M227 234q73 0 112 83q36 77 36 173q0 109 -95 109q-37 0 -63 -17.5t-47 -60.5q-38 -78 -38 -173q0 -114 95 -114zM225 189q-68 0 -108.5 42.5t-40.5 120.5q0 114 49 197q56 95 160 95q67 0 107 -41t40 -118q0 -109 -48 -196q-56 -100 -159 -100z"/>
<glyph glyph-name="guillemotright" horiz-adv-x="458" unicode="»" d="M61 41l-39 30l148 179l-75 182l49 20l89 -212zM227 41l-39 30l148 179l-75 182l49 20l89 -212z"/>
<glyph glyph-name="onequarter" horiz-adv-x="868" unicode="¼" d="M491 65l9 47l200 306h56l-203 -309h163l39 181l56 10l-41 -191h50l-10 -44h-50l-21 -102h-53l21 102h-216zM157 0l488 635h57l-488 -635h-57zM37 220l9 40h83l67 319l-88 -39l-12 26l127 78h41l-81 -384h78l-9 -40h-215z"/>
<glyph glyph-name="onehalf" horiz-adv-x="872" unicode="½" d="M527 -3l10 45q142 87 193 150t51 119q0 30 -17.5 49t-50.5 19q-43 0 -90 -21l-15 35q53 29 113 29q52 0 83 -30t31 -77q0 -66 -54.5 -132t-184.5 -144h189l-9 -42h-249zM157 0l488 635h57l-488 -635h-57zM37 220l9 40h83l67 319l-88 -39l-12 26l127 78h41l-81 -384h78 l-9 -40h-215z"/>
<glyph glyph-name="threequarters" horiz-adv-x="893" unicode="¾" d="M516 65l9 47l200 306h56l-203 -309h163l39 181l56 10l-41 -191h50l-10 -44h-50l-21 -102h-53l21 102h-216zM182 0l488 635h57l-488 -635h-57zM137 174q-72 0 -133 36l15 37q56 -31 114 -31q52 0 79.5 30.5t27.5 80.5q0 76 -81 76h-37l9 41h34q101 0 101 90q0 30 -19.5 48 t-55.5 18q-41 0 -90 -22l-13 36q54 28 110 28t88.5 -28t32.5 -76t-25.5 -77.5t-67.5 -38.5q31 -10 50 -35t19 -62q0 -67 -42 -109t-116 -42z"/>
<glyph glyph-name="questiondown" horiz-adv-x="414" unicode="¿" d="M271 385q-22 0 -36 14t-14 36q0 21 14 35.5t36 14.5q20 0 34.5 -14.5t14.5 -35.5t-14 -35.5t-35 -14.5zM137 -217q-68 0 -108.5 35.5t-40.5 98.5q0 19 2 35t8 30t9.5 24t15.5 22t16 17.5t20 16.5t19 13t22.5 13.5t21.5 12.5q38 24 53.5 44.5t24.5 61.5l19 86h53l-21 -97 q-12 -56 -36.5 -84.5t-66.5 -53.5q-29 -17 -39.5 -24.5t-28.5 -24.5t-24.5 -39t-6.5 -53q0 -83 91 -83q59 0 123 31l13 -45q-65 -37 -139 -37z"/>
<glyph glyph-name="Agrave" horiz-adv-x="540" unicode="À" d="M418 730l-160 99l39 50l146 -115zM282 477l-104 -204h193l-15 195q-5 83 -5 126q0 8 0.5 21t0.5 19h-1q-20 -61 -69 -157zM-26 0l356 687h67l59 -687h-63l-18 222h-223l-113 -222h-65z"/>
<glyph glyph-name="Aacute" horiz-adv-x="540" unicode="Á" d="M306 730l-18 35l172 116l29 -56zM282 477l-104 -204h193l-15 195q-5 83 -5 126q0 8 0.5 21t0.5 19h-1q-20 -61 -69 -157zM-26 0l356 687h67l59 -687h-63l-18 222h-223l-113 -222h-65z"/>
<glyph glyph-name="Acircumflex" horiz-adv-x="540" unicode="Â" d="M265 735l-23 28l131 118h37l89 -121l-30 -25l-84 85zM282 477l-104 -204h193l-15 195q-5 83 -5 126q0 8 0.5 21t0.5 19h-1q-20 -61 -69 -157zM-26 0l356 687h67l59 -687h-63l-18 222h-223l-113 -222h-65z"/>
<glyph glyph-name="Atilde" horiz-adv-x="540" unicode="Ã" d="M264 747l-30 22q38 70 89 70q23 0 56.5 -18.5t49.5 -18.5t26.5 9.5t26.5 30.5l31 -22q-39 -71 -90 -71q-23 0 -56.5 18.5t-49.5 18.5q-4 0 -7.5 -0.5t-7 -2t-6 -2.5t-6 -4t-5.5 -4.5t-5.5 -6t-4.5 -6t-5.5 -6.5t-5.5 -7zM282 477l-104 -204h193l-15 195q-5 83 -5 126 q0 8 0.5 21t0.5 19h-1q-20 -61 -69 -157zM-26 0l356 687h67l59 -687h-63l-18 222h-223l-113 -222h-65z"/>
<glyph glyph-name="Adieresis" horiz-adv-x="540" unicode="Ä" d="M451 743q-18 0 -30.5 12.5t-12.5 30.5q0 19 12.5 31.5t30.5 12.5t30.5 -12.5t12.5 -31.5t-12.5 -31t-30.5 -12zM287 743q-18 0 -30.5 12.5t-12.5 30.5q0 19 12.5 31.5t30.5 12.5t30.5 -12.5t12.5 -31.5t-12.5 -31t-30.5 -12zM282 477l-104 -204h193l-15 195q-5 83 -5 126 q0 8 0.5 21t0.5 19h-1q-20 -61 -69 -157zM-26 0l356 687h67l59 -687h-63l-18 222h-223l-113 -222h-65z"/>
<glyph glyph-name="Aring" horiz-adv-x="540" unicode="Å" d="M375 767q40 0 51 53q2 10 2 20q0 43 -38 43q-41 0 -51 -54q-2 -14 -2 -19q0 -43 38 -43zM376 732q-38 0 -59 23.5t-21 58.5q0 7 2 21q6 35 31 59t61 24q38 0 59 -24t21 -60q0 -7 -2 -19q-6 -36 -31 -59.5t-61 -23.5zM282 477l-104 -204h193l-15 195q-5 83 -5 126 q0 8 0.5 21t0.5 19h-1q-20 -61 -69 -157zM-26 0l356 687h67l59 -687h-63l-18 222h-223l-113 -222h-65z"/>
<glyph glyph-name="AE" horiz-adv-x="816" unicode="Æ" d="M406 492l-169 -226h189l46 214q14 66 37 161h-2q-39 -66 -101 -149zM-27 0l514 687h356l-11 -52h-265l-53 -248h217l-10 -51h-217l-61 -284h281l-11 -52h-343l45 214h-216l-159 -214h-67z"/>
<glyph glyph-name="Ccedilla" horiz-adv-x="523" unicode="Ç" d="M183 -204q-41 0 -71 25l19 33q26 -18 53 -18q42 0 42 42q0 35 -38 35q-20 0 -35 -4l51 89q-139 35 -139 218q-1 79 22.5 172t59.5 160q80 148 228 148q99 0 166 -64l-35 -42q-61 55 -133 55q-112 0 -170 -120q-31 -61 -52.5 -151.5t-21.5 -161.5q0 -86 35.5 -128 t112.5 -42q72 0 151 51l17 -50q-81 -53 -172 -53q-11 0 -31 2l-27 -45q57 -9 57 -70q0 -37 -22 -59t-67 -22z"/>
<glyph glyph-name="Egrave" d="M410 730l-160 99l39 50l146 -115zM40 0l146 687h327l-11 -52h-265l-53 -248h217l-11 -51h-216l-61 -284h281l-11 -52h-343z" unicode="È"/>
<glyph glyph-name="Eacute" d="M294 730l-18 35l172 116l29 -56zM40 0l146 687h327l-11 -52h-265l-53 -248h217l-11 -51h-216l-61 -284h281l-11 -52h-343z" unicode="É"/>
<glyph glyph-name="Ecircumflex" d="M250 735l-23 28l131 118h37l89 -121l-30 -25l-84 85zM40 0l146 687h327l-11 -52h-265l-53 -248h217l-11 -51h-216l-61 -284h281l-11 -52h-343z" unicode="Ê"/>
<glyph glyph-name="Edieresis" d="M440 743q-18 0 -30.5 12.5t-12.5 30.5q0 19 12.5 31.5t30.5 12.5t30.5 -12.5t12.5 -31.5t-12.5 -31t-30.5 -12zM276 743q-18 0 -30.5 12.5t-12.5 30.5q0 19 12.5 31.5t30.5 12.5t30.5 -12.5t12.5 -31.5t-12.5 -31t-30.5 -12zM40 0l146 687h327l-11 -52h-265l-53 -248h217 l-11 -51h-216l-61 -284h281l-11 -52h-343z" unicode="Ë"/>
<glyph glyph-name="Igrave" horiz-adv-x="310" unicode="Ì" d="M318 730l-160 99l39 50l146 -115zM-1 0l8 33l69 7l129 606l-66 8l6 33h201l-7 -33l-72 -8l-129 -607l69 -6l-7 -33h-201z"/>
<glyph glyph-name="Iacute" horiz-adv-x="310" unicode="Í" d="M189 730l-18 35l172 116l29 -56zM-1 0l8 33l69 7l129 606l-66 8l6 33h201l-7 -33l-72 -8l-129 -607l69 -6l-7 -33h-201z"/>
<glyph glyph-name="Icircumflex" horiz-adv-x="310" unicode="Î" d="M151 735l-23 28l131 118h37l89 -121l-30 -25l-84 85zM-1 0l8 33l69 7l129 606l-66 8l6 33h201l-7 -33l-72 -8l-129 -607l69 -6l-7 -33h-201z"/>
<glyph glyph-name="Idieresis" horiz-adv-x="310" unicode="Ï" d="M344 743q-18 0 -30.5 12.5t-12.5 30.5q0 19 12.5 31.5t30.5 12.5t30.5 -12.5t12.5 -31.5t-12.5 -31t-30.5 -12zM180 743q-18 0 -30.5 12.5t-12.5 30.5q0 19 12.5 31.5t30.5 12.5t30.5 -12.5t12.5 -31.5t-12.5 -31t-30.5 -12zM-1 0l8 33l69 7l129 606l-66 8l6 33h201 l-7 -33l-72 -8l-129 -607l69 -6l-7 -33h-201z"/>
<glyph glyph-name="Eth" horiz-adv-x="574" unicode="Ð" d="M111 52h101q67 0 108 20t70 67q38 51 64 151t26 181q0 84 -38 124.5t-123 40.5h-84l-57 -269h146l-12 -52h-145zM35 315l11 52h70l68 320h136q224 0 224 -218q0 -93 -29 -199t-75 -161q-40 -60 -95.5 -84.5t-138.5 -24.5h-168l67 315h-70z"/>
<glyph glyph-name="Ntilde" horiz-adv-x="591" unicode="Ñ" d="M293 747l-30 22q38 70 89 70q23 0 56.5 -18.5t49.5 -18.5t26.5 9.5t26.5 30.5l31 -22q-39 -71 -90 -71q-23 0 -56.5 18.5t-49.5 18.5q-4 0 -7.5 -0.5t-7 -2t-6 -2.5t-6 -4t-5.5 -4.5t-5.5 -6t-4.5 -6t-5.5 -6.5t-5.5 -7zM41 0l146 687h68l121 -469q20 -80 28 -148h1 q11 86 29 169l95 448h57l-146 -687h-67l-117 450q-24 95 -33 167h-1q-7 -67 -33 -188l-91 -429h-57z"/>
<glyph glyph-name="Ograve" horiz-adv-x="603" unicode="Ò" d="M465 730l-160 99l39 50l146 -115zM270 40q106 0 164 115q32 62 53.5 153t22.5 164q-2 175 -139 175q-55 0 -94.5 -29t-71.5 -90q-33 -64 -55 -155.5t-22 -161.5q0 -171 142 -171zM270 -10q-99 0 -152 60t-53 171q0 84 27 183t68 165q78 127 212 127q99 0 150 -61.5 t51 -173.5q0 -88 -27 -187t-68 -165q-76 -119 -208 -119z"/>
<glyph glyph-name="Oacute" horiz-adv-x="603" unicode="Ó" d="M347 730l-18 35l172 116l29 -56zM270 40q106 0 164 115q32 62 53.5 153t22.5 164q-2 175 -139 175q-55 0 -94.5 -29t-71.5 -90q-33 -64 -55 -155.5t-22 -161.5q0 -171 142 -171zM270 -10q-99 0 -152 60t-53 171q0 84 27 183t68 165q78 127 212 127q99 0 150 -61.5 t51 -173.5q0 -88 -27 -187t-68 -165q-76 -119 -208 -119z"/>
<glyph glyph-name="Ocircumflex" horiz-adv-x="603" unicode="Ô" d="M292 735l-23 28l131 118h37l89 -121l-30 -25l-84 85zM270 40q106 0 164 115q32 62 53.5 153t22.5 164q-2 175 -139 175q-55 0 -94.5 -29t-71.5 -90q-33 -64 -55 -155.5t-22 -161.5q0 -171 142 -171zM270 -10q-99 0 -152 60t-53 171q0 84 27 183t68 165q78 127 212 127 q99 0 150 -61.5t51 -173.5q0 -88 -27 -187t-68 -165q-76 -119 -208 -119z"/>
<glyph glyph-name="Otilde" horiz-adv-x="603" unicode="Õ" d="M296 747l-30 22q38 70 89 70q23 0 56.5 -18.5t49.5 -18.5t26.5 9.5t26.5 30.5l31 -22q-39 -71 -90 -71q-23 0 -56.5 18.5t-49.5 18.5q-4 0 -7.5 -0.5t-7 -2t-6 -2.5t-6 -4t-5.5 -4.5t-5.5 -6t-4.5 -6t-5.5 -6.5t-5.5 -7zM270 40q106 0 164 115q32 62 53.5 153t22.5 164 q-2 175 -139 175q-55 0 -94.5 -29t-71.5 -90q-33 -64 -55 -155.5t-22 -161.5q0 -171 142 -171zM270 -10q-99 0 -152 60t-53 171q0 84 27 183t68 165q78 127 212 127q99 0 150 -61.5t51 -173.5q0 -88 -27 -187t-68 -165q-76 -119 -208 -119z"/>
<glyph glyph-name="Odieresis" horiz-adv-x="603" unicode="Ö" d="M482 743q-18 0 -30.5 12.5t-12.5 30.5q0 19 12.5 31.5t30.5 12.5t30.5 -12.5t12.5 -31.5t-12.5 -31t-30.5 -12zM319 743q-18 0 -30.5 12.5t-12.5 30.5q0 19 12.5 31.5t30.5 12.5t30.5 -12.5t12.5 -31.5t-12.5 -31t-30.5 -12zM270 40q106 0 164 115q32 62 53.5 153 t22.5 164q-2 175 -139 175q-55 0 -94.5 -29t-71.5 -90q-33 -64 -55 -155.5t-22 -161.5q0 -171 142 -171zM270 -10q-99 0 -152 60t-53 171q0 84 27 183t68 165q78 127 212 127q99 0 150 -61.5t51 -173.5q0 -88 -27 -187t-68 -165q-76 -119 -208 -119z"/>
<glyph glyph-name="multiply" horiz-adv-x="476" unicode="×" d="M94 110l-32 37l148 139l-96 139l42 33l93 -136l144 136l32 -37l-148 -139l96 -139l-42 -33l-93 135z"/>
<glyph glyph-name="Oslash" horiz-adv-x="603" unicode="Ø" d="M270 40q106 0 164 115q32 62 54 153t23 164q0 36 -6 64l-347 -448q36 -48 112 -48zM127 211q0 -43 9 -75l349 453q-35 58 -114 58q-55 0 -94.5 -29t-71.5 -90q-33 -64 -55.5 -156t-22.5 -161zM40 -65l-37 29l92 119q-30 54 -30 138t27 183t68 165q78 127 212 127 q96 0 149 -61l79 103l37 -30l-89 -115q25 -53 25 -132q0 -88 -27 -187t-68 -165q-76 -119 -208 -119q-95 0 -146 53z"/>
<glyph glyph-name="Ugrave" horiz-adv-x="593" unicode="Ù" d="M434 730l-160 99l39 50l146 -115zM220 -10q-65 0 -106 36t-41 111q0 33 7 68l103 482h61l-103 -482q-8 -42 -8 -67q0 -50 23.5 -72t72.5 -22q90 0 177 77l121 566h61l-146 -687h-41v71q-89 -81 -181 -81z"/>
<glyph glyph-name="Uacute" horiz-adv-x="593" unicode="Ú" d="M346 730l-18 35l172 116l29 -56zM220 -10q-65 0 -106 36t-41 111q0 33 7 68l103 482h61l-103 -482q-8 -42 -8 -67q0 -50 23.5 -72t72.5 -22q90 0 177 77l121 566h61l-146 -687h-41v71q-89 -81 -181 -81z"/>
<glyph glyph-name="Ucircumflex" horiz-adv-x="593" unicode="Û" d="M290 735l-23 28l131 118h37l89 -121l-30 -25l-84 85zM220 -10q-65 0 -106 36t-41 111q0 33 7 68l103 482h61l-103 -482q-8 -42 -8 -67q0 -50 23.5 -72t72.5 -22q90 0 177 77l121 566h61l-146 -687h-41v71q-89 -81 -181 -81z"/>
<glyph glyph-name="Udieresis" horiz-adv-x="593" unicode="Ü" d="M478 743q-18 0 -30.5 12.5t-12.5 30.5q0 19 12.5 31.5t30.5 12.5t30.5 -12.5t12.5 -31.5t-12.5 -31t-30.5 -12zM314 743q-18 0 -30.5 12.5t-12.5 30.5q0 19 12.5 31.5t30.5 12.5t30.5 -12.5t12.5 -31.5t-12.5 -31t-30.5 -12zM220 -10q-65 0 -106 36t-41 111q0 33 7 68 l103 482h61l-103 -482q-8 -42 -8 -67q0 -50 23.5 -72t72.5 -22q90 0 177 77l121 566h61l-146 -687h-41v71q-89 -81 -181 -81z"/>
<glyph glyph-name="Yacute" horiz-adv-x="523" unicode="Ý" d="M306 730l-18 35l172 116l29 -56zM174 0l58 271l-106 416h66l63 -268q13 -59 17 -95q26 51 55 95l177 268h69l-280 -419l-57 -268h-62z"/>
<glyph glyph-name="Thorn" horiz-adv-x="515" unicode="Þ" d="M149 223h113q81 0 118 44q21 22 33.5 64.5t12.5 84.5q0 105 -119 105h-95zM41 0l146 687h61l-24 -114h90q89 0 133.5 -41.5t44.5 -116.5q0 -54 -18.5 -105.5t-48.5 -81.5q-57 -58 -166 -58h-121l-36 -170h-61z"/>
<glyph glyph-name="germandbls" horiz-adv-x="510" unicode="ß" d="M-18 -131l-27 40q35 23 56.5 59.5t37.5 114.5l98 455q37 175 178 175q63 0 98.5 -34.5t35.5 -89.5q0 -45 -21 -77.5t-45.5 -46.5t-45.5 -31t-21 -36q0 -22 33 -60q26 -32 39.5 -50.5t29 -55.5t15.5 -73q0 -81 -47.5 -124t-119.5 -43q-65 0 -109 29l15 44q42 -25 92 -25 q49 0 79 30.5t30 89.5q0 28 -12.5 57t-24.5 45.5t-35 44.5q-42 51 -42 87q0 22 10 39.5t24.5 28t32 23t32 25t24.5 33.5t10 48q0 75 -81 75q-49 0 -76.5 -32.5t-42.5 -104.5l-98 -461q-17 -80 -41.5 -123t-80.5 -76z"/>
<glyph glyph-name="agrave" d="M368 541l-160 99l39 50l146 -115zM165 39q61 0 143 71l58 273q-47 55 -108 55q-67 0 -107 -68q-24 -42 -40 -110t-16 -119q0 -102 70 -102zM156 -10q-54 0 -86.5 38t-32.5 116q0 60 17 129t46 118q57 97 154 97q72 0 125 -63l27 53h39l-78 -366q-12 -53 -13 -112h-49v67 q-81 -77 -149 -77z" unicode="à"/>
<glyph glyph-name="aacute" d="M240 541l-18 35l172 116l29 -56zM165 39q61 0 143 71l58 273q-47 55 -108 55q-67 0 -107 -68q-24 -42 -40 -110t-16 -119q0 -102 70 -102zM156 -10q-54 0 -86.5 38t-32.5 116q0 60 17 129t46 118q57 97 154 97q72 0 125 -63l27 53h39l-78 -366q-12 -53 -13 -112h-49v67 q-81 -77 -149 -77z" unicode="á"/>
<glyph glyph-name="acircumflex" d="M196 546l-23 28l131 118h37l89 -121l-30 -25l-84 85zM165 39q61 0 143 71l58 273q-47 55 -108 55q-67 0 -107 -68q-24 -42 -40 -110t-16 -119q0 -102 70 -102zM156 -10q-54 0 -86.5 38t-32.5 116q0 60 17 129t46 118q57 97 154 97q72 0 125 -63l27 53h39l-78 -366 q-12 -53 -13 -112h-49v67q-81 -77 -149 -77z" unicode="â"/>
<glyph glyph-name="atilde" d="M199 558l-30 22q38 70 89 70q23 0 56.5 -18.5t49.5 -18.5t26.5 9.5t26.5 30.5l31 -22q-39 -71 -90 -71q-23 0 -56.5 18.5t-49.5 18.5q-4 0 -7.5 -0.5t-7 -2t-6 -2.5t-6 -4t-5.5 -4.5t-5.5 -6t-4.5 -6t-5.5 -6.5t-5.5 -7zM165 39q61 0 143 71l58 273q-47 55 -108 55 q-67 0 -107 -68q-24 -42 -40 -110t-16 -119q0 -102 70 -102zM156 -10q-54 0 -86.5 38t-32.5 116q0 60 17 129t46 118q57 97 154 97q72 0 125 -63l27 53h39l-78 -366q-12 -53 -13 -112h-49v67q-81 -77 -149 -77z" unicode="ã"/>
<glyph glyph-name="adieresis" d="M387 554q-18 0 -30.5 12.5t-12.5 30.5q0 19 12.5 31.5t30.5 12.5t30.5 -12.5t12.5 -31.5t-12.5 -31t-30.5 -12zM224 554q-18 0 -30.5 12.5t-12.5 30.5q0 19 12.5 31.5t30.5 12.5t30.5 -12.5t12.5 -31.5t-12.5 -31t-30.5 -12zM165 39q61 0 143 71l58 273q-47 55 -108 55 q-67 0 -107 -68q-24 -42 -40 -110t-16 -119q0 -102 70 -102zM156 -10q-54 0 -86.5 38t-32.5 116q0 60 17 129t46 118q57 97 154 97q72 0 125 -63l27 53h39l-78 -366q-12 -53 -13 -112h-49v67q-81 -77 -149 -77z" unicode="ä"/>
<glyph glyph-name="aring" d="M298 578q40 0 51 53q2 10 2 20q0 43 -38 43q-41 0 -51 -54q-2 -14 -2 -19q0 -43 38 -43zM299 543q-38 0 -59 23.5t-21 58.5q0 7 2 21q6 35 31 59t61 24q38 0 59 -24t21 -60q0 -7 -2 -19q-6 -36 -31 -59.5t-61 -23.5zM165 39q61 0 143 71l58 273q-47 55 -108 55 q-67 0 -107 -68q-24 -42 -40 -110t-16 -119q0 -102 70 -102zM156 -10q-54 0 -86.5 38t-32.5 116q0 60 17 129t46 118q57 97 154 97q72 0 125 -63l27 53h39l-78 -366q-12 -53 -13 -112h-49v67q-81 -77 -149 -77z" unicode="å"/>
<glyph glyph-name="ae" horiz-adv-x="683" unicode="æ" d="M397 351q-18 -34 -30 -80q117 0 173.5 20.5t56.5 80.5q0 70 -74 70q-80 0 -126 -91zM291 122q2 47 10 104h-56q-93 0 -131.5 -25t-38.5 -88q0 -35 20.5 -54.5t55.5 -19.5q69 0 140 83zM140 -10q-55 0 -89.5 33.5t-34.5 88.5q0 84 58.5 122t173.5 38h62l14 66q4 16 4 33 q0 65 -73 65q-59 0 -137 -45l-22 42q90 55 168 55q43 0 72 -20.5t38 -56.5q64 77 152 77q63 0 96.5 -33t33.5 -79q0 -40 -18.5 -68.5t-46 -44t-70.5 -24.5t-79 -11.5t-84 -2.5q-6 -37 -6 -73q0 -60 23 -87.5t72 -27.5q63 0 134 52l15 -43q-71 -56 -156 -56q-105 0 -135 93 q-77 -93 -165 -93z"/>
<glyph glyph-name="ccedilla" horiz-adv-x="416" unicode="ç" d="M126 -204q-41 0 -71 25l19 33q26 -18 53 -18q42 0 42 42q0 35 -38 35q-20 0 -35 -4l50 88q-109 27 -109 167q0 54 15.5 112.5t40.5 100.5q62 111 178 111q74 0 126 -50l-29 -42q-51 44 -102 44q-83 0 -127 -95q-42 -93 -42 -187q0 -65 25.5 -92.5t77.5 -27.5q54 0 121 52 l22 -40q-66 -59 -149 -59h-9l-27 -44q57 -9 57 -70q0 -37 -22 -59t-67 -22z"/>
<glyph glyph-name="egrave" horiz-adv-x="429" unicode="è" d="M349 541l-160 99l39 50l146 -115zM143 351q-20 -38 -33 -96q233 2 233 114q0 73 -74 73q-78 0 -126 -91zM187 -10q-70 0 -109.5 43.5t-39.5 126.5q0 55 16.5 115.5t42.5 104.5q30 51 75.5 79.5t99.5 28.5q64 0 97 -33t33 -82q0 -162 -300 -164q-4 -27 -4 -57 q0 -60 23 -87.5t73 -27.5q64 0 133 52l15 -43q-69 -56 -155 -56z"/>
<glyph glyph-name="eacute" horiz-adv-x="429" unicode="é" d="M221 541l-18 35l172 116l29 -56zM143 351q-20 -38 -33 -96q233 2 233 114q0 73 -74 73q-78 0 -126 -91zM187 -10q-70 0 -109.5 43.5t-39.5 126.5q0 55 16.5 115.5t42.5 104.5q30 51 75.5 79.5t99.5 28.5q64 0 97 -33t33 -82q0 -162 -300 -164q-4 -27 -4 -57 q0 -60 23 -87.5t73 -27.5q64 0 133 52l15 -43q-69 -56 -155 -56z"/>
<glyph glyph-name="ecircumflex" horiz-adv-x="429" unicode="ê" d="M177 546l-23 28l131 118h37l89 -121l-30 -25l-84 85zM143 351q-20 -38 -33 -96q233 2 233 114q0 73 -74 73q-78 0 -126 -91zM187 -10q-70 0 -109.5 43.5t-39.5 126.5q0 55 16.5 115.5t42.5 104.5q30 51 75.5 79.5t99.5 28.5q64 0 97 -33t33 -82q0 -162 -300 -164 q-4 -27 -4 -57q0 -60 23 -87.5t73 -27.5q64 0 133 52l15 -43q-69 -56 -155 -56z"/>
<glyph glyph-name="edieresis" horiz-adv-x="429" unicode="ë" d="M368 554q-18 0 -30.5 12.5t-12.5 30.5q0 19 12.5 31.5t30.5 12.5t30.5 -12.5t12.5 -31.5t-12.5 -31t-30.5 -12zM204 554q-18 0 -30.5 12.5t-12.5 30.5q0 19 12.5 31.5t30.5 12.5t30.5 -12.5t12.5 -31.5t-12.5 -31t-30.5 -12zM143 351q-20 -38 -33 -96q233 2 233 114 q0 73 -74 73q-78 0 -126 -91zM187 -10q-70 0 -109.5 43.5t-39.5 126.5q0 55 16.5 115.5t42.5 104.5q30 51 75.5 79.5t99.5 28.5q64 0 97 -33t33 -82q0 -162 -300 -164q-4 -27 -4 -57q0 -60 23 -87.5t73 -27.5q64 0 133 52l15 -43q-69 -56 -155 -56z"/>
<glyph glyph-name="igrave" horiz-adv-x="259" unicode="ì" d="M235 541l-160 99l39 50l146 -115zM56 0l91 431l-62 9l7 38h123l-102 -478h-57z"/>
<glyph glyph-name="iacute" horiz-adv-x="259" unicode="í" d="M127 541l-18 35l172 116l29 -56zM56 0l91 431l-62 9l7 38h123l-102 -478h-57z"/>
<glyph glyph-name="icircumflex" horiz-adv-x="259" unicode="î" d="M86 546l-23 28l131 118h37l89 -121l-30 -25l-84 85zM56 0l91 431l-62 9l7 38h123l-102 -478h-57z"/>
<glyph glyph-name="idieresis" horiz-adv-x="259" unicode="ï" d="M279 554q-18 0 -30.5 12.5t-12.5 30.5q0 19 12.5 31.5t30.5 12.5t30.5 -12.5t12.5 -31.5t-12.5 -31t-30.5 -12zM116 554q-18 0 -30.5 12.5t-12.5 30.5q0 19 12.5 31.5t30.5 12.5t30.5 -12.5t12.5 -31.5t-12.5 -31t-30.5 -12zM56 0l91 431l-62 9l7 38h123l-102 -478h-57z "/>
<glyph glyph-name="eth" horiz-adv-x="475" unicode="ð" d="M204 37q81 0 123 92q40 83 40 185q0 122 -105 122q-41 0 -70.5 -20t-52.5 -68q-40 -85 -40 -185q0 -126 105 -126zM196 534l-16 36l105 52q-36 35 -84 64l22 41q71 -39 112 -80l111 54l15 -35l-99 -50q71 -90 71 -233q0 -179 -60 -285q-58 -107 -171 -107 q-75 0 -118.5 45t-43.5 132q0 118 54 210q60 105 172 105q70 0 106 -52q-9 95 -60 160z"/>
<glyph glyph-name="ntilde" horiz-adv-x="489" unicode="ñ" d="M196 558l-30 22q38 70 89 70q23 0 56.5 -18.5t49.5 -18.5t26.5 9.5t26.5 30.5l31 -22q-39 -71 -90 -71q-23 0 -56.5 18.5t-49.5 18.5q-4 0 -7.5 -0.5t-7 -2t-6 -2.5t-6 -4t-5.5 -4.5t-5.5 -6t-4.5 -6t-5.5 -6.5t-5.5 -7zM426 347l-73 -347h-58l73 343q5 23 5 38 q0 55 -53 55q-58 0 -153 -70l-78 -366h-58l81 379q8 38 10 99h47v-72q96 82 168 82q44 0 69 -26t25 -72q0 -16 -5 -43z"/>
<glyph glyph-name="ograve" horiz-adv-x="473" unicode="ò" d="M362 541l-160 99l39 50l146 -115zM203 37q82 0 124 92q40 83 40 189q0 123 -105 123q-41 0 -70.5 -20t-53.5 -69q-18 -37 -29.5 -90.5t-11.5 -98.5q0 -126 106 -126zM201 -9q-75 0 -119 45.5t-44 131.5q0 55 15 114t40 101q60 104 173 104q74 0 117 -44.5t43 -129.5 q0 -121 -53 -215q-58 -107 -172 -107z"/>
<glyph glyph-name="oacute" horiz-adv-x="473" unicode="ó" d="M233 541l-18 35l172 116l29 -56zM203 37q82 0 124 92q40 83 40 189q0 123 -105 123q-41 0 -70.5 -20t-53.5 -69q-18 -37 -29.5 -90.5t-11.5 -98.5q0 -126 106 -126zM201 -9q-75 0 -119 45.5t-44 131.5q0 55 15 114t40 101q60 104 173 104q74 0 117 -44.5t43 -129.5 q0 -121 -53 -215q-58 -107 -172 -107z"/>
<glyph glyph-name="ocircumflex" horiz-adv-x="473" unicode="ô" d="M185 546l-23 28l131 118h37l89 -121l-30 -25l-84 85zM203 37q82 0 124 92q40 83 40 189q0 123 -105 123q-41 0 -70.5 -20t-53.5 -69q-18 -37 -29.5 -90.5t-11.5 -98.5q0 -126 106 -126zM201 -9q-75 0 -119 45.5t-44 131.5q0 55 15 114t40 101q60 104 173 104 q74 0 117 -44.5t43 -129.5q0 -121 -53 -215q-58 -107 -172 -107z"/>
<glyph glyph-name="otilde" horiz-adv-x="473" unicode="õ" d="M185 558l-30 22q38 70 89 70q23 0 56.5 -18.5t49.5 -18.5t26.5 9.5t26.5 30.5l31 -22q-39 -71 -90 -71q-23 0 -56.5 18.5t-49.5 18.5q-4 0 -7.5 -0.5t-7 -2t-6 -2.5t-6 -4t-5.5 -4.5t-5.5 -6t-4.5 -6t-5.5 -6.5t-5.5 -7zM203 37q82 0 124 92q40 83 40 189q0 123 -105 123 q-41 0 -70.5 -20t-53.5 -69q-18 -37 -29.5 -90.5t-11.5 -98.5q0 -126 106 -126zM201 -9q-75 0 -119 45.5t-44 131.5q0 55 15 114t40 101q60 104 173 104q74 0 117 -44.5t43 -129.5q0 -121 -53 -215q-58 -107 -172 -107z"/>
<glyph glyph-name="odieresis" horiz-adv-x="473" unicode="ö" d="M377 554q-18 0 -30.5 12.5t-12.5 30.5q0 19 12.5 31.5t30.5 12.5t30.5 -12.5t12.5 -31.5t-12.5 -31t-30.5 -12zM214 554q-18 0 -30.5 12.5t-12.5 30.5q0 19 12.5 31.5t30.5 12.5t30.5 -12.5t12.5 -31.5t-12.5 -31t-30.5 -12zM203 37q82 0 124 92q40 83 40 189 q0 123 -105 123q-41 0 -70.5 -20t-53.5 -69q-18 -37 -29.5 -90.5t-11.5 -98.5q0 -126 106 -126zM201 -9q-75 0 -119 45.5t-44 131.5q0 55 15 114t40 101q60 104 173 104q74 0 117 -44.5t43 -129.5q0 -121 -53 -215q-58 -107 -172 -107z"/>
<glyph glyph-name="divide" horiz-adv-x="512" unicode="÷" d="M227 75q-21 0 -35 14.5t-14 35.5t14.5 35t34.5 14q21 0 35 -14t14 -35q0 -22 -14 -36t-35 -14zM73 263l11 50h368l-11 -50h-368zM297 401q-21 0 -35 14.5t-14 35.5t14.5 35t34.5 14q21 0 35 -14t14 -35q0 -22 -14 -36t-35 -14z"/>
<glyph glyph-name="oslash" horiz-adv-x="473" unicode="ø" d="M203 37q82 0 124 92q41 85 41 189q0 28 -6 49l-240 -298q28 -32 81 -32zM96 163q0 -35 7 -57l241 300q-26 35 -82 35q-41 0 -70.5 -20t-53.5 -69q-42 -88 -42 -189zM20 -59l-30 24l74 93q-26 43 -26 110q0 55 15 114t40 101q60 104 173 104q70 0 111 -39l68 84l30 -24 l-73 -91q24 -43 24 -104q0 -121 -53 -215q-58 -107 -172 -107q-70 0 -111 37z"/>
<glyph glyph-name="ugrave" horiz-adv-x="490" unicode="ù" d="M360 541l-160 99l39 50l146 -115zM143 -10q-44 0 -69.5 26t-25.5 73q0 17 5 42l74 347h58l-74 -343q-4 -19 -4 -37q0 -56 53 -56q59 0 153 69l78 367h58l-78 -366q-12 -53 -13 -112h-49v71q-94 -81 -166 -81z"/>
<glyph glyph-name="uacute" horiz-adv-x="490" unicode="ú" d="M256 541l-18 35l172 116l29 -56zM143 -10q-44 0 -69.5 26t-25.5 73q0 17 5 42l74 347h58l-74 -343q-4 -19 -4 -37q0 -56 53 -56q59 0 153 69l78 367h58l-78 -366q-12 -53 -13 -112h-49v71q-94 -81 -166 -81z"/>
<glyph glyph-name="ucircumflex" horiz-adv-x="490" unicode="û" d="M198 546l-23 28l131 118h37l89 -121l-30 -25l-84 85zM143 -10q-44 0 -69.5 26t-25.5 73q0 17 5 42l74 347h58l-74 -343q-4 -19 -4 -37q0 -56 53 -56q59 0 153 69l78 367h58l-78 -366q-12 -53 -13 -112h-49v71q-94 -81 -166 -81z"/>
<glyph glyph-name="udieresis" horiz-adv-x="490" unicode="ü" d="M384 554q-18 0 -30.5 12.5t-12.5 30.5q0 19 12.5 31.5t30.5 12.5t30.5 -12.5t12.5 -31.5t-12.5 -31t-30.5 -12zM220 554q-18 0 -30.5 12.5t-12.5 30.5q0 19 12.5 31.5t30.5 12.5t30.5 -12.5t12.5 -31.5t-12.5 -31t-30.5 -12zM143 -10q-44 0 -69.5 26t-25.5 73q0 17 5 42 l74 347h58l-74 -343q-4 -19 -4 -37q0 -56 53 -56q59 0 153 69l78 367h58l-78 -366q-12 -53 -13 -112h-49v71q-94 -81 -166 -81z"/>
<glyph glyph-name="yacute" horiz-adv-x="443" unicode="ý" d="M239 541l-18 35l172 116l29 -56zM-18 -208l-11 45q69 21 106.5 55.5t71.5 107.5h-18l-47 478h58l27 -306q7 -80 7 -115v-14h1q13 34 62 132l152 303h62l-263 -510q-45 -87 -87.5 -122.5t-120.5 -53.5z"/>
<glyph glyph-name="thorn" horiz-adv-x="489" unicode="þ" d="M220 38q64 0 99 51q29 40 48.5 116t19.5 133q0 99 -71 99q-68 0 -149 -70l-59 -274q47 -55 112 -55zM-12 -203l195 918h58l-64 -298q77 71 152 71q54 0 85 -37t31 -114q0 -71 -21.5 -149.5t-58.5 -125.5q-51 -72 -137 -72q-77 0 -128 62l-55 -255h-57z"/>
<glyph glyph-name="OE" horiz-adv-x="810" unicode="Œ" d="M291 51h84l124 584h-101q-67 0 -108 -20t-70 -68q-39 -51 -64.5 -151t-25.5 -183t38 -122.5t123 -39.5zM290 0q-224 0 -224 218q0 93 29 199t75 161q40 60 96 84.5t138 24.5h433l-11 -52h-265l-53 -248h217l-10 -51h-217l-61 -284h281l-11 -52h-417z"/>
<glyph glyph-name="oe" horiz-adv-x="743" unicode="œ" d="M457 351q-21 -44 -33 -96q233 2 233 114q0 73 -74 73q-78 0 -126 -91zM203 37q82 0 124 92q40 83 40 189q0 123 -105 123q-41 0 -70.5 -20t-53.5 -69q-18 -37 -29.5 -90.5t-11.5 -98.5q0 -126 106 -126zM201 -9q-75 0 -119 45.5t-44 131.5q0 55 15 114t40 101 q60 104 173 104q119 0 146 -106q1 1 5 7q66 100 169 100q64 0 97 -33t33 -82q0 -162 -300 -164q-4 -27 -4 -57q0 -60 23 -87.5t73 -27.5q64 0 133 52l15 -43q-69 -56 -155 -56q-109 0 -135 99q-60 -98 -165 -98z"/>
<glyph glyph-name="Scaron" horiz-adv-x="479" unicode="Š" d="M299 737l-89 121l29 25l84 -85l120 85l23 -27l-131 -119h-36zM204 -10q-62 0 -117 24.5t-90 61.5l28 47q83 -80 177 -80q72 0 108.5 40t36.5 105q0 49 -25 81.5t-85 70.5q-62 39 -90.5 79t-28.5 99q0 84 51 131t136 47q102 0 171 -59l-25 -47q-64 55 -148 55 q-58 0 -91.5 -32t-33.5 -92q0 -42 21 -70.5t74 -61.5q70 -44 103.5 -88.5t33.5 -110.5q0 -85 -50 -142.5t-156 -57.5z"/>
<glyph glyph-name="scaron" horiz-adv-x="391" unicode="š" d="M222 548l-89 121l29 25l84 -85l120 85l23 -27l-131 -119h-36zM157 -10q-90 0 -151 53l21 42q63 -48 131 -48q46 0 73 23t27 65q0 36 -17.5 55.5t-66.5 48.5q-24 15 -35.5 23.5t-27.5 24.5t-23 36t-7 46q0 61 41 95t100 34q70 0 124 -41l-19 -43q-54 37 -105 37 q-86 0 -86 -80q0 -30 15 -46.5t59 -43.5q29 -18 44 -28.5t31.5 -27.5t23 -38t6.5 -49q0 -66 -44 -102t-114 -36z"/>
<glyph glyph-name="Ydieresis" horiz-adv-x="523" unicode="Ÿ" d="M440 743q-18 0 -30.5 12.5t-12.5 30.5q0 19 12.5 31.5t30.5 12.5t30.5 -12.5t12.5 -31.5t-12.5 -31t-30.5 -12zM276 743q-18 0 -30.5 12.5t-12.5 30.5q0 19 12.5 31.5t30.5 12.5t30.5 -12.5t12.5 -31.5t-12.5 -31t-30.5 -12zM174 0l58 271l-106 416h66l63 -268 q13 -59 17 -95q26 51 55 95l177 268h69l-280 -419l-57 -268h-62z"/>
<glyph glyph-name="circumflex" horiz-adv-x="530" unicode="ˆ" d="M227 546l-23 28l131 118h37l89 -121l-30 -25l-84 85z"/>
<glyph glyph-name="tilde" horiz-adv-x="529" unicode="˜" d="M229 558l-30 22q38 70 89 70q23 0 56.5 -18.5t49.5 -18.5t26.5 9.5t26.5 30.5l31 -22q-39 -71 -90 -71q-23 0 -56.5 18.5t-49.5 18.5q-4 0 -7.5 -0.5t-7 -2t-6 -2.5t-6 -4t-5.5 -4.5t-5.5 -6t-4.5 -6t-5.5 -6.5t-5.5 -7z"/>
<glyph glyph-name="uni0394" horiz-adv-x="543" unicode="Δ" d="M278 470l-214 -417h323l-32 417q-5 55 -5 104q0 20 2 52h-2q-26 -68 -72 -156zM459 0h-485l357 687h68z"/>
<glyph glyph-name="uni03BC" horiz-adv-x="485" unicode="μ" d="M366 79q-2 -14 -2 -18q0 -24 19 -24q8 0 24 4v-41q-20 -8 -49 -8q-49 0 -49 52q0 14 5 37q-60 -91 -140 -91q-55 0 -79 31l-48 -225h-59l145 682h59l-83 -389q20 -51 84 -51q48 0 88.5 51.5t54.5 116.5l58 272h57l-76 -353q-6 -26 -9 -46z"/>
<glyph glyph-name="pi" horiz-adv-x="527" unicode="π" d="M380 0h-63q11 188 63 430h-168q-15 -59 -50.5 -207.5t-54.5 -222.5h-62q32 107 113 430q-52 0 -111 -9l10 45q72 12 100 12h388l-10 -48h-100q-55 -277 -55 -423v-7z"/>
<glyph glyph-name="endash" horiz-adv-x="492" unicode="–" d="M53 254l11 51h382l-11 -51h-382z"/>
<glyph glyph-name="emdash" horiz-adv-x="687" unicode="—" d="M53 254l11 51h577l-11 -51h-577z"/>
<glyph glyph-name="quoteleft" horiz-adv-x="215" unicode="‘" d="M170 491q-23 0 -37 15t-14 43q0 48 32 89.5t94 54.5v-31q-58 -24 -68 -73q16 -3 28 -16t12 -33q0 -21 -13.5 -35t-33.5 -14z"/>
<glyph glyph-name="quotesinglbase" horiz-adv-x="215" unicode="‚" d="M-14 -105v31q57 25 67 74q-16 2 -28 15.5t-12 33.5q0 21 14 35t34 14q22 0 36 -15.5t14 -43.5q0 -47 -32 -89t-93 -55z"/>
<glyph glyph-name="quotedblleft" horiz-adv-x="377" unicode="“" d="M332 491q-23 0 -37 15.5t-14 43.5q0 47 32.5 89t93.5 55v-31q-58 -24 -68 -74q16 -2 28 -15.5t12 -33.5q0 -21 -13.5 -35t-33.5 -14zM170 491q-23 0 -37 15.5t-14 43.5q0 47 32.5 89t93.5 55v-31q-27 -11 -45 -31t-22 -43q16 -2 28 -15.5t12 -33.5q0 -21 -14 -35t-34 -14 z"/>
<glyph glyph-name="quotedblright" horiz-adv-x="376" unicode="”" d="M111 489v31q57 25 67 74q-16 2 -28 15.5t-12 32.5q0 22 14 35.5t34 13.5q22 0 36 -15t14 -43q0 -47 -32 -89t-93 -55zM272 489v31q27 11 45 31t22 43q-16 2 -28 15.5t-12 32.5q0 22 13.5 35.5t34.5 13.5q23 0 37 -15t14 -43q0 -47 -32.5 -89t-93.5 -55z"/>
<glyph glyph-name="dagger" horiz-adv-x="349" unicode="†" d="M140 231l59 277h-97l10 50h97l28 129h55l-27 -129h97l-11 -50h-97l-59 -277h-55z"/>
<glyph glyph-name="daggerdbl" horiz-adv-x="350" unicode="‡" d="M141 231l27 130h-97l11 50h97l21 96h-97l10 50h97l28 130h55l-27 -130h97l-11 -50h-97l-21 -96h97l-10 -50h-97l-28 -130h-55z"/>
<glyph glyph-name="ellipsis" horiz-adv-x="629" unicode="…" d="M269 -5q-21 0 -35.5 14t-14.5 36t14.5 36.5t35.5 14.5t35.5 -14.5t14.5 -36.5t-14.5 -36t-35.5 -14zM72 -5q-21 0 -35.5 14t-14.5 36t14.5 36.5t35.5 14.5t35.5 -14.5t14.5 -36.5t-14.5 -36t-35.5 -14zM466 -5q-21 0 -35.5 14t-14.5 36t14.5 36.5t35.5 14.5t35.5 -14.5 t14.5 -36.5t-14.5 -36t-35.5 -14z"/>
<glyph glyph-name="perthousand" horiz-adv-x="1128" unicode="‰" d="M134 0l488 635h57l-488 -635h-57zM222 345q41 0 65 29q19 22 30.5 62.5t11.5 78.5q0 85 -73 85q-34 0 -56 -19q-23 -20 -37.5 -64t-14.5 -86q0 -86 74 -86zM900 36q41 0 65 29q19 21 30.5 62t11.5 79q0 85 -73 85q-34 0 -56 -19q-23 -20 -37.5 -64.5t-14.5 -85.5 q0 -86 74 -86zM559 36q41 0 64 29q20 21 31.5 62t11.5 79q0 85 -74 85q-33 0 -55 -19q-24 -20 -38.5 -64.5t-14.5 -85.5q0 -86 75 -86zM557 -9q-61 0 -94.5 38t-33.5 101q0 55 22.5 105t59.5 75q35 25 85 25q57 0 91 -36.5t34 -98.5q0 -51 -19 -99.5t-51 -75.5 q-39 -34 -94 -34zM220 300q-61 0 -94.5 38t-33.5 102q0 54 22.5 104t59.5 75q35 25 85 25q58 0 91.5 -36.5t33.5 -98.5q0 -51 -18.5 -99.5t-50.5 -75.5q-40 -34 -95 -34zM898 -9q-61 0 -94.5 38t-33.5 101q0 55 22.5 105t59.5 75q35 25 85 25q57 0 91 -36.5t34 -98.5 q0 -51 -18.5 -99.5t-50.5 -75.5q-40 -34 -95 -34z"/>
<glyph glyph-name="guilsinglleft" horiz-adv-x="292" unicode="‹" d="M143 41l-89 212l172 199l39 -30l-149 -178l75 -182z"/>
<glyph glyph-name="guilsinglright" horiz-adv-x="292" unicode="›" d="M61 41l-39 30l148 179l-75 182l49 20l89 -212z"/>
<glyph glyph-name="fraction" horiz-adv-x="280" unicode="⁄" d="M-120 0l488 635h57l-488 -635h-57z"/>
<glyph glyph-name="Euro" horiz-adv-x="556" unicode="€" d="M59 367l9 47h87q20 63 49 112q73 119 204 119q93 0 152 -54l-28 -44q-53 48 -127 48q-99 0 -151 -94q-20 -34 -36 -87h221l-9 -47h-225q-13 -49 -17 -93h222l-10 -47h-216v-20q0 -83 35 -124.5t111 -41.5q69 0 133 43l16 -46q-69 -47 -153 -47q-101 0 -152 57t-51 162v17 h-94l10 47h87q7 54 16 93h-83z"/>
<glyph glyph-name="trademark" horiz-adv-x="716" unicode="™" d="M157 319l68 323h-91l9 45h234l-10 -45h-92l-68 -323h-50zM364 319l78 368h71l18 -177q2 -32 2 -45q0 -11 -0.5 -22.5t-0.5 -12.5h1q21 56 32 78l95 179h76l-78 -368h-50l44 209q5 26 12 53t12 44.5t5 19.5h-1q-20 -54 -51 -110l-83 -151h-46l-18 149q-2 22 -3 47.5t-1 43 v21.5h-1q-1 -3 -7.5 -44.5t-13.5 -72.5l-44 -209h-48z"/>
<glyph glyph-name="arrowleft" horiz-adv-x="730" unicode="←" d="M158 366h517v-52h-518l275 -297l-34 -37l-347 359l347 359l34 -37z"/>
<glyph glyph-name="arrowup" horiz-adv-x="768" unicode="↑" d="M356 576l-295 -272l-36 36l359 346l359 -346l-38 -38l-291 273v-575h-58v576z"/>
<glyph glyph-name="arrowright" horiz-adv-x="730" unicode="→" d="M51 366h517l-274 295l34 37l347 -359l-347 -359l-34 37l275 297h-518v52z"/>
<glyph glyph-name="arrowdown" horiz-adv-x="768" unicode="↓" d="M412 110l295 272l36 -36l-359 -346l-359 346l38 38l291 -273v575h58v-576z"/>
<glyph glyph-name="carriagereturn" horiz-adv-x="768" unicode="↵" d="M373 628l-232 -260h497v300h53v-352h-551l235 -255l-34 -37l-306 319l306 319z"/>
<glyph glyph-name="partialdiff" horiz-adv-x="474" unicode="∂" d="M204 37q81 0 123 92q40 83 40 189q0 123 -105 123q-41 0 -70 -20t-52 -69q-18 -37 -29.5 -90.5t-11.5 -98.5q0 -126 105 -126zM266 487q71 0 106 -53q-5 96 -48 171.5t-114 119.5l25 39q198 -116 198 -377q0 -183 -60 -289q-58 -107 -171 -107q-75 0 -118.5 45t-43.5 132 q0 55 15 114t40 101q60 104 171 104z"/>
<glyph glyph-name="product" horiz-adv-x="614" unicode="∏" d="M131 -212v845h-94v54h539v-54h-94v-845h-63v845h-224v-845h-64z"/>
<glyph glyph-name="summation" horiz-adv-x="499" unicode="∑" d="M66 -212v58l202 396l-202 396v49h370v-54h-294l197 -390l-208 -401h314v-54h-379z"/>
<glyph glyph-name="minus" horiz-adv-x="511" unicode="−" d="M72 263l11 50h368l-11 -50h-368z"/>
<glyph glyph-name="radical" horiz-adv-x="516" unicode="√" d="M161 0l-53 300h-58l11 53h101l21 -124q17 -93 20 -158h1q2 4 14 30t28 59.5t33 68.5l232 458h63l-350 -687h-63z"/>
<glyph glyph-name="infinity" horiz-adv-x="579" unicode="∞" d="M398 151q28 0 47.5 31t23.5 81q1 7 1 19q0 66 -47 66q-24 0 -48.5 -25t-59.5 -74q20 -47 39.5 -72.5t43.5 -25.5zM150 151q24 0 48.5 24.5t60.5 73.5q-22 48 -41 73.5t-43 25.5q-29 0 -48 -30.5t-23 -82.5q-1 -7 -1 -20q0 -64 47 -64zM139 99q-36 0 -63.5 32t-27.5 88 q0 13 1 19q6 83 42.5 122.5t85.5 39.5q64 0 116 -106q39 51 71.5 78.5t70.5 27.5q37 0 64 -31t27 -89q0 -3 -0.5 -8.5t-0.5 -8.5q-6 -83 -42.5 -123.5t-85.5 -40.5q-36 0 -63.5 28.5t-53.5 77.5q-37 -50 -70.5 -78t-70.5 -28z"/>
<glyph glyph-name="approxequal" horiz-adv-x="493" unicode="≈" d="M93 159l-35 22q50 89 117 89q31 0 77.5 -24.5t68.5 -24.5q21 0 36.5 13.5t36.5 42.5l35 -22q-50 -88 -117 -88q-31 0 -78 24t-68 24q-22 0 -37.5 -13.5t-35.5 -42.5zM113 313l-35 22q50 89 117 89q31 0 77.5 -24t68.5 -24q35 0 73 56l35 -22q-50 -89 -117 -89 q-31 0 -77.5 24.5t-68.5 24.5t-38 -14t-35 -43z"/>
<glyph glyph-name="notequal" horiz-adv-x="520" unicode="≠" d="M91 350l11 50h201l79 135l42 -25l-65 -110h118l-11 -50h-136l-73 -123h184l-11 -50h-202l-79 -134l-40 25l63 109h-117l11 50h136l72 123h-183z"/>
<glyph glyph-name="lessequal" horiz-adv-x="375" unicode="≤" d="M7 30l11 51h268l-10 -51h-269zM264 134l-205 165l7 31l267 148l21 -45l-226 -125l167 -133z"/>
<glyph glyph-name="greaterequal" horiz-adv-x="376" unicode="≥" d="M2 30l10 51h269l-11 -51h-268zM63 135l-22 45l226 125l-166 133l31 41l205 -165l-7 -31z"/>
<glyph glyph-name="dotmath" horiz-adv-x="550" unicode="⋅" d="M275 288q-21 0 -36 14.5t-15 35.5q0 22 15 36.5t36 14.5t35.5 -14.5t14.5 -36.5q0 -21 -14.5 -35.5t-35.5 -14.5z"/>
<glyph glyph-name="lozenge" horiz-adv-x="559" unicode="◊" d="M235 53h1q30 51 54 83l163 214l-74 211q-14 41 -20 79h-1q-16 -32 -52 -82l-163 -216l70 -210q17 -54 22 -79zM200 0l-123 348l265 339h51l123 -349l-264 -338h-52z"/>
</font>
</defs>
</svg>
