<svg version="1.1" id="q_eight_svg" xmlns="http://www.w3.org/2000/svg" x="0px" y="0px"
     viewBox="0 0 280 307.2">
    <style type="text/css">
        .st0 {
            fill: #FFFFFF;
        }
    </style>
    <g>
        <path class="st0" d="M238.8,98.8c0-26.3-10.3-51.1-29-69.8C191.1,10.3,166.3,0,140,0C85.5,0,41.2,44.3,41.2,98.8
		c0,54.5,44.3,98.8,98.8,98.8C194.5,197.5,238.8,153.2,238.8,98.8L238.8,98.8z M140,179.3c-44.4,0-80.5-36.1-80.5-80.5
		c0-3.1,0.2-6.4,0.6-9.6c2.9,4.3,6.4,9.3,10.4,14.7c12.1,16.6,21.4,19.6,31.2,22.8c5.9,1.9,11.9,3.9,19.3,9.3
		c5.1,3.8,8.8,5.5,11.8,5.5c2,0,3.8-0.8,5-2.2c0.6-0.7,1-1.5,1.3-2.4h0c1.3,3.4,2.6,6.3,3.4,8.1c0.5,1.1,1.5,2,2.6,2.4
		c1.4,0.5,3.9,2.3,4.3,5.5c0.2,1.3,0.2,3.5,0.2,5.8c0.1,6.2,0.1,13.9,2.5,19.5C148,178.9,144,179.3,140,179.3L140,179.3z
		 M169.9,123.7c-1.3-0.4-2.7-0.8-4.1-1.2c-5.4-1.7-9-8.6-10.1-12c-0.4-1.3-1.5-2.4-2.8-2.9c-2.9-1.1-5.4-1.6-7.6-1.6
		c-3.7,0-6.7,1.6-8.5,4.4c-2,3.1-2.4,8-1.2,14.4c-3.4-4.9-7.8-7.8-11.8-7.8h-0.1c-3,0-7.9-8.2-10.4-15.5l0,0
		c-0.8-2.9-2.1-11.4,1.9-15.4c1.5-1.4,2.1-1.5,2.1-1.5c0.3,0,1.1,0.4,1.9,0.9c1.4,0.8,3.6,2,6.4,2c0.7,0,1.5-0.1,2.2-0.3
		c3.4-0.8,6.3-3.2,8.2-6.6c2.4-4.3,2.8-9.9,1.2-14.9c-0.1-0.4-0.3-0.8-0.4-1.1c1.1-0.3,2.2-0.6,3.4-0.8c5.8-1.3,13.6-3.8,14.3-10
		c0.7-5.4-4.6-8.9-6.9-10.1c-1.3-0.7-2.8-0.8-4.1-0.2c-0.4,0.2-2.5,1.1-5.3,1.1c-2.4,0-4.6-0.7-6.5-2c-2-1.4-3.9-2.1-5.8-2.1
		c-1.7,0-3.3,0.5-4.8,1.6c-0.6-0.9-1.2-2-1.9-3.4c-3.4-6.4-9.1-10.1-16.8-11c11.6-6.2,24.3-9.4,37.6-9.4c21.8,0,42.1,8.6,57.4,24.2
		c-9.4,2.5-15.5,7.5-17.9,14.6l-10.5,12c-8,9.4-6,17.8-4.1,21.9c3.3,7,11,12.3,15.7,12.3c0.7,0,1.3-0.1,1.9-0.3
		c0.8-0.2,1.6-0.6,2.3-0.9c1.2-0.5,2.4-1.1,3.4-1.1c0.8,0,2,0.7,3.4,4.2c2.2,5.3,3.4,14.3,4.3,21.5c0.2,1.3,0.3,2.5,0.5,3.6
		c-2.5-1.1-5.7-1.3-8.1-1.3c-1.9,0-3.8,0.1-5.4,0.2c-1.9-2.1-5.3-3.1-12.9-5.4L169.9,123.7z M176.9,170.2l2.1-3
		c2-2.5,6.5-8.5,7.6-12.1c0.4-0.5,1.6-1.7,2.8-2.8c2.7-2.5,6.5-5.9,9.4-10.7c0.3,0.6,0.6,1.1,1,1.5c1.3,1.6,3.1,2.4,5.1,2.4
		c0.2,0,0.4,0,0.6,0C198.1,155.8,188.2,164.4,176.9,170.2L176.9,170.2z M176.9,170.2"/>
        <path class="st0" d="M114,256.2c-1.3-3.1-2.7-6.2-4.2-9.2c-10.1-19.4-23.9-32.4-37.2-44.9c-3.8-3.5-8.6-9.1-13.6-14.9
		c-7.4-8.5-15.1-17.4-20.2-20.7c-4.7-3-8.5-3.1-11.3-0.2c-4.2,4.2-2.9,12,4,25.4c4.6,8.9,11.3,19.4,18.4,30.6
		c1.1,1.8,2.3,3.6,3.5,5.4c-12.6-13.7-21.8-26.2-27.5-37.2c-6.5-12.6-7.8-22.3-3.7-27.4c2.9-3.6,8.4-4.5,15.6-2.5l1.1,0.3l-0.3-1.1
		c-0.1-0.6-13.3-55.5-16.1-65.9c-0.6-2.3-1.5-4.5-2.5-6.6c-3.8-7.4-9.9-11.9-14.4-10.7C3.2,77.2-0.4,79.7,0,89.7l6.9,86.7
		c0.4,2.8,0.6,5.8,0.9,8.9c0.8,9.6,1.6,19.5,5.6,27.1c1.6,3.2,3.5,6,5.8,8.7c4.1,4.9,15.4,16.7,27.4,29.1
		c11.7,12.1,23.7,24.7,28.2,30c3.5,4.1,6.4,8.6,9.2,13.9c2.2,4.2,4,8.5,5.6,13h42.2L131,305C125.9,287.8,120.4,271.8,114,256.2
		L114,256.2z M114,256.2"/>
        <path class="st0" d="M274.7,76.6c-4.5-1.2-10.6,3.3-14.4,10.7c-1.1,2.1-1.9,4.3-2.5,6.6c-2.8,10.4-16,65.3-16.1,65.9l-0.3,1.1
		l1.1-0.3c7.1-2,12.7-1.1,15.6,2.5c4.1,5.1,2.8,14.8-3.7,27.4c-5.7,11-14.9,23.5-27.5,37.2c1.2-1.8,2.3-3.7,3.5-5.4
		c7.1-11.1,13.8-21.7,18.4-30.6c6.9-13.4,8.1-21.2,4-25.4c-2.9-2.9-6.7-2.8-11.3,0.2c-5.1,3.4-12.8,12.2-20.2,20.7
		c-5.1,5.8-9.9,11.4-13.6,14.9c-13.4,12.5-27.2,25.5-37.2,44.9c-1.5,3-3,6-4.2,9.2c-6.4,15.6-12,31.6-17,48.8l-0.6,2.2h42.2
		c1.6-4.4,3.5-8.8,5.6-13c2.7-5.2,5.7-9.8,9.2-13.9c4.4-5.2,16.5-17.8,28.2-30c12-12.5,23.3-24.3,27.4-29.1c2.3-2.7,4.2-5.6,5.8-8.7
		c3.9-7.6,4.8-17.5,5.6-27.1c0.3-3.1,0.5-6.1,0.9-8.9l6.9-86.7C280.4,79.7,276.8,77.2,274.7,76.6L274.7,76.6z M274.7,76.6"/>
    </g>
</svg>
