<svg version="1.1" id="q_four_bg" xmlns="http://www.w3.org/2000/svg" x="0px" y="0px"
     viewBox="0 0 312 348.5">
    <style type="text/css">
        .st0 {
            fill: #FFFFFF;
        }
    </style>
    <g>
        <path class="st0" d="M111,205.9c9.8,9.5,21,12.7,22.5,19.4c1.5,6.2-3.2,85.6-5.5,123.1H199c-3.2-37.1-9.7-114.9-7.8-123.1
		c2.8-12.1,17.6-26.3,23.6-36.2c4.8-7.8,7.2-17,7.3-27.5l0-96.1c0-5.7-4.7-10.4-10.4-10.4c-5.7,0-10.6,4.7-10.6,10.4v50.4
		c0,2-1.5,3.6-3.6,3.6c-2,0-3.5-1.5-3.5-3.6V23.5c0,0,0.2-10.9-10.4-10.9s-10.4,11-10.4,11v85.8c0,0.4,0,1.5-0.9,2.5
		c-0.4,0.5-1.3,1.1-2.7,1.1c-1.4,0-2.2-0.6-2.7-1.1c-0.9-0.9-0.9-2.1-0.9-2.4v-99C166,4.7,161.4,0,155.6,0
		c-5.7,0-10.4,4.7-10.4,10.4v99.2c0,0.4,0,1.6-0.9,2.5c-0.5,0.5-1.3,1.1-2.7,1.1c-1.4,0-2.2-0.6-2.7-1.1c-0.9-1-0.9-2.1-0.9-2.5
		l0-86.5c0-5.7-4.7-10.4-10.4-10.4c-5.7,0-10.4,4.7-10.4,10.4v112.1c0,0.4,0,1.9-1,3c-0.4,0.5-1.2,1-2.5,1c-1.3,0-2.1-0.6-2.5-1
		c-1-1.1-1-2.6-1-3V99.8c0-5.8-4.7-10.6-10.6-10.6c-5.8,0-10.6,4.7-10.6,10.6v53.1C89.1,182.3,96.9,192.3,111,205.9L111,205.9z
		 M151,131.6c4.4,0,8.6,1.4,12,4.1c3.4-2.7,7.6-4.1,12-4.1c10.7,0,19.4,8.7,19.4,19.4c0,13.9-10.4,20.9-18.7,26.5
		c-4.7,3.1-9.1,6.1-10,9.3c-0.3,1.2-1.4,2-2.7,2.1h-0.1c-1.2,0-2.3-0.8-2.7-2c-1.1-3.3-5.5-6.3-10.1-9.4
		c-8.3-5.6-18.6-12.5-18.6-26.5C131.6,140.4,140.3,131.6,151,131.6L151,131.6z M151,131.6"/>
        <path class="st0" d="M206.9,348.5h42.8c3.7-28.7,10.8-81.5,12.6-85.6c2.1-4.6,10.6-5.4,19-10.9c12.1-7.8,19.1-14,23.2-35.2
		l7.4-38.3c0.8-4.2-2-8.3-6.2-9.1c-4.2-0.8-8.3,2-9.1,6.2l-4.9,25.5c0,0.3-0.3,1.4-1.1,2c-0.4,0.3-1,0.6-1.9,0.4
		c-0.9-0.2-1.4-0.7-1.7-1.1c-0.6-0.9-0.4-2-0.3-2.3l15.6-80.9c0.8-4.1-1.9-8.2-6.1-8.9c-4.1-0.8-8.2,1.9-8.9,6.1l-12,62.5
		c0,0.3-0.2,1.1-1,1.7c-0.4,0.3-1.1,0.6-2.1,0.4c-1-0.2-1.6-0.7-1.8-1.2c-0.5-0.8-0.4-1.7-0.3-1.9l13.8-71.6
		c0.8-4.1-1.9-8.2-6.1-8.9c-4.1-0.8-8.1,1.9-8.9,6.1L255,174.7c0,0.2-0.2,1.1-1,1.6c-0.4,0.3-1.1,0.6-2.1,0.4
		c-1-0.2-1.5-0.7-1.8-1.1c-0.5-0.8-0.4-1.7-0.3-1.9l11.9-62c0,0,1.7-7.9-6-9.4c-7.7-1.5-9,6.5-9,6.5l-12.8,66.7
		c-0.3,1.5-1.6,2.4-3.1,2.1c-1.6-0.4-2.1-3.1-2.1-3.1c-3.8,12.5-7.8,20.5-14,27.9c-5.5,6.5-8.4,10.8-8.4,10.8
		c0,4.3,0.8,8.4,2.2,12.2c3,7.9,11.7,20.3,12,29.4c0.2,4.7-8.7,37.7-16.3,64.8C205.3,329.5,206.1,339.3,206.9,348.5L206.9,348.5z
		 M228.8,200.9c1.5-7.7,9-12.8,16.7-11.3c3.2,0.6,6,2.2,8.1,4.6c2.8-1.5,6-1.9,9.2-1.3c7.7,1.5,12.8,9,11.3,16.7
		c-1.9,10.1-10.3,13.7-17.1,16.5c-3.8,1.6-7.4,3.1-8.6,5.4c-0.4,0.8-1.3,1.2-2.2,1c0,0,0,0,0,0c-0.9-0.2-1.6-0.9-1.6-1.9
		c-0.2-2.4-3-5.2-5.9-8.1C233.3,217.4,226.8,210.9,228.8,200.9L228.8,200.9z M228.8,200.9"/>
        <path class="st0" d="M49.7,262.9c1.8,4.1,8.9,56.9,12.6,85.6h53.4c-6.5-22.8-24.6-86.9-24.4-93.6c0.3-9.1,9-21.4,12-29.4
		c1.6-4.3,2.4-9,2.2-14c-10.7-10.3-18.7-19.4-22.3-36.2c-0.1,1.2-0.9,2.1-2.1,2.4c-1.5,0.3-2.8-0.6-3.1-2.1l-12.8-66.7
		c0,0-1.3-7.9-9-6.5c-7.7,1.5-6,9.4-6,9.4l11.9,62c0.1,0.3,0.2,1.1-0.3,1.9c-0.3,0.4-0.8,0.9-1.8,1.1c-1,0.2-1.7-0.1-2.1-0.4
		c-0.8-0.5-0.9-1.4-1-1.6l-13.8-71.5c-0.8-4.1-4.8-6.9-8.9-6.1c-4.1,0.8-6.9,4.8-6.1,8.9L42,177.7c0.1,0.3,0.2,1.1-0.3,1.9
		c-0.3,0.4-0.8,1-1.8,1.2c-1,0.2-1.7-0.1-2.1-0.4c-0.8-0.6-1-1.4-1-1.7l-12-62.5c-0.8-4.1-4.8-6.9-8.9-6.1c-4.1,0.8-6.9,4.8-6.1,8.9
		L25.4,200c0.1,0.3,0.3,1.4-0.3,2.3c-0.3,0.4-0.8,0.9-1.7,1.1c-0.9,0.2-1.6-0.1-1.9-0.4c-0.9-0.6-1.1-1.7-1.1-2l-4.9-25.5
		c-0.8-4.2-4.9-7-9.1-6.2c-4.2,0.8-7,4.9-6.2,9.1l7.4,38.3c4.1,21.2,11.1,27.3,23.2,35.2C39.1,257.5,47.6,258.3,49.7,262.9
		L49.7,262.9z M49.2,192.8c3.2-0.6,6.4-0.1,9.2,1.3c2.1-2.4,4.9-4,8.1-4.6c7.7-1.5,15.2,3.6,16.7,11.3c1.9,10.1-4.6,16.5-9.8,21.7
		c-2.9,2.9-5.7,5.6-5.9,8.1c-0.1,0.9-0.8,1.7-1.6,1.9c0,0,0,0,0,0c-0.9,0.2-1.8-0.2-2.2-1c-1.2-2.2-4.8-3.8-8.6-5.4
		c-6.8-2.9-15.1-6.4-17.1-16.5C36.4,201.8,41.5,194.3,49.2,192.8L49.2,192.8z M49.2,192.8"/>
    </g>
</svg>
