<svg version="1.1" id="q_one_bg" xmlns="http://www.w3.org/2000/svg" x="0px" y="0px"
     viewBox="0 0 420 379.5">
    <style type="text/css">
        .st0 {
            fill: #FFFFFF;
        }
    </style>
    <g>
        <path class="st0" d="M322.8,263.2l-35.5-44.8c-2.2,10.3-8.7,18.8-18,23.5l-12.6,6.4l37.7,47.5c3.2,4,7.7,6.7,12.7,7.7l87.7,16.8
		c1.3,0.3,2.7,0.4,4,0.4c10,0,19-7.1,20.9-17.3c2.2-11.5-5.3-22.7-16.9-24.9L322.8,263.2z"/>
        <path class="st0" d="M43.7,46.7C43.7,20.9,64.6,0,90.4,0c25.8,0,46.7,20.9,46.7,46.7c0,25.8-20.9,46.7-46.7,46.7
		C64.6,93.4,43.7,72.5,43.7,46.7L43.7,46.7z"/>
        <path class="st0" d="M192.3,35C174.8,52.9,74.7,147.1,74.6,147.1l-40-37.2c-3.9-3.7-9-5.5-14-5.5c-5.5,0-11,2.3-15.1,6.6
		c-7.7,8.3-7.2,21.3,1.1,29.1L60,189.8c3.9,3.6,8.9,5.5,14,5.5c4.7,0,9.4-1.6,13.3-4.9l46.5-39.4l61.6,65.9l-58.6,29.8
		c-5.3,2.7-9.3,7.4-10.9,13.2c-1.7,5.7-0.8,11.9,2.3,17l57.1,92.5c4.1,6.5,11.1,10.1,18.2,10.1c3.8,0,7.7-1,11.2-3.2
		c10.1-6.2,13.2-19.3,7-29.3l-45-72.7l71.5-36.5l15-7.7c12.4-6.2,14.9-22.7,6.7-33.2c-0.4-0.5-0.8-1-1.2-1.5
		c-28.3-30.2-56.5-60.4-84.7-90.6c4.1-4.2,26.3-28.3,30.7-33.2L283,87.8c1.6,0.4,3.2,0.6,4.8,0.6c9.3,0,17.7-6.4,20-15.9
		c2.6-11.1-4.2-22.2-15.3-24.8l-80.1-19c-2-0.4-3.8-0.7-5.6-0.7C201.8,28,197.2,29.9,192.3,35L192.3,35z"/>
    </g>
</svg>
