<svg version="1.1" id="q_one_bg" xmlns="http://www.w3.org/2000/svg" x="0px" y="0px"
     viewBox="0 0 420 379.5">
    <style type="text/css">
        .st0 {
            fill: #FFFFFF;
        }
    </style>
    <g>
        <path class="st0" d="M17.3,278.5c-11.6,2.2-19.1,13.4-16.9,24.9c1.9,10.2,10.9,17.3,20.9,17.3c1.3,0,2.7-0.1,4-0.4l87.7-16.8
		c5-1,9.5-3.7,12.7-7.7l37.7-47.5l-12.6-6.4c-9.3-4.7-15.8-13.2-18-23.5l-35.5,44.8L17.3,278.5z M17.3,278.5"/>
        <path class="st0" d="M376.4,46.7c0,25.8-20.9,46.7-46.7,46.7c-25.8,0-46.7-20.9-46.7-46.7C283,20.9,303.9,0,329.7,0
		C355.5,0,376.4,20.9,376.4,46.7L376.4,46.7z M376.4,46.7"/>
        <path class="st0" d="M227.8,35c-4.9-5.1-9.5-7-14.5-7c-1.8,0-3.6,0.3-5.6,0.7l-80.1,19c-11.1,2.6-17.9,13.7-15.3,24.8
		c2.3,9.5,10.7,15.9,20,15.9c1.6,0,3.2-0.2,4.8-0.6l68.3-16.2c4.4,4.9,26.6,29,30.7,33.2c-28.2,30.2-56.4,60.4-84.7,90.6
		c-0.4,0.5-0.8,1-1.2,1.5c-8.2,10.5-5.7,27,6.7,33.2l15,7.7l71.5,36.5L198.4,347c-6.2,10-3.1,23.1,7,29.3c3.5,2.2,7.4,3.2,11.2,3.2
		c7.1,0,14.1-3.6,18.2-10.1l57.1-92.5c3.1-5.1,4-11.3,2.3-17c-1.6-5.8-5.6-10.5-10.9-13.2l-58.6-29.8l61.6-65.9l46.5,39.4
		c3.9,3.3,8.6,4.9,13.3,4.9c5.1,0,10.1-1.9,14-5.5l53.4-49.7c8.3-7.8,8.8-20.8,1.1-29.1c-4.1-4.3-9.6-6.6-15.1-6.6
		c-5,0-10.1,1.8-14,5.5l-40,37.2C345.4,147.1,245.3,52.9,227.8,35L227.8,35z M227.8,35"/>
    </g>
</svg>
