<svg version="1.1" id="q_seven_bg" xmlns="http://www.w3.org/2000/svg" x="0px" y="0px"
     viewBox="0 0 323.8 386.3">
    <g>
        <path class="st0" d="M190.1,21.8c0,12-9.7,21.7-21.8,21.7c-12,0-21.8-9.7-21.8-21.7c0-12,9.8-21.8,21.8-21.8
		C180.5,0,190.1,9.8,190.1,21.8L190.1,21.8z M190.1,21.8"/>
        <path class="st0" d="M86.4,29l53.1,54.5l-0.1,150.6c0,6.9,5.6,12.5,12.4,12.5c6.9,0,12.4-5.6,12.4-12.5l-0.1-100.6h5.6v100.8
		l0.1,0.1c0.1,6.8,5.6,12.2,12.3,12.2c6.8,0,12.3-5.6,12.3-12.4l-0.1-150.5L247.9,29c0-0.1,0-0.1,0.1-0.1c3.6-3.6,3.6-9.4,0-13
		c-3.6-3.5-9.4-3.5-13,0l-0.1,0.1l-34.3,34.7h-66.8L99.3,15.9h-0.1c-3.6-3.6-9.4-3.6-13-0.1c-3.5,3.7-3.5,9.4,0,13
		C86.3,29,86.3,29,86.4,29L86.4,29z M86.4,29"/>
        <path class="st0" d="M74.8,73.8c0,12-9.7,21.8-21.8,21.8c-12,0-21.7-9.8-21.7-21.8c0-12,9.7-21.7,21.7-21.7
		C65.1,52.1,74.8,61.8,74.8,73.8L74.8,73.8z M74.8,73.8"/>
        <path class="st0" d="M73.8,102.6H30.2C-1.1,103.1,0,126.1,0,126.1v53.5h0.1c0,0.1-0.1,0.3-0.1,0.4c0,5,4.1,9.2,9.2,9.2
		c5,0,9.2-4.2,9.2-9.2v-49.9h5.8l-0.1,155.8c0,6.9,5.6,12.5,12.4,12.5c6.8,0,12.4-5.6,12.4-12.5l-0.1-100.6h5.6v100.7l0.1,0.1
		c0.1,6.7,5.6,12.2,12.3,12.2c6.8,0,12.3-5.5,12.3-12.3l-0.1-156.2h6v49.8c0,5.1,4.1,9.2,9.2,9.2c5,0,9.1-4.1,9.1-9.2v-53.6
		C101.5,102.2,73.8,102.6,73.8,102.6L73.8,102.6z M73.8,102.6"/>
        <path class="st0" d="M295.1,87.1c0,12.1-9.8,21.8-21.8,21.8c-12,0-21.8-9.7-21.8-21.8c0-12,9.8-21.8,21.8-21.8
		C285.4,65.3,295.1,75.1,295.1,87.1L295.1,87.1z M295.1,87.1"/>
        <path class="st0" d="M294.1,115.9h-43.6c-31.3,0.6-30.2,23.5-30.2,23.5v53.5h0.1c0,0.1-0.1,0.3-0.1,0.4c0,5.1,4.1,9.2,9.2,9.2
		c5.1,0,9.2-4.1,9.2-9.2c0-0.1,0-0.3,0-0.4v-49.5h5.8l-0.1,155.9c0,6.8,5.6,12.4,12.4,12.4c6.8,0,12.4-5.6,12.4-12.4V198.8h5.6
		v100.6l0.1,0.1c0.1,6.7,5.6,12.2,12.3,12.2c6.8,0,12.3-5.6,12.3-12.3l-0.1-156.2h6V193c0,5.1,4.1,9.2,9.2,9.2
		c5.1,0,9.2-4.1,9.2-9.2v-53.6C321.8,115.5,294.1,115.9,294.1,115.9L294.1,115.9z M294.1,115.9"/>
        <path class="st0" d="M123.2,386.3h83.1v-135h-83.1V386.3z M163.4,306.2h4.7v40.4h-5.3v-35.3h-0.1l-7.1,3.8l-1-4.2L163.4,306.2z
		 M163.4,306.2"/>
        <path class="st0" d="M230.6,386.3h83v-67.5h-83V386.3z M262.6,368.6c1.6,1,5.2,2.6,9,2.6c7,0,9.2-4.5,9.1-7.9
		c0-5.6-5.2-8.1-10.4-8.1h-3.1v-4.1h3.1c4,0,9-2,9-6.9c0-3.3-2-6.1-7.1-6.1c-3.3,0-6.4,1.4-8.1,2.6l-1.5-3.9
		c2.2-1.6,6.2-3.2,10.6-3.2c7.9,0,11.5,4.7,11.5,9.7c0,4.1-2.5,7.7-7.5,9.5v0.1c4.9,1,9,4.8,9,10.5c0,6.4-5,12.1-14.7,12.1
		c-4.6,0-8.5-1.4-10.6-2.7L262.6,368.6z M262.6,368.6"/>
        <path class="st0" d="M10.2,386.3h83v-83h-83V386.3z M38.8,364.1l4.3-4.2c10.4-9.8,15-15.1,15.1-21.1c0-4.1-2-7.9-8-7.9
		c-3.7,0-6.8,1.9-8.6,3.4l-1.8-3.8c2.8-2.4,6.8-4.2,11.5-4.2c8.7,0,12.3,6,12.3,11.8c0,7.5-5.3,13.5-13.9,21.7l-3.2,3v0.1h18.1v4.5
		H38.8V364.1z M38.8,364.1"/>
    </g>
</svg>
