<svg version="1.1" id="q_six_bg" xmlns="http://www.w3.org/2000/svg" x="0px" y="0px"
     viewBox="0 0 362 467.5">
    <style type="text/css">
        .st0 {
            fill: #FFFFFF;
        }
    </style>
    <g>
        <path class="st0" d="M146.3,34.7h151.5c6.6,0,12-5.4,12-12v-0.2c0-6.6-5.4-12-12-12H146.3c-6.6,0-12,5.4-12,12v0.2
		C134.2,29.3,139.6,34.7,146.3,34.7L146.3,34.7z M146.3,34.7"/>
        <path class="st0" d="M134.2,68.7c0,6.6,5.4,12,12,12H350c6.6,0,12-5.4,12-12v-0.2c0-6.6-5.4-12-12-12H146.2c-6.6,0-12,5.4-12,12
		V68.7z M134.2,68.7"/>
        <path class="st0" d="M134.2,114.6c0,6.6,5.4,12,12,12H350c6.6,0,12-5.4,12-12v-0.2c0-6.6-5.4-12-12-12H146.2c-6.6,0-12,5.4-12,12
		V114.6z M134.2,114.6"/>
        <path class="st0" d="M134.2,183.8c0,6.6,5.4,12,12,12h151.5c6.6,0,12-5.4,12-12v-0.2c0-6.6-5.4-12-12-12H146.3c-6.6,0-12,5.4-12,12
		L134.2,183.8z M134.2,183.8"/>
        <path class="st0" d="M134.2,229.8c0,6.6,5.4,12,12,12h109.5c6.6,0,12-5.4,12-12v-0.2c0-6.6-5.4-12-12-12H146.3c-6.6,0-12,5.4-12,12
		L134.2,229.8z M134.2,229.8"/>
        <path class="st0" d="M134.2,275.7c0,6.6,5.4,12,12,12H350c6.6,0,12-5.4,12-12v-0.2c0-6.6-5.4-12-12-12H146.2c-6.6,0-12,5.4-12,12
		V275.7z M134.2,275.7"/>
        <path class="st0" d="M134.2,354.4c0,6.5,5.2,11.7,11.7,11.7h197.9c6.5,0,11.7-5.2,11.7-11.7v-0.2c0-6.5-5.2-11.7-11.7-11.7H145.9
		c-6.5,0-11.7,5.2-11.7,11.7V354.4z M134.2,354.4"/>
        <path class="st0" d="M134.2,399.1c0,6.5,5.2,11.7,11.7,11.7h171.6c6.5,0,11.7-5.2,11.7-11.7v-0.2c0-6.5-5.2-11.7-11.7-11.7H145.9
		c-6.5,0-11.7,5.2-11.7,11.7V399.1z M134.2,399.1"/>
        <path class="st0" d="M134.2,443.7c0,6.5,5.2,11.7,11.7,11.7h78.3c6.5,0,11.7-5.2,11.7-11.7v-0.2c0-6.5-5.2-11.7-11.7-11.7h-78.3
		c-6.5,0-11.7,5.2-11.7,11.7V443.7z M134.2,443.7"/>
        <path class="st0" d="M0.1,75.7v61.4h97.3V75.7c0-5.1-4.5-9.3-9.9-9.3H76.4c-2,0-3.8,0.9-4.9,2.4L55.2,90.2l-4-7.7L57.6,70
		c0.9-1.7-0.4-3.7-2.5-3.7H42.4c-2,0-3.3,2-2.5,3.7l6.3,12.4l-3.9,7.6L26.5,68.8c-1.1-1.5-3-2.4-4.9-2.4H9.9
		C4.6,66.4,0.1,70.5,0.1,75.7L0.1,75.7z M0.1,75.7"/>
        <path class="st0" d="M48.8,59.6c16.4,0,29.8-13.4,29.8-29.8C78.6,13.4,65.2,0,48.8,0C32.4,0,19,13.3,19,29.8
		C19,46.2,32.4,59.6,48.8,59.6L48.8,59.6z M48.8,59.6"/>
        <path class="st0" d="M0.1,298.2h97.3v-61.4c0-5.1-4.5-9.3-9.9-9.3H76.4c-2,0-3.8,0.9-4.9,2.4l-16.3,21.4l-4-7.7l6.3-12.4
		c0.9-1.7-0.4-3.7-2.5-3.7H42.4c-2,0-3.3,2-2.5,3.7l6.3,12.4l-3.9,7.6l-15.8-21.3c-1.1-1.5-3-2.4-4.9-2.4H9.9
		c-5.5,0-9.9,4.2-9.9,9.3L0.1,298.2z M0.1,298.2"/>
        <path class="st0" d="M19,190.9c0,16.4,13.4,29.8,29.8,29.8c16.4,0,29.8-13.4,29.8-29.8c0-16.4-13.4-29.8-29.8-29.8
		C32.4,161.1,19,174.4,19,190.9L19,190.9z M19,190.9"/>
        <path class="st0" d="M97.4,406.1c0-5.1-4.5-9.3-9.9-9.3H76.4c-2,0-3.8,0.9-4.9,2.4l-16.3,21.4l-4-7.7l6.3-12.4
		c0.9-1.7-0.4-3.7-2.5-3.7H42.4c-2,0-3.3,2-2.5,3.7l6.3,12.4l-3.9,7.6l-15.8-21.3c-1.1-1.5-3-2.4-4.9-2.4H9.9
		c-5.5,0-9.9,4.2-9.9,9.3v61.4h97.3L97.4,406.1z M97.4,406.1"/>
        <path class="st0" d="M19,360.2c0,16.4,13.4,29.8,29.8,29.8c16.4,0,29.8-13.4,29.8-29.8c0-16.4-13.4-29.8-29.8-29.8
		C32.4,330.4,19,343.7,19,360.2L19,360.2z M19,360.2"/>
    </g>
</svg>
