<svg version="1.1" id="Layer_1" xmlns="http://www.w3.org/2000/svg" x="0px" y="0px"
     viewBox="0 0 629.2 301.5">
    <style type="text/css">
        .st0 {
            fill: #FFFFFF;
        }
    </style>
    <g>
        <path class="st0" d="M452.8,275.5L452.8,275.5c-0.2-1.3-0.5-2.6-0.9-3.8c-3-11.7-10-33-13.2-42.6c-0.3-1.7-0.9-3.3-1.6-4.8
		c0,0-5.1-7.7-9-10c0,0-1.9-1-2.2-1.1c-7.6-3.6-31.1-13-31.1-13c-11.8-5.1-23.9-9.4-36.3-13.8c-2.2,9.2-23.3,70.5-26.6,79l-2.6-57
		c0.9-1.4,1.5-2.9,2.2-4.3l8.8-17.4c-6.2,5.1-15.4,8.4-25.8,8.4c-10.2,0-19.2-3.1-25.4-8.1l8.6,17c0.7,1.4,1.4,3,2.2,4.3l-2.6,57
		c-3.4-8.5-24.4-69.8-26.6-79c-12.4,4.4-24.6,8.8-36.3,13.8c0,0-23.5,9.4-31.1,13c-0.2,0.2-1.9,1-2.2,1.1c0,0-7,5.8-9,9.9
		c0,0-1.3,3.1-1.6,4.8c-3.1,9.5-10.1,30.8-13.2,42.6c-0.4,1.2-0.7,2.5-0.9,3.8c-0.2,1.1-0.2,2.3-0.2,3.4c0,12.6,10.2,22.7,22.7,22.7
		h231.8c12.6,0,22.7-10.2,22.7-22.7C453,277.8,453,276.6,452.8,275.5L452.8,275.5z M452.8,275.5"/>
        <path class="st0" d="M373.8,81.1c0-4,0.8-18.6,0.8-21.8c0-32.4-26.3-58.7-58.7-58.7h-2.6c-32.4,0-58.7,26.3-58.7,58.7
		c0,3.4,0.8,17.8,0.8,21.8c-1.4,0.1-14.6-3.1-13.1,12.6c3,33.4,15.8,27,16.1,27c6.2,20.2,16,33,25.5,41.1
		c14.9,12.7,29.3,14.2,29.6,14.2h2.4c0.2,0,14.6-1.4,29.4-14c9.6-8.2,19.4-21,25.7-41.3c0.4,0,13.1,6.5,16.1-27
		C388.3,78,375.2,81.2,373.8,81.1L373.8,81.1z M373.8,81.1"/>
        <path class="st0" d="M174.6,217.6l0.2-0.5l0.2-0.5c1.8-3.8,4.6-7.6,9-11.9c1-0.9,3.8-3.8,6.2-5.4c0.2-0.1,0.3-0.2,0.5-0.3
		c0.1-0.1,0.2-0.2,0.3-0.2c1.6-1,3.5-1.9,4.2-2.2c5.2-2.5,16.4-7,24.2-10.2c-0.2-0.1-0.5-0.2-0.8-0.4c-0.2-0.1-0.5-0.2-0.7-0.3
		c-6.6-3.1-27.1-11.4-27.1-11.4c-10.2-4.4-20.9-8.2-31.7-12.1c-1.9,8.1-20.3,61.4-23.2,68.9l-2.3-49.7c0.8-1.2,1.3-2.5,1.9-3.8
		l7.7-15.1c-5.4,4.5-13.4,7.4-22.5,7.4c-8.8,0-16.7-2.7-22.2-7l7.5,14.8c0.6,1.3,1.1,2.6,1.9,3.8l-2.3,49.7
		c-2.9-7.4-21.3-60.8-23.2-68.9c-10.8,3.8-21.4,7.6-31.7,12.1c0,0-20.5,8.2-27.1,11.4c-0.2,0.1-0.5,0.2-0.7,0.3
		c-0.6,0.3-1,0.5-1.2,0.6c-3.4,2-6.2,5-7.8,8.6v0.1c-0.6,1.3-1.1,2.7-1.4,4.2c-2.7,8.3-8.8,26.9-11.4,37c-0.3,1-0.6,2.2-0.8,3.3
		c-0.2,1-0.2,2-0.2,3c0,11,8.9,19.8,19.8,19.8h140.7c3.4-11.8,8.7-28.5,12.1-38.5C173,221.7,174,219,174.6,217.6L174.6,217.6z
		 M174.6,217.6"/>
        <path class="st0" d="M71.5,104.8c5.4,17.5,13.9,28.7,22.2,35.8c13,11.1,25.5,12.3,25.8,12.3h2.1c0.2,0,12.7-1.2,25.6-12.2
		c8.4-7.1,16.9-18.3,22.4-36c0.3,0,11.4,5.7,14.1-23.4c1.2-13.8-10.2-11-11.4-11c0-3.5,0.7-16.2,0.7-19C173,23,150,0,121.8,0h-2.2
		C91.3,0,68.3,23,68.3,51.2c0,2.9,0.7,15.6,0.7,19c-1.3,0.1-12.7-2.7-11.4,11C60.1,110.5,71.2,104.8,71.5,104.8L71.5,104.8z
		 M71.5,104.8"/>
        <path class="st0" d="M628.8,222.9c-0.2-1.8-0.4-3.7-0.6-5.5c0,0-1-5.9-1.3-6.9c-2.4-10.5-8.9-18.1-17.7-24.1c-1.7-1.1-3.4-2.1-5-3
		c-2.2-1.2-36.6-12.5-37.5-12.8c0.2,1.2,0.3,2.5,0.4,3.9c4.8,3.4,18.9,15.5,12.5,38.2c0,0-10.2-12.1-20.5-13.6
		c-9.8,17.1-26.6,38.9-35.6,44.6c-9-5.7-25.8-27.4-35.6-44.6c-10.3,1.5-20.5,13.6-20.5,13.6c-6.4-22.7,7.7-34.8,12.5-38.2
		c0.1-1.4,0.2-2.7,0.4-3.9c-0.9,0.3-35.3,11.6-37.5,12.8c-1.8,0.9-3.4,1.8-5,3c-3.4,2.3-6.5,4.9-9.1,7.8c2.1,0.9,3.8,1.7,5.3,2.3
		c0.6,0.2,2.2,1,3.8,2c3.6,2.2,7.1,5.4,11,10.2c3.8,4.9,5.1,7.2,5.8,8.7c1,2.2,1.8,4.5,2.3,6.8c3.3,10,8.7,26.6,12,38.4h134.2
		c7.9,0,14.6-2.4,20.2-8.3c4.3-4.6,5.6-10.2,5.9-16.2c0.1-1,0.2-5.6,0.2-5.6S628.8,223,628.8,222.9L628.8,222.9z M628.8,222.9"/>
        <path class="st0" d="M461.1,114.9c0.8,3,1.4,5.8,1.4,8.4c0,0.9-0.1,1.8-0.2,2.6c-0.7,2.5-6,11-6.9,12.4c9.4,10.1,21.7,12.4,33.8,15
		c3.6,0.7,7.3,1.2,11.2,1.7l3.8,0.7l-6.2,18.1c0,0-0.2,26.4,25.4,42.5h0.2c25.5-16.1,25.4-42.5,25.4-42.5l-6.2-18.1l3.8-0.7
		c3.9-0.5,7.6-1,11.2-1.7c12.2-2.6,24.6-4.9,33.8-15c-0.9-1.4-6.2-9.9-6.9-12.4c-0.2-0.9-0.2-1.8-0.2-2.6c0-2.6,0.5-5.4,1.4-8.4
		c0.8-2.8,1.7-5.6,2.6-8.5c4.2-9.2,6.4-19.4,6.4-30.2c0-39.9-31.8-72.4-71.2-73.1h-0.2c-39.4,0.7-71.2,33.2-71.2,73.1
		c0,10.7,2.3,21,6.4,30.2C459.4,109.3,460.3,112.1,461.1,114.9L461.1,114.9z M461.1,114.9"/>
    </g>
</svg>
