<svg version="1.1" id="Layer_1" xmlns="http://www.w3.org/2000/svg" x="0px" y="0px"
     viewBox="0 0 629.2 301.5">
    <style type="text/css">
        .st0 {
            fill: #FFFFFF;
        }
    </style>
    <g>
        <path class="st0" d="M176.7,275.5c-0.2,1.1-0.2,2.3-0.6,3.2c0,12.5,10.1,22.7,22.7,22.7h231.8c12.5,0,22.7-10.1,22.7-22.7
		c0-1.1,0-2.3-0.2-3.4c-0.2-1.3-0.5-2.6-0.9-3.8c-3.1-11.8-10.1-33.1-13.2-42.6c-0.3-1.7-1.6-4.8-1.6-4.8c-2-4.1-9-9.9-9-9.9
		c-0.3-0.1-2-0.9-2.2-1.1c-7.6-3.6-31.1-13-31.1-13c-11.7-5-23.9-9.4-36.3-13.8c-2.2,9.2-23.2,70.5-26.6,79l-2.6-57
		c0.8-1.3,1.5-2.9,2.2-4.3l8.6-17c-6.2,5-15.2,8.1-25.4,8.1c-10.4,0-19.6-3.3-25.8-8.4l8.8,17.4c0.7,1.4,1.3,2.9,2.2,4.3l-2.6,57
		c-3.3-8.5-24.4-69.8-26.6-79c-12.4,4.4-24.5,8.7-36.3,13.8c0,0-23.5,9.4-31.1,13c-0.3,0.1-2.2,1.1-2.2,1.1c-3.9,2.3-9,10-9,10
		c-0.7,1.5-1.3,3.1-1.6,4.8c-3.2,9.6-10.2,30.9-13.2,42.6C177.2,272.9,176.9,274.2,176.7,275.5L176.7,275.5L176.7,275.5z"/>
        <path class="st0" d="M255.7,81.1c-1.4,0.1-14.5-3.1-13.3,12.6c3,33.5,15.7,27,16.1,27c6.3,20.3,16.1,33.1,25.7,41.3
		c14.8,12.6,29.2,14,29.4,14h2.4c0.3,0,14.7-1.5,29.6-14.2c9.5-8.1,19.3-20.9,25.5-41.1c0.3,0,13.1,6.4,16.1-27
		c1.5-15.7-11.7-12.5-13.1-12.6c0-4,0.8-18.4,0.8-21.8c0-32.4-26.3-58.7-58.7-58.7h-2.6c-32.4,0-58.7,26.3-58.7,58.7
		C254.9,62.5,255.7,77.1,255.7,81.1L255.7,81.1z"/>
        <path class="st0" d="M454.9,217.6c0.6,1.4,1.6,4.1,1.9,6.6c3.4,10,8.7,26.7,12.1,38.5h140.7c10.9,0,19.8-8.8,19.8-19.8
		c0-1,0-2-0.2-3c-0.2-1.1-0.5-2.3-0.8-3.3c-2.6-10.1-8.7-28.7-11.4-37c-0.3-1.5-0.8-2.9-1.4-4.2v-0.1c-1.6-3.6-4.4-6.6-7.8-8.6
		c-0.2-0.1-0.6-0.3-1.2-0.6c-0.2-0.1-0.5-0.2-0.7-0.3c-6.6-3.2-27.1-11.4-27.1-11.4c-10.3-4.5-20.9-8.3-31.7-12.1
		c-1.9,8.1-20.3,61.5-23.2,68.9l-2.3-49.7c0.8-1.2,1.3-2.5,1.9-3.8l7.5-14.8c-5.5,4.3-13.4,7-22.2,7c-9.1,0-17.1-2.9-22.5-7.4
		l7.7,15.1c0.6,1.3,1.1,2.6,1.9,3.8l-2.3,49.7c-2.9-7.5-21.3-60.8-23.2-68.9c-10.8,3.9-21.5,7.7-31.7,12.1c0,0-20.5,8.3-27.1,11.4
		c-0.2,0.1-0.5,0.2-0.7,0.3c-0.3,0.2-0.6,0.3-0.8,0.4c7.8,3.2,19,7.7,24.2,10.2c0.7,0.3,2.6,1.2,4.2,2.2c0.1,0,0.2,0.1,0.3,0.2
		c0.2,0.1,0.3,0.2,0.5,0.3c2.4,1.6,5.2,4.5,6.2,5.4c4.4,4.3,7.2,8.1,9,11.9l0.2,0.5L454.9,217.6L454.9,217.6z"/>
        <path class="st0" d="M558,104.8c0.3,0,11.4,5.7,13.9-23.6c1.3-13.7-10.1-10.9-11.4-11c0-3.4,0.7-16.1,0.7-19
		c0-28.2-23-51.2-51.3-51.2l-2.2,0c-28.2,0-51.2,23-51.2,51.3c0,2.8,0.7,15.5,0.7,19c-1.2,0-12.6-2.8-11.4,11
		c2.7,29.1,13.8,23.4,14.1,23.4c5.5,17.7,14,28.9,22.4,36c12.9,11,25.4,12.2,25.6,12.2h2.1c0.3,0,12.8-1.2,25.8-12.3
		C544.1,133.5,552.6,122.3,558,104.8L558,104.8z"/>
        <path class="st0" d="M0.7,222.9c0,0.1-0.6,9.6-0.6,9.6s0.1,4.6,0.2,5.6c0.3,6,1.6,11.6,5.9,16.2c5.6,5.9,12.3,8.3,20.2,8.3h134.2
		c3.3-11.8,8.7-28.4,12-38.4c0.5-2.3,1.3-4.6,2.3-6.8c0.7-1.5,2-3.8,5.8-8.7c3.9-4.8,7.4-8,11-10.2c1.6-1,3.2-1.8,3.8-2
		c1.5-0.6,3.2-1.4,5.3-2.3c-2.6-2.9-5.7-5.5-9.1-7.8c-1.6-1.2-3.2-2.1-5-3c-2.2-1.2-36.6-12.5-37.5-12.8c0.2,1.2,0.3,2.5,0.4,3.9
		c4.8,3.4,18.9,15.5,12.5,38.2c0,0-10.2-12.1-20.5-13.6c-9.8,17.2-26.6,38.9-35.6,44.6c-9-5.7-25.8-27.5-35.6-44.6
		c-10.3,1.5-20.5,13.6-20.5,13.6c-6.4-22.7,7.7-34.8,12.5-38.2c0.1-1.4,0.2-2.7,0.4-3.9c-0.9,0.3-35.3,11.6-37.5,12.8
		c-1.6,0.9-3.3,1.9-5,3c-8.8,6-15.3,13.6-17.7,24.1c-0.3,1-1.3,6.9-1.3,6.9C1.1,219.2,0.9,221.1,0.7,222.9L0.7,222.9z"/>
        <path class="st0" d="M168.4,114.9c0.8-2.8,1.7-5.6,2.4-8.5c4.1-9.2,6.4-19.5,6.4-30.2c0-39.9-31.8-72.4-71.2-73.1h-0.2
		C66.4,3.8,34.6,36.3,34.6,76.2c0,10.8,2.2,21,6.4,30.2c0.9,2.9,1.8,5.7,2.6,8.5c0.9,3,1.4,5.8,1.4,8.4c0,0.8,0,1.7-0.2,2.6
		c-0.7,2.5-6,11-6.9,12.4c9.2,10.1,21.6,12.4,33.8,15c3.6,0.7,7.3,1.2,11.2,1.7l3.8,0.7l-6.2,18.1c0,0-0.1,26.4,25.4,42.5h0.2
		c25.6-16.1,25.4-42.5,25.4-42.5l-6.2-18.1l3.8-0.7c3.9-0.5,7.6-1,11.2-1.7c12.1-2.6,24.4-4.9,33.8-15c-0.9-1.4-6.2-9.9-6.9-12.4
		c-0.1-0.8-0.2-1.7-0.2-2.6C167,120.7,167.6,117.9,168.4,114.9L168.4,114.9z"/>
    </g>
</svg>
