<svg version="1.1" id="q_two_bg" xmlns="http://www.w3.org/2000/svg" x="0px" y="0px"
     viewBox="0 0 484 484">
    <style type="text/css">
        .st0 {
            fill: #FFFFFF;
        }
    </style>
    <g>
        <g>
            <path class="st0" d="M185,208.2l-42.7,10.1c-3.3-7.5-6.6-14.1-9.8-20c-4.6-8.4-7.5-15.3-8.9-20.9c-1.8-7.6-2.3-14.7-1.8-21.3
			c-6.8-0.3-10.8-3.1-12-8.2c-1.1-4.8-0.9-9.3,0.7-13.8l2-0.5c0.9,1.7,2,2.9,3.3,3.4c1.3,0.5,3.7,0.7,7.2,0.6
			c5.3-0.1,8.8,3.3,10.4,10.1c0.4,1.8,0.5,3.2,0.5,4.2c-3.1,1.9-5.9,3-8.7,3.7c0.1,5.5,0.9,11.5,2.4,18c2,8.3,7.2,17.5,15.9,27.7
			l2.3-0.7c3.9-14.4,6.2-31.8,6.9-52.4c-6.9-0.8-10.9-3.8-12.1-9c-1-4.4-0.7-8.7,1.1-12.8l2-0.5c1.3,2.7,3.1,4.1,5.5,4.1l5-0.1
			c5.4-0.1,8.8,2.8,10.2,8.7c0.5,2,0.7,3.9,0.6,5.6c-2.2,1.2-4.9,2.3-8.3,3.1c0.3,18.3-1.4,35.7-5.2,51.8l24.3-5.8
			c0.5-8.3,4.3-21.2,11.3-38.5c1.8-4.3,2.4-7.9,1.8-10.4c-0.6-2.6-2.4-4.2-5.4-4.4l-1-0.1c-5.5-0.6-8.7-3-9.7-7.3
			c-1.2-4.9-0.7-9.5,1.4-14.1l1.9-0.5c1,2.3,2.6,3.7,5,3.9l4.6,0.4c5.3,0.5,8.5,3.4,9.8,8.8c1.1,4.6,0.2,11.1-2.9,19.6
			c-3,8.5-5.3,17.6-6.8,27.2C184.9,188.2,184.4,198.1,185,208.2z M162.8,172c-0.3-1.3-0.3-2.4,0.1-3.4c0.4-1.1,0.9-2,1.7-2.8
			c0.8-0.8,1.8-1.4,3-1.6c1.3-0.3,2.4-0.3,3.4,0.1c1.1,0.4,2,0.9,2.8,1.7s1.4,1.8,1.6,3c0.3,1.2,0.2,2.3-0.1,3.4
			c-0.4,1.1-1,2-1.8,2.8c-0.8,0.8-1.8,1.4-3,1.6c-1.3,0.2-2.4,0.2-3.4-0.1c-1.1-0.4-2-0.9-2.8-1.7
			C163.6,174.1,163.1,173.1,162.8,172z M173.2,107.3c-0.2-1.3-0.2-2.4,0.1-3.4c0.4-1.1,0.9-2,1.7-2.8c0.8-0.8,1.8-1.4,3-1.6
			c1.6-0.4,3.1-0.1,4.7,0.6s2.7,2.1,3.2,4.2c0.4,1.8,0.2,3.3-0.8,4.9c-1,1.6-2.3,2.5-4,2.9c-1.2,0.2-2.3,0.1-3.4-0.1
			c-1.1-0.4-2-0.9-2.8-1.7C174,109.5,173.5,108.5,173.2,107.3z"/>
        </g>
        <path class="st0" d="M186.2,6.5C56.1,37.4-24.3,167.7,6.5,297.8s161.2,210.5,291.3,179.7s210.5-161.2,179.7-291.3
		S316.3-24.3,186.2,6.5z M44.4,187.8C33.9,143.7,76.3,95.9,139,81c62.8-14.9,122,8.9,132.5,53c9,37.9-21,78.6-69.5,98.7l5.4,22.8
		c-5,0.6-10.1,1.5-15.2,2.7c-1.8,0.4-3.5,0.8-5.1,1.3l-36.9-14.6C98.1,248.4,53.3,225.6,44.4,187.8z M302.3,369.9
		c-10.8,16.8-28,31.3-49.6,40.7l-1.1,0.5l8.1,34.3l-53.1-24l-0.4,0c-23.3,1.2-45.3-4.1-62.4-14.2c-17.1-10.2-29.3-25.2-33.7-43.7
		c-5.1-21.6,1.4-43.8,16.4-62.5c14.9-18.6,38.2-33.5,66.3-40.2l0,0c28.1-6.7,55.6-3.8,77.3,6.1c21.7,10,37.6,26.9,42.7,48.5
		C317.4,334.1,313.1,353.1,302.3,369.9z M416,299.5l-57.2,55.1l-9.2-38.9c-12.6-0.5-24.5-3-35.4-7.2c-6.8-19.6-22.3-34.8-42.5-44.1
		c-2.8-1.3-5.6-2.5-8.6-3.5c-1.5-3.8-2.8-7.6-3.8-11.5c-11.5-48.4,25.5-98.5,82.6-112.1s112.6,14.7,124.1,63.1
		C474.9,238.7,453.5,278.1,416,299.5z"/>
        <g>
            <path class="st0" d="M193,348.9c2.5,10.9,7.2,18.8,14.1,23.8c6.8,5,13.8,6.6,21.1,4.9c4.8-1.1,8.6-3.5,11.6-7
			c3-3.5,4.8-8.7,5.7-15.7l2.9,1c0.6,7.6-1.1,15-5.1,22.4c-3.9,7.3-10,11.9-18.1,13.8c-8.9,2.1-17.2,0.5-25.1-4.9
			c-8-5.4-13.2-13.8-16-25.5c-3-12.6-2.1-23.1,2.7-31.7c4.8-8.5,12-13.9,21.7-16.3c8.3-2,15.6-0.8,22.2,3.4s11,10.8,13.1,19.9
			L193,348.9L193,348.9z M191.9,344.2l34-8c-1.4-4.6-2.8-7.8-4-9.5c-2.1-2.7-4.6-4.6-7.6-5.6c-3-1.1-6-1.2-8.9-0.6
			c-4.5,1.1-8,3.7-10.6,8C191.9,332.6,191,337.9,191.9,344.2z M182.8,281.9l17.9-4.2l15,25.6l-2.8,0.7L182.8,281.9z"/>
        </g>
        <g>
            <path class="st0" d="M419,234.3l1.8,7.5l-42.2,10l6.1,25.9l-7.7,1.8l-6.1-25.9l-53.5,12.7l-1.8-7.5l19-4.5l-7.4-31l34.5-8.2
			l-4.4-18.5l-29.1,6.9c-3.3,10.2-7.7,19.7-12.7,27.1c-1.7-1-5.2-2.8-7.3-3.5c8.4-11.5,14.6-29.5,16.7-46.5l10.3,0.7
			c-0.3,1.1-1.2,1.6-2.4,1.6c-0.6,4-1.5,8.1-2.5,12.2l69.6-16.5l1.8,7.5l-36.8,8.7l4.4,18.5l34.3-8.1l1.7,7.2l-34.3,8.1l5.6,23.8
			L419,234.3z M342.2,252.5l26.9-6.4l-5.6-23.8l-26.9,6.4L342.2,252.5z"/>
        </g>
    </g>
</svg>
