<svg version="1.1" id="q_two_bg" xmlns="http://www.w3.org/2000/svg" x="0px" y="0px"
     viewBox="0 0 484 484">
    <style type="text/css">
        .st0 {
            fill: #FFFFFF;
        }
    </style>
    <g>
        <g>
            <path class="st0" d="M194.3,196h-43.9c-1.5-8.1-3.2-15.3-4.9-21.7c-2.5-9.2-3.8-16.6-3.8-22.4c0-7.8,1.1-14.8,3.2-21.1
			c-6.5-1.9-9.8-5.5-9.8-10.7c0-4.9,1.3-9.3,3.9-13.3h2.1c0.5,1.9,1.3,3.3,2.4,4.1c1.1,0.8,3.4,1.5,6.9,2.3
			c5.2,1.1,7.8,5.2,7.8,12.2c0,1.8-0.2,3.2-0.5,4.2c-3.4,1.1-6.4,1.6-9.3,1.6c-1.2,5.4-1.8,11.4-1.8,18.1c0,8.5,3,18.7,9.1,30.6
			l2.4-0.1c7.1-13.1,13.4-29.5,18.8-49.4c-6.5-2.4-9.7-6.2-9.7-11.5c0-4.5,1.3-8.6,4-12.2h2.1c0.6,2.9,2.1,4.7,4.4,5.3l4.9,1.1
			c5.3,1.2,7.9,4.8,7.9,10.8c0,2.1-0.2,4-0.7,5.6c-2.4,0.7-5.3,1.1-8.8,1.1c-3.9,17.9-9.6,34.4-17,49.2h25c2.4-8,9.1-19.6,19.9-34.9
			c2.8-3.8,4.2-7.1,4.2-9.7c0-2.7-1.4-4.6-4.2-5.5l-1-0.3c-5.2-1.8-7.8-4.9-7.8-9.3c0-5,1.5-9.4,4.6-13.4h2c0.4,2.5,1.7,4.2,4,5
			l4.4,1.5c5,1.7,7.5,5.3,7.5,10.8c0,4.7-2.4,10.8-7.3,18.4c-4.9,7.6-9.2,15.9-12.9,24.9C198.8,176.5,196.1,186,194.3,196z
			 M181.1,155.6c0-1.3,0.3-2.4,0.9-3.3c0.6-1,1.3-1.7,2.3-2.3c1-0.6,2.1-0.9,3.3-0.9c1.3,0,2.4,0.3,3.3,0.9c1,0.6,1.7,1.3,2.3,2.3
			c0.6,1,0.9,2.1,0.9,3.3c0,1.2-0.3,2.3-0.9,3.3c-0.6,1-1.4,1.7-2.4,2.3c-1,0.6-2.1,0.9-3.3,0.9c-1.3-0.1-2.4-0.4-3.3-0.9
			c-1-0.6-1.7-1.3-2.3-2.3C181.4,157.9,181.1,156.8,181.1,155.6z M206.1,95.1c0.1-1.3,0.4-2.4,0.9-3.3c0.6-1,1.3-1.7,2.3-2.3
			c1-0.6,2.1-0.9,3.3-0.9c1.6,0,3,0.6,4.4,1.7c1.4,1.1,2.1,2.7,2.1,4.8c0,1.8-0.6,3.3-1.9,4.6c-1.3,1.3-2.8,1.9-4.6,1.9
			c-1.2-0.1-2.3-0.4-3.3-0.9c-1-0.6-1.7-1.3-2.3-2.3C206.4,97.4,206.1,96.3,206.1,95.1z"/>
        </g>
        <path class="st0" d="M242,0C108.3,0,0,108.3,0,242c0,133.7,108.3,242,242,242s242-108.3,242-242C484,108.3,375.7,0,242,0z
		 M62.2,143.7c0-45.3,52.3-82.1,116.7-82.1c64.5,0,116.7,36.8,116.7,82.1c0,39-38.6,71.6-90.4,80v23.4c-5-0.6-10.2-0.9-15.4-0.9
		c-1.8,0-3.6,0-5.3,0.1L152,223.6C100.5,215,62.2,182.5,62.2,143.7z M271.2,380.4c-14.4,13.9-34.5,24-57.7,28.2l-1.2,0.2v35.3
		l-46.1-35.6l-0.4-0.1c-23-4.2-43.1-14.4-57.4-28.2c-14.3-13.9-22.7-31.3-22.7-50.3c0-22.2,11.5-42.3,30.4-57
		c18.8-14.7,44.9-23.8,73.8-23.8h0c28.9,0,55,9.1,73.8,23.8c18.8,14.7,30.4,34.8,30.4,57C294.1,349,285.6,366.5,271.2,380.4z
		 M398,338.1l-68.4,40.4v-40c-12.1-3.4-23.1-8.6-32.8-15.2c-2.1-20.6-13.7-39-31.2-52.7c-2.4-1.9-4.9-3.7-7.6-5.4c-0.6-4-1-8-1-12.1
		c0-49.7,47.5-90,106.2-90s106.2,40.3,106.2,90C469.4,292.5,439.5,325.9,398,338.1z"/>
        <g>
            <path class="st0" d="M169.7,334.7c-0.1,11.2,2.7,20,8.2,26.4c5.5,6.4,11.9,9.6,19.4,9.6c4.9,0,9.2-1.4,12.9-4.1
			c3.7-2.7,6.7-7.4,9.2-14l2.6,1.6c-1.2,7.5-4.5,14.4-10.1,20.6c-5.5,6.2-12.5,9.3-20.8,9.3c-9.1,0-16.8-3.5-23.3-10.6
			c-6.5-7.1-9.7-16.5-9.7-28.5c0-12.9,3.3-23,9.9-30.2c6.6-7.2,14.9-10.8,24.9-10.8c8.5,0,15.4,2.8,20.8,8.4
			c5.4,5.6,8.2,13,8.2,22.4H169.7z M169.7,329.9h34.9c-0.3-4.8-0.9-8.2-1.7-10.2c-1.4-3.1-3.4-5.5-6.1-7.2c-2.7-1.8-5.6-2.6-8.5-2.6
			c-4.6,0-8.6,1.8-12.2,5.3C172.4,318.6,170.3,323.6,169.7,329.9z M175.2,267.2h18.4l8.7,28.4h-2.9L175.2,267.2z"/>
        </g>
        <g>
            <path class="st0" d="M416,275.3v7.7h-43.4v26.6h-7.9V283h-55v-7.7h19.5v-31.9h35.5v-19h-29.9c-5.6,9.2-12,17.4-18.6,23.4
			c-1.4-1.4-4.4-3.9-6.3-5.1c10.8-9.3,21-25.3,27-41.4l9.9,3.1c-0.5,1-1.5,1.3-2.7,1c-1.5,3.8-3.3,7.5-5.2,11.3h71.5v7.7h-37.8v19
			h35.3v7.4h-35.3v24.5H416z M337.1,275.3h27.6v-24.5h-27.6V275.3z"/>
        </g>
    </g>
</svg>
