<svg version="1.1" id="splash_bg_svg" xmlns="http://www.w3.org/2000/svg" x="0px" y="0px"
     viewBox="0 0 683.2 406.2">
    <g>
        <path fill="white" class="st0" d="M252,85.3c0,0-15.1,20.8-16.6,28.8c0,0-8.5,8.1-13.6,23c0,0-5.7,12.3-11.2,12.5l-0.4-5.7
		c0,0,6.4-12.2-0.7-18.9c0,0-9.6-8.5-22.2-4.1c0,0-2,0.6-1.8,2.1c0,0-4.2,3-2.3,6.4l0.9,1.8l-1,3.9l-2.2,2.6l1.5,2l0.1,4.3
		c0,0-0.2,1.6,0.6,2l-0.2,4.4c0,0,3.7,2.7,7.6,1.8l-0.4,7.5l-3.6-3.9c0,0-3.3-1.4-5.4-0.9c0,0-9.8-9.8-15.1-17.9
		c0,0-3.4-14.1-8.4-20.4l-5.3-10.3c0,0-1.2-11.9-0.4-15c0,0,2-3.3,0.1-3.3c0,0,0.5-4.5-1.8-1.6c0,0-2.8-1.2-3.3,3.6l-1.4,4.7
		c0,0,0.4-6.3-2.2-4.1v7.7c0,0-1.2,1.7-3.6-1.2c0,0-2.5-0.7-1,2.5l3.3,3.6c0,0,0.4,4.1,3.3,5.2l1.1,2c0,0,3.8,21.9,8.2,28.6
		c0,0,6.4,16.2,9,17.5l-0.1,3.6l2.9,2.5c0,0,8,12.7,8,17c0,0,1.6,44,2.6,49.8l0.1,5.5c0,0-5.4,7.9-3.4,15.5c0,0-1,19.5-1.1,27.8
		l1.1,24.8l-1.1,18.9c0,0,0.5,34.4-1.5,38.5l-3.1,20.5l0.5,3.9c0,0-0.5,3.1,0.1,4.3c0,0,2.5,0.7,2.6-4.3c0,0,3.2-2.1,3.8-4.8
		l1.6-7.7c0,0,10.2-6.6,10.1-11.2c0,0-1.4-3.4-3.6-3.6l-0.9-3.1c0,0,2.6-20.4,3.2-23.5c0,0,7.6-4.5,5.7-22.7l0.2-5.4h9.6l0.2-24.9
		c0,0-0.9-9.3,2.5-10.9c0,0,2.6-2.6,6.4,5.2l14.7,26.1l2,2.3c0,0,5-2,6.1-0.9c1.1,1.1,3.6,2.3,3.6,2.3l2.8,1.1
		c0,0,10.4,20.9,16.6,25.3l12,20c0,0,1.6,9.2,2.9,10.2l1.6,4.4l6.4,17.9c0,0,1.1,5.7,3.6,5c0,0,2.3-0.5,1.7-3.1c0,0,3.1,0.7,2.2-1.7
		c0,0,3.2,0.2,1.7-2.7c0,0,3.3-0.1,1.2-2.8c0,0,2,0.1,0.5-2.6l-3.3-7.5c0,0-1.8-5.3-5.4-6.8c0,0-0.2-6.6-2.8-8.5l-4.8-9.1
		c0,0-10-34.5-14.4-39.3l-6.4-8l-3.6-7.1l-1.6-7.6l-4.1-3.2c0,0,0.7-6.4-1.1-9.7L231,241.8c0,0,0.2-7.1-1.8-7.4l-1.7-11.7
		c0,0-0.9-9.5-2.5-12.8l-2.1-29.1c0,0,3.2-17.2,7.9-23.7l5.5-12.9c0,0,4.2-15.6,5.4-22.4c0,0,15.7-23.5,17.6-33.7l2.6-4.4
		c0,0,4.8-3.9,5.5-7c0,0,8.5-4.7,9.8-6.5c0,0,0.2-1.2-3.3-0.1l-6.9,3.4l5.8-8.6c0,0,2.3-3.2-1.2-2.1l-5.9,6l2.6-7.6
		c0,0-0.1-2.1-1.8-1.4l-4.7,8.5l1.4-7.7c0,0-0.6-2.1-2.3-0.1l-3.9,10.8c0,0-2,1.8-3.1-1.5c0,0-0.1-5-2.8-5l-2,0.2l1.6,3.3l1.4,9.6
		L252,85.3z"/>
        <path fill="white" class="st0" d="M608.9,158.6c7.1-1,10.3,4.2,10.3,4.2l3.6,8.6l2.5,3.4l-1.1,0.4l0.3,4.5l1.9,0.9l0.5-2.7l6.5-4.4
		c0,0,0-1.7,0.2-3c0.2-1.3,0.9-1.9,0.9-1.9l4.5-0.7c0.3-6,4.4-14.5,4.4-14.5l9.3-20.5c0.3-1.9-0.3-10-0.3-10l-1.6-3.4
		c0,0,1.7-1.2,3.5,1.9l0.9,4.1l1.9,0.9l1.4-0.4c0.8-1.9,3.2-7,2.9,0.1c2.2-0.8,4.9-1.2,0.6,2.6l0.2,1.1l0.1,0.4l3,0.2
		c3.5,1,0.3,1.7-2.2,2l0.1,0.4l0.7,1.3c0,0,8.6,1.8,3.7,2.8l-4.4-0.8l-3.2,1.1l-3.1,1.8l-1.4,8.8c0,0-3.1,14.1-5.3,17.8
		c-0.1,0.1-0.1,0.2-0.2,0.3c-2.1,3.2-2.1,3.1-2.1,3.1l-0.3,3.1l0.9,2.5c0,0,4.8,4.1-1.2,7.2l-5.4,4.4c0,0-11.4,10.6-13.1,18
		c1.9,19.3,1.6,19.4,0.9,24.1c0,0.2-0.1,1.8-0.2,1.9c-1,5.3-0.9,4.7-1,4.9c-0.1,0.3-1.7,4-0.3,7.5c0,0,4.3,13.9,7,19.6l7.4,20.4
		c0,0-8.2,5.2-13.6,4.3c0,0,9.9,34.1,12.1,44.5l2.2,7.2c0,0,13.3,18.2,16.2,25.1c0,0,6.3,15.4,12.2,21.2c0,0,6.7,7.3,9.2,9.6
		c0,0,1.9,1.9,1.3,2.7c0,0,2.5,2.9,0.3,4.2c0,0,2.1,4.7-0.4,4.7c0,0-7.1,0.8-9-4.1c-2.1-5.6-6.5-10.1-6.5-10.1
		c-10.6,0.6-8.8-5.3-8.8-5.3l0.3-5.9c-1-3.1-10.7-13.9-10.7-13.9c-12.2-7.2-15.7-22.4-15.7-22.4c-2.6-1.4-7.1-8.6-7.1-8.6l-7.8-15.7
		l-11-17.3c-9-11.3-16-4.5-16-4.5l-10.6,8.6c-3.8,1.7-20.7,19.1-20.7,19.1c-3.2,4.5-8.7,9-8.7,9c-3.1,3.1-19.4,16.9-19.4,16.9
		c-5.9,6.2-21,14.7-21,14.7c-5.4,1.9-12.7,13.3-12.7,13.3c1.3,5.8-5.7,6.6-5.7,6.6c-2,0.3-7.9,10.6-7.9,10.6l-1.1,2.8
		c-7.7,5.9-6-0.8-6-0.8c-3.5,0.8-3-0.8-3-0.8c-4,0.1-1.8-1.6-1.8-1.6c-2.5,0.3-1.2-2.5-1.2-2.5c-2-0.1,0.9-2.9,0.9-2.9l8.8-7.7
		c3.1-1.9,7.8-7.1,7.8-7.1l19.9-25.4c9.6-9.6,27.3-24.7,27.3-24.7c5.2-3.1,12-15.4,12-15.4l13.6-22.1l-0.7-1.6l1.9-2.6l8.4-9.9
		l11.8-18.9c-0.6-2.7,1.1-11.6,1.1-11.6c1.4-2.7,2.9-9,2.9-9c-3.3-8.3-1.9-12.4-1.9-12.4l-0.5-17.6c-2.4-4-4.1-14.6-4.1-14.6
		c-2.1-2.1-2.3-10.2-2.3-10.2c-5.1-4.7-4.9-13.3-4.9-13.3l-1.5-5.6c-2.1-2,0.1-7.1,0.1-7.1l-1.6-3.9c-4.7-4.9-10.4-28.2-10.4-28.2
		c-0.8-5.2-10.4-13.1-10.4-13.1c-18.1-5.2-1.2-3.1-1.2-3.1l-3.2-1.7c-8.9-2.4-4.6-3.7-4.6-3.7c-1-0.8,0.4-1.6,0.4-1.6
		c2.5-0.3,10.6,2.7,10.6,2.7l-5.7-3.8c-0.9-1.4,0.8-1.3,0.8-1.3c3.9-0.3,14,9.7,14,9.7l2.6-2.9c5.1-2.6,1.2,3.8,1.2,3.8
		c-1.4,3.5,1.3,15.4,1.3,15.4l9.4,17c3.6,6.6,7.4,16,7.4,16l1.4,1c6.3,0.9,1.9,5.4,1.9,5.4l1.4,2.4c5.4,2,4.6,9.4,4.6,9.4
		s2.3-9,5.5-9.9c0,0,2.1-5.4,6.9-3.7C602.9,160.3,605.4,157.1,608.9,158.6z"/>
        <path fill="white" class="st0" d="M359.6,36.3l-1.4-12.7l-1.1-6l-1.9-3.3l-5.3-4.2c0,0-1-0.4-1-1.8l-0.2-4.5l0.3-1.4l1.2-1.4l3.6-1l0.7,0.2
		c0,0,3.1-0.7,3.4,0.7c0,0,3.1,0,3.2,1.7l1.5,1.7c0,0,1.4,1.8,0.8,4.1l0.7,7.1c0,0,5.5,17.9,5.7,22.7l1.8,7.4c0,0,1,4.7,0.7,6.6
		l0.1,10.8c0,0,1.2,10.7-2.2,18.6c0,0-1.2,3.9-1.2,6.6l0.6,11.6l2.5,1c0,0-1.2,6.3-3.1,6.9c0,0-1.5,6.5-2.4,6.9l-1.4,4.5l-1.3,8.5
		l-1.7,25.1c0,0-0.2,12.4,0.7,15.9c0,0,1.9,3.3,1.9,5.7l1.4,4c0,0,3.3,5.5,3.4,11.3l0.7,10.6l4.5,25.3c0,0,3.4,16.3,2.2,20.7
		l-0.4,4.2c0,0-0.4,1.9-1.7,1.7c0,0,0.9,9.5-1.7,13.9l-9.5,11l0.3,3.1l0.4,2.8l5.8,10.8c0,0,2.8,4.1,2,6.1c0,0,3.1,12.7-3.4,15.8
		c0,0-5.9,2.6-10.3-4.7c0,0-2.9-4.9-2.9-5.2c0-0.2-1.4-2.2-1.2-6.5c0,0,0.4-6-1.3-8.1c0,0-5.1-8-6-10.9c-0.9-2.9-0.9-8,3.1-8.8
		l3.9-0.2c0,0-4.7-13.5,1.2-16.5l-1-0.7c0,0-2.4-1.4-3-4.9l-0.7-6.5l-3.9-13.1l-1.7-7.7c0,0-5.7-5.2-6.7-12.4c0,0-2.2,0.2-3.3-0.3
		c0,0-2.6,12.2-6.6,14.9c0,0-2,13.1-4.9,16.5l-0.5,3c0,0,0.5,2.6-0.2,4.1l-0.5,4.1l-2.3,4.8c0,0,6,1.8,5.4,20.9l1.2,2.8
		c0,0,2.9-3.7,6.1-2.6c0,0,6.5,2.5,5.6,8.4c0,0-1.6,7.4-3.1,9.1c0,0-1.6,3.3,0.1,6.6c0,0,5.7,14.1-4.2,21.5c0,0-6.3,6-9.2-9.7
		c0,0-1.7-9.9-0.9-14.3c0.8-4.4,1.6-3-0.7-7.4c0,0-5.3-9-5.4-9.2c-0.1-0.2-9-10.1-10.9-15.9c0,0-4-8.1-3.8-9.2l-0.9-0.1
		c0,0-2-7.1-1.7-11.4l0.3-9.2l0.9-7.2c0,0,1.6-16.2,1.6-16.3c0-0.2,2.5-8.9,2.5-8.9l1.2-11.2c0,0,0.1-8.1,2.1-11.3l0.6-5.7
		c0,0,3.2-11.1,3.4-11.4c0.2-0.3,0.7-6.8,0.7-6.8l0.2-9.3c0,0-9.9,10.1-18.6,11.9c0,0-4.2,0.6-4-5.3l1.8-9.2c0,0,5.2-13.7,6.9-15.4
		c0,0,2.2-19.6,10.6-24.3c0,0,3.9-1.7,6.1-0.7c0,0,11-1.4,11.6-3.8c0,0-1.4-4.5-2.1-8.5c0,0-5.3,0.9-5.2-4.6l-0.7-2.3
		c0,0-2.2-14.4,1.6-14.9c0,0,6.9-9,10.9-8.9c0,0,3.5,0.6,4,0c0.5-0.6,3.8-4.1,8.9,3.4l4.3,6.7c0,0,3.9,1.1,2.5,4c0,0,1,9-1.6,9.3
		c0,0,1.5,2.6-0.1,3.9l-0.2,2.1l3.4-2.3c0,0,3.5-5,4.4-5.6c0,0,1.8-23.7,4.1-29.2L359.6,36.3z"/>
        <path fill="white" class="st0" d="M138.6,328.7c0,0-7.7-16.8-18.6-15.1c0,0-3.1,0.1-6.4-1.9l-6.3-4.6c0,0-5.2-4.2-9.1-2.3c0,0-3.8,1.2-3.5,4
		l-0.1,1l-3.6,5.1c0,0-1.6,0.6-0.3,1.8l0.2,1.8l-3.9,2.7h-2l6-9c0,0,4-7.1,4.2-9c0,0,0.7-9.2-1.4-13.5c0,0-3.9-12.4-5.8-14.4
		c0,0-3.1-11.1-6.1-12.4l-1-1.9l-1-11.8c0,0,2.4-13.2,1.5-17.3l0.9-6.7l2.5-6.9l5.3-13.9c0,0,1.4-4.3,0.4-7.7l-1.8-5.4L74,165.4
		c0,0,3.3-1.9,3.7-3.6l6.6-5.3c0,0-0.3-2.4-2-1.2l-2.2,1.3l-1.5,0.4l0.3-1.8l-0.3-1.2c0,0,0.5-3.8-2-2.8c0,0-1.6-2.8-3.4-1.8
		c0,0-4.2-0.1-5.2,4.7l-0.9,3.4l-0.3,2.6l-2.3,2.4c0,0-1.4,1.1,0.5,5.2c0,0,5.7,9.6,6.2,13.2c0,0,2.9,11.5,3.8,12.9
		c0,0,0.1,6.3,1.8,8.2c0,0-4.9,4.4-5.5,6.4l-3.6-7.5c0,0-4.7-14.3-11.5-17.9c0,0-5.5-6-14.2-4.4c0,0-3.4-2.6-3.5,0.5
		c0,0-11.3,3.1-9.5,12.8c0,0-1.3,4.7-0.1,5.3c0,0-1.8,5.6,0.2,7.7c0,0,0.6,5.5,4.4,8.1l5,1.6c0,0,3,1.3,2.1,3.8l-1.5,4.4
		c0,0-1.7,1.3-0.8,2.3l0.4,0.6l1.3,6l-4.2,4.5l-5.9,3.8c0,0-9.6,1.8-15.2,6c0,0-4.5-13.9-5.2-20.8l-1.3-6.4c0,0-1-1.1,2.3-6.4
		l1.6-2.6l2.1-3.7l4-6.4c0,0,0.7-1.4-1.3-0.9l-3.4,4l-2.5,2v-1c0,0-2-1-2-1.4c0,0,0.8-3-3-1.1l-0.7,0.2c0,0-0.9-1.8-3.1,1.4
		c0,0-2.9-0.4-1.8,1.8c0,0,0.5,0.4,0.6,0.4c0,0,0.1,1.1,0.4,1.1c0,0-0.1,1.5,0.4,1.7c0,0-1.7,3.9-1.7,6.3c0,0-0.3,2.1,0.5,3.1
		l0.2,0.4c0,0,0.6,24.4,1.7,30.2c0,0,1.3,5,1.3,6.1c0,1.1,0.2,2.3,0.2,2.3s-0.2,2.2,3.2,2.1c0,0,8.2,1.2,15.8-1.1
		c0,0,9.6-2.2,11.1-3.4l0.8,0.1c0,0,2.8,7.7,5.9,11.7l3.4,7.8c0,0,0.4,5.6,0.8,7.4l0.7,6.5c0,0,0.3,7,1,7.6c0,0-0.2,4.3,0.4,5
		l0.2,0.5l1.2,8.7l-3.3,5.2c0,0-10.7,12.8-11.1,17.2l-0.5,1.2c0,0-8.3,13.1-4.7,21.1c0,0,2,6.5,10,7.8l0.3,0.4l0.5,8
		c0,0,1.1,6.3,9.2,8.9c0,0,7.3,2.6,12.8-3.1l9.2-8.6c0,0,4.2-1.1,4.8-4l0.7-5L91,343.3c0,0,0.9,0.3,1.1-0.1l6.5-5.1
		c0,0,0.5,1.9,2.3,1.4l2.2-1.4l3.3-0.5c0,0,6.9,0.5,8.4,0.2l1-0.1c0,0,5.3,1.9,7.3,3.8c0,0,3.5,1.2,4.8-0.5c0,0,1.5-2.2-1.5-6.3
		c0,0,5.2,1.2,5.6,2.3c0,0,4.3,1.9,6.2-1.2C138.2,335.8,140.4,332,138.6,328.7z M3.8,206.4l-0.6-1.5l1.1-0.3l0.1,1.1L3.8,206.4z"/>
        <path fill="white" class="st0" d="M434.8,44.3c0,0-0.9-1.2-2.3,1.3c0,0-0.3,1.1-0.2,2.4l-1.4-0.7c0,0-0.9-0.5-1.7,0c0,0-0.8,0.5-0.6,1.4
		c0,0-1-0.6-1.8-0.1l-1.1,0.6c0,0-0.3,0.7-0.1,1.2c0,0-0.6,0-1.2,0.2c0,0-1.3,1-1.4,2.3c0,0-0.1,1.6-0.1,2.3c0,0-0.2,3.7,0.9,5.7
		c0,0,0.1,3.2,1.7,4.2l0.5,17.4c0,0,1.6,13.1,2.6,19.4c0,0,0.2,4.7,0.9,5.7c0,0,3.4,35.5,8.6,42.4l-0.1,1.8c0,0-2.1,1-2.1,2.3
		c0,0-0.1,1.2,1.9,0.7c0.1,0.1,1.4,4.9,1.8,5.9c0,0,1.7,4.3,2,4.8c0,0,1.2,1.7,1.2,4.2l0.8,18.9l1,20.5c0,0-1.6,2.2-1.7,4.2l0.1,2.9
		l0.1,1.7c0,0-1.3,2.9-1.2,4.8l-0.3,1.9c0,0-2.8,8.1-1.5,12.5l0.7,3.1l-0.2,1.7l-0.8,7.1c0,0-2.2,2.9-0.9,5.4l0.2,9.4
		c0,0,0.2,1.5,0.1,2l-3.4,5.3c0,0-1,1.6,0.2,4.4l0.5,3.3l0.6,2.1c0,0-3.4,3.7-2.5,5.3c0.8,1.7,2.6,2.1,3.5,1.7c0.9-0.4,0,0.2,0,0.2
		l0.8,4.9l1.2,2.3c0,0,1.1,5.8,7,5l4.5,0.1c0,0,4.7-0.9,6.1-6.9l2-1.2c0,0,1.4-0.7,2.3-5c0,0,2.2-3.6,3.9-3.9c0,0,1.4-1,0.1-3.4
		c0,0-2.8-6-0.9-8.9l1.6-3.4c0,0,4.2-10.7,4.3-12.6l1.9-5.4l0.3-1.1h1.6c0,0,7.2,12.5,9.7,13.7l3.7,6.5l1.3,6.4c0,0,0,2.2,1.1,3.2
		l1.3,2.2l1.1,2c0,0,1,5.1,1.7,5.5l1.2,0.4l0.7,2.2l0.1,1.8c0,0,0.8,9.5,8,11.5l1.9-0.3c0,0,4.9-0.1,4.6-8.8c0,0,4.7-1.5,5.3-11.3
		v-1.3c0,0,4.6-10.4-1.1-12.7l-0.8-1.3l-0.7-2.7l-1.3-4.4l-0.8-2.9c0,0,1.3-6.3-1-9.4c0,0-0.3-4.7-1.4-5.7l-2.3-4.9
		c0,0-0.1-4.4-1.3-6.4c0,0,1.1-4.1-1.2-6.9c0,0-1.7-5.9-3.2-8.3c-1.6-2.4-2.9-4.7-3-5.3c-0.1-0.6-0.4-2.1-0.8-3.1
		c-0.3-1-1.3-3.3-1.3-3.3l0.2-2.9c0,0-0.6-27.8-2-31.8l-0.4-5.1l0.9-2.4c0,0,2.2-2.4,3.1-5.7l5.2-6.8l-2-1.8c0,0,0.5-2.3-1-3.2
		l3.4-13.6c0,0,4.3-14.1,3.9-17.4l1.9-14.1c0,0,2.3-14.6,2.7-17l1.2-13.9l0.9-5.4c0,0,2.4-8,2.4-11.6c0-0.1-0.2-0.8-0.2-0.8
		l-0.4-1.9c0,0-0.3-2.2-1.1-2.3c0,0-0.8-0.6-1.1,0c0,0-0.5-2.2-1.2-2.1c0,0-1.1-0.9-1.9-0.1c0,0-0.1-1.7-0.6-1.7l-2.4,0.7l-2.3,0.7
		c0,0-1-0.1-1.3,1.1l-1.1,1.8l-0.4,2.6l-0.1,2.4c0,0-0.1,1.3,1.9,3.3c0,0,2.1,2.3,1.8,4.5l-0.8,6.5l-1.8,12.3l-2.9,12
		c0,0-1.9,6.7-2.1,7c-0.1,0.3-3.3,10.2-3.3,10.2s-3.6,9.1-4.3,18.3c0,0-1.2,3.1-2,3.6c-0.8,0.5-0.3,0.3-0.3,0.3l-3.4,4l-1.6,0.8
		l-2.2,1.8l-2.2,3.1l-0.8-0.9c0,0,1.3-3.3,1-4.8c0,0,1.1-0.5,0.8-3.9c0,0,1.4-2.6,1.4-4.6c0,0,1.9-6,1.6-7.5c0,0,2.6-3.1-2.4-5.7
		c0,0-0.8-2.7-2.6-5.5c-5.4-8.3-18.5-1.8-18.5-1.8s-5.2-0.6-5.9,6c0,0-3-0.4-2.7,6.9l0.3,4.4c0,0-0.7,2.5,0.4,3.8l0.5,2.6
		c0,0-0.1,5.6,2.7,4.2c0,0,0.8,4.5,1.7,5.3l0.6,2.4l-1.4-0.1c0,0-2.1-2.8-3.6-2.8l-1.1,0.2l-3.1-3.7c0,0-1.2-2.2-1.2-3.4
		c0,0-5-20.1-6.4-23.7c0,0-1.2-4.5-1.3-4.7c-0.1-0.2-1.4-4.4-1.4-4.4s-1.9-12.6-3.2-16.4l-1.8-12.8l-0.2-5.9c0,0-0.3-1.8,0.6-2.7
		l2.5-3.9c0,0,1.2-1.6,0.7-3.5l-1.9-4.8L434.8,44.3z"/>
    </g>
</svg>